<?xml version="1.0" encoding="UTF-8" standalone="no"?>
<svg
   xmlns:dc="http://purl.org/dc/elements/1.1/"
   xmlns:cc="http://creativecommons.org/ns#"
   xmlns:rdf="http://www.w3.org/1999/02/22-rdf-syntax-ns#"
   xmlns:svg="http://www.w3.org/2000/svg"
   xmlns="http://www.w3.org/2000/svg"
   xmlns:sodipodi="http://sodipodi.sourceforge.net/DTD/sodipodi-0.dtd"
   xmlns:inkscape="http://www.inkscape.org/namespaces/inkscape"
   width="100mm"
   height="100mm"
   viewBox="0 0 100 100"
   version="1.1"
   id="svg8"
   inkscape:version="1.0 (4035a4fb49, 2020-05-01)"
   sodipodi:docname="customer-1.svg">
  <defs
     id="defs2" />
  <sodipodi:namedview
     id="base"
     pagecolor="#ffffff"
     bordercolor="#666666"
     borderopacity="1.0"
     inkscape:pageopacity="0.0"
     inkscape:pageshadow="2"
     inkscape:zoom="0.45254834"
     inkscape:cx="-272.41054"
     inkscape:cy="443.70726"
     inkscape:document-units="mm"
     inkscape:current-layer="layer4"
     inkscape:document-rotation="0"
     showgrid="false"
     inkscape:window-width="1920"
     inkscape:window-height="1027"
     inkscape:window-x="-8"
     inkscape:window-y="-8"
     inkscape:window-maximized="1"
     inkscape:object-nodes="false" />
  <metadata
     id="metadata5">
    <rdf:RDF>
      <cc:Work
         rdf:about="">
        <dc:format>image/svg+xml</dc:format>
        <dc:type
           rdf:resource="http://purl.org/dc/dcmitype/StillImage" />
        <dc:title></dc:title>
      </cc:Work>
    </rdf:RDF>
  </metadata>
  <g
     style="display:inline;opacity:1"
     inkscape:label="face"
     id="layer4"
     inkscape:groupmode="layer">
    <path
       sodipodi:nodetypes="cccccccccccccccccccscccccccccccc"
       id="path975"
       d="m 38.842708,73.946269 c 5.876118,7.602601 13.349187,10.499391 20.994456,12.888751 0.901775,0.41705 2.533024,0.50716 4.032467,0.65639 0.06983,-2.60879 0.161786,-5.20262 0.05631,-7.92908 l 0.352201,-1.30776 c 1.507242,-1.8954 2.177695,-4.149122 6.951889,-4.646096 1.790459,-0.0415 3.885797,-0.17073 6.096843,-0.332508 1.196568,-0.635028 2.165305,-1.536478 2.927089,-2.680792 0.01671,-1.379411 0.294558,-2.790723 -0.684038,-4.048677 -0.163,-0.621447 -0.246707,-1.237761 -0.0121,-1.832793 L 80.2828,64.276091 c 0.03239,-0.341778 0.156803,-0.41937 0.0826,-1.066963 -0.04167,-0.384539 -0.429122,-0.678845 -0.738608,-0.984904 0.75186,-0.419271 1.188247,-1.111746 1.148797,-2.215717 l -0.459298,-2.078376 c 0.128598,-0.568719 0.280268,-1.141746 1.547466,-1.934437 1.038773,-0.290567 1.991592,-0.87744 2.785368,-2.011759 0.08852,-0.950758 0.11752,-1.902162 -1.315272,-2.862822 l -3.714044,-5.106592 c -0.800828,-1.227962 -0.881381,-2.907349 -0.363368,-4.488978 0.658785,-2.011725 1.231637,-2.689147 0.905026,-3.867467 -1.396744,-3.714449 -2.13777,-7.524149 -4.856585,-11.046362 l -3.112888,-3.809214 -6.012229,-1.506807 -4.995897,2.098219 0.632926,9.588972 -6.772782,15.31736 -9.62608,-3.012771 c -3.107119,0.948763 -4.01883,3.607183 -5.578292,6.506349 l 5.361489,6.277624 c -1.704336,4.374847 -3.763442,8.342714 -6.898961,11.077743 1.947837,1.740406 1.503226,3.289842 0.541626,4.79708"
       style="opacity:1;fill:#ffb380;stroke:#000000;stroke-width:0;stroke-linecap:butt;stroke-linejoin:miter;stroke-miterlimit:4;stroke-dasharray:none;stroke-opacity:1" />
    <path
       style="fill:#ff7f2a;fill-opacity:0.286275;stroke:#000000;stroke-width:0;stroke-linecap:butt;stroke-linejoin:miter;stroke-miterlimit:4;stroke-dasharray:none;stroke-opacity:1"
       d="m 80.484566,51.737735 c -1.216603,0.41869 -2.416414,0.84158 -2.75044,1.480904 -0.598801,1.062799 0.36836,0.763916 0.994427,0.761655 1.164802,0.02197 2.48177,-0.375872 3.872039,-0.973148 h 1.290263 c 0.551586,0.465431 0.127661,0.930929 -0.126952,1.396368 -1.813951,1.062278 -3.121102,2.160669 -4.146812,3.279324 -0.417104,0.322449 -0.778711,0.84947 -1.354037,0.592524 -1.51376,-0.183928 -2.558649,-0.743096 -2.665724,-2.052423 -0.176008,-1.375085 -0.228548,-2.711605 0.486666,-3.808179 0.166769,-0.667256 3.23455,-2.117723 4.40057,-0.677025 z"
       id="path955"
       sodipodi:nodetypes="ccccccccccc" />
    <path
       style="fill:#f9a770;fill-opacity:1;stroke:#000000;stroke-width:0;stroke-linecap:butt;stroke-linejoin:miter;stroke-miterlimit:4;stroke-dasharray:none;stroke-opacity:1"
       d="m 76.311591,40.996757 c -0.97678,0.446673 -1.670921,0.610545 -2.28883,1.137019 -0.904953,-0.06861 -1.954941,0.04595 -3.096751,0.254246 -1.403787,0.64278 -2.344216,1.476848 -2.991967,2.199139 -0.992554,0.974328 -1.112878,1.265698 -1.645617,2.169272 l 2.581033,0.242228 c 1.826246,0.124571 3.252687,0.516119 4.86609,0.782549 0.763374,-0.468516 1.380795,-1.043265 1.925308,-1.671208 l 1.668187,-1.537794 c 0.65149,-1.196803 0.81661,-2.39361 1.047047,-3.590563 l -0.02949,-0.777887 z"
       id="path868"
       sodipodi:nodetypes="cccccccccccc" />
    <path
       sodipodi:nodetypes="cccccccccccccc"
       id="path965"
       d="m 45.430656,55.193965 c -0.67662,-0.805327 -1.450037,-1.392487 -1.997016,-2.489446 0.165012,-0.853803 0.02945,-1.587287 0.656575,-2.626184 0.536286,-0.574433 1.072928,-1.148789 2.817622,-1.723278 1.014483,0.25143 1.619497,0.639499 1.860149,1.148845 0.117302,0.857213 0.06484,1.71441 -0.218822,2.571482 -0.552685,0.345 -1.102416,0.691692 -1.832796,0.93007 -0.474953,-0.175709 -0.781967,-0.491298 -1.039526,-0.847927 0.761963,-0.637101 1.588825,-1.050351 1.942265,-1.915077 -0.313828,-0.332572 -0.964858,-0.431716 -1.750784,-0.437524 -0.564496,0.323722 -0.872041,0.679838 -1.148962,1.039394 -0.322467,0.805028 -0.331976,1.584 -0.218676,2.352643 0.20121,0.501294 0.738474,0.954801 1.176157,1.422441 0.07755,0.511427 -0.119485,0.472439 -0.246186,0.574561 z"
       style="display:inline;opacity:1;fill:#d38d5f;fill-opacity:1;stroke:#000000;stroke-width:0;stroke-linecap:butt;stroke-linejoin:miter;stroke-miterlimit:4;stroke-dasharray:none;stroke-opacity:1" />
    <path
       sodipodi:nodetypes="cccccccccccccc"
       id="path967"
       d="m 48.740882,50.912804 c 0.216254,0.143474 0.335115,0.319811 0.75213,0.396694 0.328859,-0.07659 0.558099,-0.318897 0.779549,-0.574608 0.53962,-0.290166 0.381471,0.07397 0.369441,0.300896 -0.141683,0.495187 -0.38789,0.872457 -0.820892,1.039598 0.124469,0.697902 0.263917,1.203342 0.56095,1.87376 0.08849,0.345748 0.03393,0.643794 -0.09619,0.916527 0.912664,0.142644 1.371837,0.361111 1.860161,0.574505 0.03757,0.21904 -0.01919,0.437537 -0.273541,0.656525 -0.472332,-0.32932 -1.178302,-0.637716 -2.051721,-0.930125 -0.925698,-0.06616 -1.609429,-0.252964 -2.325151,-0.42396 0.976293,-0.770296 1.027841,-1.19073 1.723273,-2.448333 -0.284845,-0.274789 -0.411399,-0.628516 -0.478606,-1.012239 z"
       style="display:inline;opacity:1;fill:#d38d5f;stroke:#000000;stroke-width:0;stroke-linecap:butt;stroke-linejoin:miter;stroke-miterlimit:4;stroke-dasharray:none;stroke-opacity:1" />
    <path
       style="fill:#e58647;fill-opacity:1;stroke:#000000;stroke-width:0;stroke-linecap:butt;stroke-linejoin:miter;stroke-miterlimit:4;stroke-dasharray:none;stroke-opacity:1"
       d="m 74.328008,42.788211 c -1.035585,0.50188 -1.884144,1.19114 -2.581149,2.031306 -0.959199,0.970375 -1.91812,1.659319 -2.8774,2.179144 1.77683,0.06485 3.503749,0.702919 4.86609,0.782549 1.040684,-0.556962 1.420445,-1.114117 1.925308,-1.671208 0.238361,-1.360286 -0.592014,-2.376567 -1.332849,-3.321791 z"
       id="path860"
       sodipodi:nodetypes="cccccc" />
    <path
       style="fill:#f8995a;fill-opacity:1;stroke:#000000;stroke-width:0;stroke-linecap:butt;stroke-linejoin:miter;stroke-miterlimit:4;stroke-dasharray:none;stroke-opacity:1"
       d="m 74.127563,43.225918 c 0.191475,0.168321 0.275661,0.34524 0.343966,0.523522 -0.591792,0.209488 -0.924472,0.445053 -1.331332,0.673162 -0.532902,0.344123 -1.002798,0.688102 -1.376453,1.03232 l -1.31646,0.942476 c -0.155102,0.137367 -0.249835,0.250075 -0.243121,0.321918 0.796481,0.148081 1.883854,0.121046 2.861306,0.17165 0.593557,-0.07957 1.086774,-0.299559 1.481164,-0.658068 0.30738,-0.359863 0.442191,-0.823674 0.553176,-1.30157 0.02004,-0.411532 -0.126182,-0.850628 -0.343901,-1.301686 -0.0696,-0.229647 -0.326231,-0.352218 -0.523612,-0.508508 0,0 -0.07428,4.27e-4 -0.09554,0.02547 -0.01628,0.01932 -0.0034,0.07886 -0.0034,0.07886 z"
       id="path862"
       sodipodi:nodetypes="cccccccccccacc" />
    <path
       style="fill:#ececec;stroke:#000000;stroke-width:0;stroke-linecap:butt;stroke-linejoin:miter;stroke-miterlimit:4;stroke-dasharray:none;stroke-opacity:1"
       d="m 71.449655,46.217847 c 0.636781,0.187692 1.37844,0.257331 2.244047,0.16464 0.302281,-0.590343 0.277742,-1.185503 -0.179539,-1.795326 -0.922749,0.444545 -1.501336,1.021042 -2.064508,1.630686 z"
       id="path864"
       sodipodi:nodetypes="cccc" />
    <path
       style="fill:#1a1a1a;stroke:#000000;stroke-width:0;stroke-linecap:butt;stroke-linejoin:miter;stroke-miterlimit:4;stroke-dasharray:none;stroke-opacity:1"
       d="m 73.514163,44.587161 c 0.541223,0.683316 0.448285,1.291421 0.179539,1.795326 -0.327175,-0.560236 -0.626045,-1.124536 -0.179539,-1.795326 z"
       id="path866"
       sodipodi:nodetypes="ccc" />
    <path
       style="fill:#a05a2c;stroke:#000000;stroke-width:0;stroke-linecap:butt;stroke-linejoin:miter;stroke-miterlimit:4;stroke-dasharray:none;stroke-opacity:1"
       d="m 72.335506,44.325467 c -1.156148,1.169388 -2.284163,1.986532 -3.407857,2.744623 l 0.268361,-0.0026 c 1.464814,-0.803302 2.687066,-1.946809 3.953021,-3.028836 0.374073,-0.669332 -0.08709,-0.343064 -0.406493,-0.185072 z"
       id="path950"
       sodipodi:nodetypes="cccccc" />
    <path
       style="fill:#ed9052;fill-opacity:0.439216;stroke:#000000;stroke-width:0;stroke-linecap:butt;stroke-linejoin:miter;stroke-miterlimit:4;stroke-dasharray:none;stroke-opacity:1"
       d="m 80.260932,51.723183 c -0.896795,0.0026 -1.367465,-0.163277 -3.141453,0.209463 -0.635636,0.70197 -0.839508,1.443403 -1.047099,2.183874 -0.244942,1.304703 0.07821,1.627916 0.329158,2.25912 l 1.077022,0.822922 c 0.621541,0.349247 1.685982,0.785703 2.363704,-0.0297 0.05894,-0.895343 0.689803,-1.53723 2.184092,-1.795117 0.11043,-0.17262 0.326363,-0.313059 0.05905,-0.598408 -1.427997,-0.740364 -2.456433,-0.149196 -3.411067,0.688094 l -0.927523,0.538659 c -0.295118,-1.097677 -0.692893,-1.449143 -1.077018,-2.094462 0.08746,-0.568677 0.156615,-1.142481 0.748035,-1.555833 0.641328,-0.454721 1.838405,-0.464131 2.842344,-0.628405 z"
       id="path952"
       sodipodi:nodetypes="ccccccccccccc" />
    <path
       style="fill:#ff2a2a;stroke:#000000;stroke-width:0;stroke-linecap:butt;stroke-linejoin:miter;stroke-miterlimit:4;stroke-dasharray:none;stroke-opacity:1"
       d="m 75.131934,62.654692 c 1.027671,-0.812948 2.618073,-2.145019 4.337047,-2.560012 0.979678,0.278169 0.810063,0.720706 1.079009,1.100095 -0.248467,0.624362 -0.597873,0.912813 -1.015507,0.973255 -1.835883,-8.55e-4 -3.04111,0.276746 -4.400549,0.486662 z"
       id="path1053"
       sodipodi:nodetypes="ccccc" />
    <path
       style="fill:#ff2a2a;stroke:#000000;stroke-width:0;stroke-linecap:butt;stroke-linejoin:miter;stroke-miterlimit:4;stroke-dasharray:none;stroke-opacity:1"
       d="m 75.089638,62.707513 c 1.608164,0.525791 2.947457,1.162371 5.140952,1.502196 0.412399,-0.667188 0.260869,-1.346478 -0.623892,-2.041679 -1.605839,-2.61e-4 -3.045088,0.299242 -4.51706,0.539483 z"
       id="path1055"
       sodipodi:nodetypes="cccc" />
    <path
       style="fill:#d38d5f;fill-opacity:1;stroke:#000000;stroke-width:0;stroke-linecap:butt;stroke-linejoin:miter;stroke-miterlimit:4;stroke-dasharray:none;stroke-opacity:1"
       d="m 49.172538,55.672844 c 0.417489,0.40401 0.643961,0.827119 1.311875,1.205983 0.231877,0.186915 0.580257,0.234408 0.951967,0.253878 0.467538,-0.136836 0.676705,-0.351295 0.8675,-0.571099 l -0.423348,-0.571378 0.317465,-0.423078 c 0.30079,0.242664 0.444926,0.462643 0.54995,0.676948 -0.131119,0.941647 -0.110127,1.376589 0.253981,2.284941 -0.04477,1.093698 -1.543944,1.876161 -2.327357,2.581046 -2.066008,-0.774224 -3.414627,-1.93518 -4.844773,-3.511868 -3.165783,-1.563483 -3.66826,-4.411511 -4.273728,-6.050936 0.111141,-2.810013 1.152492,-3.485735 2.200395,-4.146743 l 2.200013,-1.036867 c -2.94915,2.520575 -3.345254,2.539926 -3.342558,5.479836 0.632799,2.235371 1.773258,4.096165 3.702448,5.373829 0.99518,1.021405 2.176337,2.002998 3.9563,2.856241 0.254451,0.477059 2.480194,-1.390124 2.200302,-1.777249 -0.05124,-0.07117 -0.29614,-1.142528 -0.29614,-1.142528 -0.755215,0.558761 -1.569645,0.324956 -2.306304,-0.04167 -0.35618,-0.46031 -0.600759,-0.879646 -0.697988,-1.43886 z"
       id="path1057"
       sodipodi:nodetypes="ccccccccccccccccscccc" />
    <path
       style="fill:#ed9052;fill-opacity:0.301961;stroke:#000000;stroke-width:0;stroke-linecap:butt;stroke-linejoin:miter;stroke-miterlimit:4;stroke-dasharray:none;stroke-opacity:1"
       d="m 51.097876,61.216032 c 3.258093,3.610679 5.553415,7.542357 10.662972,10.536076 3.192532,0.530816 5.652212,0.864021 9.520491,0.719154 -3.247187,0.03748 -5.421129,2.44524 -7.827953,6.093278 -1.80613,2.91717 -3.459389,3.39439 -5.162273,4.6545 1.256095,1.08469 1.357414,2.27422 1.396415,3.46965 -6.279279,-3.05075 -9.510503,-1.14143 -20.987577,-12.651577 2.379784,-5.502943 5.031006,-11.060076 6.897144,-16.460042 1.568783,2.496506 2.435056,4.993007 2.877289,7.489496 0.072,3.090213 -1.104813,4.932023 -2.115756,6.939376 0.918009,1.36223 1.855301,2.70305 3.765985,2.961808 2.133373,2.024392 2.187819,3.481869 3.215784,5.204969 0.659175,1.79437 2.178058,2.73002 4.189129,3.17334 0.645935,-2.45427 1.992224,-4.90852 1.523589,-7.363027 -3.931127,-4.922113 -5.429189,-9.844602 -7.955239,-14.767001 z"
       id="path1059"
       sodipodi:nodetypes="ccccccccccccccc" />
    <path
       style="fill:#ed9052;fill-opacity:0.313725;stroke:#000000;stroke-width:0;stroke-linecap:butt;stroke-linejoin:miter;stroke-miterlimit:4;stroke-dasharray:none;stroke-opacity:1"
       d="m 59.517887,50.299033 11.255675,2.877318 c 1.482318,4.976349 1.220573,8.644585 0,11.593923 3.594144,1.357388 5.960317,2.960269 7.870365,4.654601 0.429749,0.754865 0.811712,1.489781 -0.08444,1.692341 -2.641368,1.950283 -4.530376,1.079142 -6.770154,1.523516 -4.094045,-2.593495 -8.239668,-4.967746 -12.778699,-5.670079 -2.967864,-2.313254 -5.572924,-4.626255 -7.193378,-6.939492 1.786741,-0.680081 2.105791,-2.338579 1.184833,-4.823516 0.39483,-1.615553 1.463617,-3.142958 -0.592442,-5.077852 2.173562,-0.705004 4.594587,-1.319605 5.585441,-2.454154 z"
       id="path1061"
       sodipodi:nodetypes="cccccccccccc" />
    <path
       style="fill:#f9a871;fill-opacity:1;stroke:#000000;stroke-width:0;stroke-linecap:butt;stroke-linejoin:miter;stroke-miterlimit:4;stroke-dasharray:none;stroke-opacity:1"
       d="m 74.456687,63.332225 c 1.256163,-0.208372 2.995078,0.700936 4.877056,0.897514 -0.464807,0.3898 -1.150811,0.406275 -1.256766,0.867842 0.811998,0.229292 0.622447,0.458763 0.688029,0.688111 l -1.705294,0.08978 -1.017384,-0.269272 c -0.966784,-0.898338 -1.348195,-0.956788 -1.555756,-1.615719 -0.168457,-0.21927 -0.18059,-0.438789 -0.02889,-0.65811 z"
       id="path1063"
       sodipodi:nodetypes="cccccccc" />
    <path
       style="fill:#ed9052;fill-opacity:0.333333;stroke:#000000;stroke-width:0;stroke-linecap:butt;stroke-linejoin:miter;stroke-miterlimit:4;stroke-dasharray:none;stroke-opacity:1"
       d="m 62.734005,30.750123 c 4.202018,1.400569 6.559315,3.556043 8.293478,5.966092 0.729646,0.787857 0.772929,1.703089 1.015473,2.581342 -2.519869,2.244833 -4.653452,3.523403 -6.727802,4.654559 -2.584145,1.144156 -4.737142,1.934577 -7.024041,2.834958 -2.129672,-5.759988 -0.306888,-11.066366 4.442892,-16.036951 z"
       id="path1065"
       sodipodi:nodetypes="cccccc" />
  </g>
  <g
     style="display:inline;opacity:1"
     inkscape:label="hair"
     id="layer3"
     inkscape:groupmode="layer">
    <path
       sodipodi:nodetypes="csccccscccccccccaccscscccccc"
       id="path25"
       d="m 74.781079,25.838038 c 0.979161,-1.351102 2.441996,-1.372677 2.951197,-2.05622 1.147096,-1.540523 2.316865,-2.919312 0.686829,-5.58289 C 75.057573,14.572937 73.089555,10.84378 67.199948,7.40521 64.495035,5.929879 61.845436,4.447641 58.340691,3.0721699 51.738653,2.4386159 46.641671,4.589412 42.092229,7.753239 c -3.616658,2.122406 -6.292759,4.634139 -8.990184,6.718616 -3.755026,2.901803 -5.730546,5.922925 -7.954551,8.949586 -1.627128,5.222555 -3.210467,9.144725 -2.702465,18.379652 -0.03112,2.771726 0.01264,5.804493 1.580564,8.120892 l 4.797143,11.373746 1.663538,2.978949 c 1.959856,1.745753 4.219954,3.43526 7.814728,4.874509 0.564029,0.397895 1.094942,0.906625 1.35401,2.321173 2.150699,-4.47882 4.690531,-8.40172 6.189899,-13.811157 -2.598765,-1.928603 -3.308084,-3.968439 -4.216885,-5.996412 -0.292419,-1.483874 0.80115,-3.405289 2.166481,-4.178214 1.799152,-1.018282 2.6529,-1.793279 6.189786,0.38683 0.666777,-0.141329 1.162102,0.91839 1.624929,2.205293 0,0 5.70882,-0.831208 6.847502,-3.056331 1.284968,-2.510853 0.0038,-6.154643 2.437295,-9.284849 0.374933,0.641478 3.132347,-3.928026 2.708058,-4.410314 -0.34582,-0.392684 -0.290776,-6.421981 -0.116041,-6.421981 0.01111,-1.073486 0.230976,-2.07263 -0.580365,-2.940198 1.645874,-0.748496 2.197384,-2.363397 6.112536,-1.315295 0.904466,0.592874 1.494058,1.238277 1.779479,1.934361 0.331842,-0.92448 0.859081,-1.36035 1.392808,-1.779595 1.110438,0.614771 1.578424,1.538102 2.590585,3.035538 z"
       style="opacity:1;fill:#333333;fill-opacity:1;stroke:#000000;stroke-width:0;stroke-linecap:butt;stroke-linejoin:miter;stroke-miterlimit:4;stroke-dasharray:none;stroke-opacity:1" />
    <path
       sodipodi:nodetypes="acacaasaaccccccscccccccccacccccccccccccccccccccccccccccacccccccccccaccaca"
       id="path954"
       d="m 28.843467,26.943601 c 1.777355,1.078724 5.201987,3.441329 5.201987,3.441329 -3.085853,0.594481 -5.794108,0.672801 -8.046834,2.321263 -0.825451,0.604204 -1.702221,2.553444 -1.702221,2.553444 0,0 5.032437,-1.625485 7.640611,-1.702322 2.382972,-0.07008 4.676337,1.147201 7.06033,1.141304 0.941251,-8.55e-4 1.868436,-0.676782 2.785415,-0.464258 4.3206,1.001078 8.241616,3.267489 12.379761,2.495231 1.744239,-0.325414 3.022634,-1.861679 4.487632,-2.862741 0.685807,-0.468566 2.011699,-1.470099 2.011699,-1.470099 -1.169153,-1.769458 -1.844255,-3.607162 -4.410237,-5.184074 0.617272,-1.153662 2.118347,-1.992008 4.178159,-2.630583 0.908052,-0.165485 -5.235287,-1.732294 -6.269881,-2.832966 -2.143139,-1.867783 -0.630939,-1.954775 -3.21105,-2.58335 -1.790009,-0.979872 0.424562,-1.959995 -2.434478,-2.940067 0,0 -3.177014,-1.290871 -3.481898,-1.238037 -0.852464,0.14815 -3.713517,-2.335294 -3.481752,-2.398515 -0.219236,-1.635482 1.213823,-2.049753 2.630616,-2.475985 1.086646,0.902132 2.095941,1.817207 2.321233,2.862933 0.05281,1.33414 0.778946,1.590556 1.547529,1.779623 0.725936,-1.752583 1.980497,-2.696647 3.945909,-2.553327 1.049111,0.937686 1.446082,1.929796 1.625104,2.94 0.830691,-0.937434 2.050247,-1.427907 4.332628,-0.696237 1.41939,0.886198 2.842061,1.721434 4.332991,1.39271 1.293759,-0.600248 2.647929,-1.403443 3.713959,-1.238003 0.57757,-0.38514 3.713562,0.781537 5.338713,1.702215 1.256044,0.71157 3.249665,2.86269 3.249665,2.86269 l -2.398563,3.636721 3.11294,3.809214 c 0.426818,0.277292 0.307302,-0.173627 2.215469,-2.685286 0.777199,-1.133815 1.834541,-2.132213 1.613895,-3.747721 l -1.139315,-2.637576 -6.410906,-6.991672 -4.322119,-3.118403 1.422454,3.118403 -5.908825,-5.033468 0.656602,1.969601 -2.680904,-1.805477 1.477404,3.501546 -0.711483,1.313176 -0.601767,-2.243301 -3.665753,-3.446696 -0.328124,3.227907 -2.516788,0.05431 0.110118,1.641334 -1.969638,0.273538 -2.954355,-2.297933 -5.088299,0.110122 -2.408089,-0.0603 -1.31211,0.936028 -1.313147,3.665591 -2.133682,1.313094 1.271992,1.914754 0.369349,1.696245 c -0.634279,1.00545 -1.48279,1.636086 -2.407321,2.133668 -0.21409,0.278556 1.218046,0.949414 1.901199,1.299391 1.299009,0.665503 4.317664,1.379413 4.117016,1.490855 l -3.665594,0.492472 0.875461,1.750781 3.173115,3.009073 3.39215,1.695982 -3.829938,0.273612 6.565437,1.914772 c 1.693217,0.0013 3.702331,-0.387659 4.869176,0.273679 1.293634,0.341479 1.358307,0.833428 1.969655,1.258417 -0.648755,0.835398 -1.631835,1.47994 -2.790197,2.024458 l -7.221809,-0.601981 c 0,0 -3.909724,-1.690557 -5.98627,-2.075784 -1.661064,-0.307949 -5.065412,-0.167458 -5.065412,-0.167458 0.591182,-0.647115 0.732454,-1.230148 0.820627,-1.805501 0,0 -3.020334,-2.867709 -4.896634,-3.665646 -1.147791,-0.488035 -3.138936,-0.772177 -3.692995,-0.60175 0,0 1.173689,0.621524 1.74107,0.965737 z"
       style="fill:#666666;fill-opacity:1;stroke:#000000;stroke-width:0;stroke-linecap:butt;stroke-linejoin:miter;stroke-miterlimit:4;stroke-dasharray:none;stroke-opacity:1" />
  </g>
  <g
     inkscape:groupmode="layer"
     id="layer5"
     inkscape:label="costume"
     style="opacity:1">
    <path
       style="fill:#000000;stroke:#000000;stroke-width:0;stroke-linecap:butt;stroke-linejoin:miter;stroke-miterlimit:4;stroke-dasharray:none;stroke-opacity:1"
       d="M 21.859165,84.44605 C 17.992977,87.02277 16.41416,88.48502 15.25822,90.15877 6.729983,99.76164 3.0135281,109.43964 4.3626529,119.3615 l 89.4524551,1.23795 c -0.216147,-3.42079 -0.970721,-6.84177 -2.304053,-10.26267 -0.03205,-1.33315 -0.0941,-2.63863 -0.239394,-3.85968 -0.801883,-4.08951 -1.662729,-8.14552 -3.560396,-11.60904 -1.567538,-4.44815 -3.591494,-6.50004 -5.597685,-8.64474 -3.794038,-2.94651 -7.588225,-3.20677 -11.382259,-4.1468 l -6.366746,-3.78544 c -0.936164,0.89531 -0.07205,6.67967 -0.503525,8.92868 C 49.574176,90.7415 29.335211,80.5618 21.859165,84.44605 Z"
       id="path871"
       sodipodi:nodetypes="cccccccccccc" />
    <path
       style="fill:#e6e6e6;stroke:#000000;stroke-width:0.306375px;stroke-linecap:butt;stroke-linejoin:miter;stroke-opacity:1"
       d="m 38.826859,73.867669 c -8.962183,2.368977 -12.220956,6.734071 -16.967694,10.578381 11.201901,6.92566 21.879345,14.27596 35.33184,19.37971 3.447316,5.57112 5.978301,11.14256 8.674419,16.71371 l 25.514863,-0.0844 -2.411773,-6.51629 c -1.043551,-3.23482 -2.141407,-6.43334 -3.850599,-9.22441 l -5.628049,-8.84343 c -2.337775,-5.20496 -4.86962,-10.19308 -9.09704,-13.28658 -2.360862,-1.27643 -4.921254,-2.48027 -6.093176,-4.189 l -0.423194,0.55003 c 0.890612,1.13955 1.542423,2.34544 3.088909,3.30048 0.05762,1.50899 -1.837182,3.31844 -3.131235,5.03535 C 52.881694,86.43688 44.745413,80.764 38.826859,73.867834 Z"
       id="path856"
       sodipodi:nodetypes="cccccccccccccc" />
    <path
       style="fill:#1a1a1a;stroke:#000000;stroke-width:0.306375px;stroke-linecap:butt;stroke-linejoin:miter;stroke-opacity:1"
       d="m 35.560346,74.791281 -1.675471,0.897975 c 3.780073,5.624024 9.590648,8.620274 15.22423,11.845904 l 13.370979,4.48505 3.427448,6.81254 7.743417,12.94774 3.596674,8.50524 0.8039,0.0844 -3.046481,-7.10873 c -1.988728,-3.68133 -3.977559,-7.19925 -5.96595,-11.04394 l -4.189595,-6.81237 -2.073124,-4.10451 -8.166508,-2.53869 -6.43174,-2.66581 C 42.525506,83.29246 37.842355,79.84238 35.560346,74.791136 Z"
       id="path858"
       sodipodi:nodetypes="ccccccccccccccc" />
    <path
       style="fill:#000000;stroke:#000000;stroke-width:0.306375px;stroke-linecap:butt;stroke-linejoin:miter;stroke-opacity:1"
       d="m 30.067981,77.8028 c 10.928547,9.36109 19.370406,14.46154 30.888895,17.5602 5.223897,8.44157 9.230791,16.70911 13.380077,24.9971 l -1.436095,0.11979 C 69.228801,112.81017 66.318901,104.48115 60.573674,96.6633 46.019032,91.41576 38.465228,85.07241 28.858217,78.53169 Z"
       id="path861"
       sodipodi:nodetypes="ccccccc" />
    <path
       style="fill:#000000;stroke:#000000;stroke-width:0.306375px;stroke-linecap:butt;stroke-linejoin:miter;stroke-opacity:1"
       d="m 25.926074,81.04505 -1.316489,1.10701 c 10.371847,6.89182 20.818312,13.74103 34.468073,18.75987 l 9.813789,19.62761 1.436142,-0.0589 C 66.268023,113.30317 62.504542,106.33787 59.556315,99.95481 46.43262,94.73336 35.381257,88.34017 25.926074,81.04523 Z"
       id="path863"
       sodipodi:nodetypes="ccccccc" />
    <path
       style="fill:#000000;stroke:#000000;stroke-width:0.306375px;stroke-linecap:butt;stroke-linejoin:miter;stroke-opacity:1"
       d="m 65.211356,79.75872 c 0.239327,0.50808 4.278614,4.63733 4.278614,4.63733 0.680577,2.51847 -1.292241,3.60809 -2.543306,5.08631 l -0.927574,1.07735 c 1.85537,3.26158 4.027253,6.83956 6.193652,10.41228 l 4.457952,5.38545 3.889545,7.33054 2.782577,6.82174 0.987537,0.0593 c -1.764582,-4.06019 -3.601978,-8.92177 -5.266117,-11.87816 -2.114219,-3.3318 -4.228724,-6.90534 -6.343079,-9.27521 -2.131044,-3.44091 -3.561844,-6.2817 -4.577626,-8.76686 1.065847,-1.52278 2.831976,-2.24597 2.902247,-4.90659 -0.707107,-1.07828 -1.253852,-2.06105 -3.111735,-3.82974 z"
       id="path865"
       sodipodi:nodetypes="ccccccccccccccc" />
    <path
       style="fill:#000000;stroke:#000000;stroke-width:0.306375px;stroke-linecap:butt;stroke-linejoin:miter;stroke-opacity:1"
       d="m 71.464647,87.92641 c 1.642259,1.86182 1.684858,3.62369 0.777964,5.32607 1.756372,2.54681 3.040549,4.98548 4.308499,7.41993 3.289743,2.69314 3.949452,5.62521 5.92424,8.43771 1.986404,3.77485 3.086644,7.63811 4.308422,11.4893 l 0.837756,-0.11953 c -1.403526,-4.02936 -2.786594,-8.05857 -4.966751,-12.08786 -2.370562,-3.78986 -4.412057,-7.57976 -7.360283,-11.36973 l -2.094462,-3.71013 c 1.178708,-1.85509 0.08774,-3.71003 -1.077082,-5.56513 z"
       id="path867"
       sodipodi:nodetypes="ccccccccccc" />
    <path
       style="fill:#333333;stroke:#000000;stroke-width:0.306375px;stroke-linecap:butt;stroke-linejoin:miter;stroke-opacity:1"
       d="m 24.071011,90.73904 c 5.677788,4.76724 10.602196,9.53465 17.89231,14.30194 1.571404,-0.7445 4.459393,-1.08876 9.694031,-0.71824 -0.623601,-0.9873 -0.156996,-1.6633 -2.812382,-3.23127 -1.806694,-0.60171 -3.8908,-1.17229 -7.121049,-1.61556 -3.474444,-3.56954 -10.805554,-6.08726 -17.65291,-8.73687 z"
       id="path873"
       sodipodi:nodetypes="cccccc" />
    <path
       style="fill:#1a1a1a;stroke:#000000;stroke-width:0.306375px;stroke-linecap:butt;stroke-linejoin:miter;stroke-opacity:1"
       d="m 53.093673,108.27244 0.897458,4.36797 2.094445,7.83948 7.898989,0.059 -3.171496,-10.2325 c 0,0 -1.974754,-1.07742 -2.273997,-1.13725 -0.299285,-0.059 -1.914927,-2.09437 -1.914927,-2.09437 z"
       id="path875" />
  </g>
</svg>
