<?xml version="1.0" encoding="UTF-8" standalone="no"?>
<svg
   xmlns:dc="http://purl.org/dc/elements/1.1/"
   xmlns:cc="http://creativecommons.org/ns#"
   xmlns:rdf="http://www.w3.org/1999/02/22-rdf-syntax-ns#"
   xmlns:svg="http://www.w3.org/2000/svg"
   xmlns="http://www.w3.org/2000/svg"
   xmlns:sodipodi="http://sodipodi.sourceforge.net/DTD/sodipodi-0.dtd"
   xmlns:inkscape="http://www.inkscape.org/namespaces/inkscape"
   inkscape:export-ydpi="478.00037"
   inkscape:export-xdpi="478.00037"
   inkscape:export-filename="D:\InkScape\Nebula\Nebula_24062020.png"
   sodipodi:docname="customer-2.svg"
   inkscape:version="1.0 (4035a4fb49, 2020-05-01)"
   id="svg8"
   version="1.1"
   viewBox="0 0 100 100"
   height="100mm"
   width="100mm">
  <defs
     id="defs2" />
  <sodipodi:namedview
     inkscape:object-nodes="false"
     inkscape:window-maximized="1"
     inkscape:window-y="-8"
     inkscape:window-x="-8"
     inkscape:window-height="1027"
     inkscape:window-width="1920"
     showgrid="false"
     inkscape:document-rotation="0"
     inkscape:current-layer="layer4"
     inkscape:document-units="mm"
     inkscape:cy="306.15102"
     inkscape:cx="210.93981"
     inkscape:zoom="1.0251242"
     inkscape:pageshadow="2"
     inkscape:pageopacity="0.0"
     borderopacity="1.0"
     bordercolor="#666666"
     pagecolor="#ffffff"
     id="base" />
  <metadata
     id="metadata5">
    <rdf:RDF>
      <cc:Work
         rdf:about="">
        <dc:format>image/svg+xml</dc:format>
        <dc:type
           rdf:resource="http://purl.org/dc/dcmitype/StillImage" />
        <dc:title></dc:title>
      </cc:Work>
    </rdf:RDF>
  </metadata>
  <g
     inkscape:label="trace1"
     id="layer2"
     inkscape:groupmode="layer"
     style="display:inline;opacity:1;mix-blend-mode:normal">
    <path
       sodipodi:nodetypes="ccccccccccccccc"
       id="path931"
       d="M 41.910814,90.682096 35.78602,104.33646 c 6.047227,2.37213 11.051241,2.13622 15.62104,0.81476 2.180106,-4.24859 2.910163,-8.569681 2.978112,-12.923878 l 6.433842,-1.587388 c 1.573638,-2.461589 4.111688,-4.753009 4.059784,-7.501473 l -2.135249,2.472393 -2.191436,1.601438 -1.208104,0.814774 -2.233586,1.264288 -2.823588,1.854296 -4.425026,0.997389 -3.708591,0.0702 -2.331917,-0.575947 z"
       style="fill:#111546;fill-opacity:1;stroke:#000000;stroke-width:0.314668px;stroke-linecap:butt;stroke-linejoin:miter;stroke-opacity:1" />
    <path
       sodipodi:nodetypes="cccccccccscc"
       id="path929"
       d="m 64.836657,83.012057 c 0.236808,2.322568 -1.587168,4.082909 -2.809538,5.984318 l -1.264295,1.685721 -6.602417,1.798104 c -0.391025,4.558732 -1.096306,8.9511 -2.753347,12.83959 3.739975,-1.44642 7.651496,-3.02063 10.872915,-5.28192 -1.167121,-4.930205 -1.253745,-9.016681 1.534169,-11.558939 l 4.133954,-2.646177 c 1.105611,-0.109685 1.988048,-0.941859 2.611,-1.765578 0.408271,0.0075 1.231594,-1.834019 -0.741876,-1.658145 -0.155191,0.01384 -3.699139,-0.912224 -3.746944,-0.800684 z"
       style="fill:#140120;fill-opacity:1;stroke:#000000;stroke-width:0;stroke-linecap:butt;stroke-linejoin:miter;stroke-miterlimit:4;stroke-dasharray:none;stroke-opacity:1" />
    <path
       sodipodi:nodetypes="cccccc"
       id="path925"
       d="m 41.096049,89.642565 1.067626,0.505724 -6.265275,14.216251 -5.169552,-2.19142 -0.0281,-2.16334 c 3.985007,-3.154747 7.81326,-6.400237 10.395301,-10.367215 z"
       style="fill:#110861;fill-opacity:1;stroke:#000000;stroke-width:0;stroke-linecap:butt;stroke-linejoin:miter;stroke-miterlimit:4;stroke-dasharray:none;stroke-opacity:1" />
    <path
       sodipodi:nodetypes="ccccccccccccc"
       id="path960"
       d="m 31.019646,75.427472 c -2.026341,1.274743 -0.567662,2.554266 -0.0409,3.979908 L 41.29272,89.473999 c -2.722402,4.087335 -6.531706,7.422194 -10.620059,10.563871 l -4.720026,-4.27051 -1.180006,0.393341 -3.764784,-3.315251 c -1.445638,-2.622248 -2.712055,-5.244477 -3.708591,-7.866715 0.735098,-0.831315 1.652262,-1.207473 2.528585,-1.68573 l 2.865731,-5.478593 1.643637,-0.771369 1.053522,-2.178647 c 2.195891,-1.490133 3.822699,0.0075 5.628919,0.563076 z"
       style="fill:#360259;fill-opacity:1;stroke:#000000;stroke-width:0;stroke-linecap:butt;stroke-linejoin:miter;stroke-miterlimit:4;stroke-dasharray:none;stroke-opacity:1" />
    <path
       sodipodi:nodetypes="ccccccc"
       style="fill:#05449c;fill-opacity:1;stroke:#000000;stroke-width:0;stroke-linecap:butt;stroke-linejoin:miter;stroke-miterlimit:4;stroke-dasharray:none;stroke-opacity:1"
       d="m 28.292731,50.291016 -1.835346,4.657182 6.266238,3.522532 -0.309053,-3.59621 6.770991,-2.191444 c -0.05919,-0.71005 -0.175305,-1.420096 -0.788742,-2.13015 -3.217942,-2.743199 -7.397578,-3.222518 -10.104088,-0.26191 z"
       id="path948" />
    <path
       sodipodi:nodetypes="ccccccccccccccccccccccccccccccc"
       id="path899"
       d="m 25.743741,55.035739 c 0.423302,1.286429 0.670593,2.54772 0.912396,3.808217 0.383093,0.252097 0.813417,0.425484 1.047293,0.92627 0.28509,0.02616 0.56275,0.01767 1.002208,0.764226 l 1.20304,2.478557 3.306735,5.296277 1.284091,-0.692285 0.650376,-1.077311 2.195433,-1.122371 1.643581,1.187027 2.662039,-1.650601 0.97254,0.129114 -0.438017,-0.279853 -0.07797,-0.291772 0.477622,-0.08428 0.07024,-0.632144 -0.491668,-0.660248 -4.144074,-0.885003 -3.835021,0.519765 -1.699769,-1.151908 -3.132638,-4.720027 0.37929,-0.266906 0.08428,-0.519766 -1.236196,-0.75858 -0.646193,-1.348578 -1.390722,-1.278337 -0.435479,-1.306437 -0.533812,0.435479 0.252857,0.98334 c -0.284067,0.424493 -0.08808,0.869868 0.232064,1.320632 0.109737,-0.04571 -0.254964,0.774624 -0.314527,0.877504 z"
       style="fill:#161578;fill-opacity:1;stroke:#000000;stroke-width:0.11893;stroke-linecap:butt;stroke-linejoin:miter;stroke-miterlimit:4;stroke-dasharray:none;stroke-opacity:1" />
    <path
       sodipodi:nodetypes="cccccccccccccccccc"
       id="path1015"
       d="m 23.678266,44.303738 2.271877,5.612305 0.477266,-0.03358 -0.04299,-0.517125 c 0.434957,-0.661802 0.902186,-1.315097 1.485358,-1.937805 l -0.919775,-1.084769 0.985037,-1.273723 c 0.03902,-0.350405 -0.434685,-0.991503 -0.73515,-1.534381 l 0.15847,0.03681 0.245107,-12.811755 -1.096185,-6.265176 c 0.330399,-0.3026 0.445994,-0.16365 0.564146,-0.02996 0.09514,-1.792312 -0.06559,-3.559537 0.69539,-5.417129 0.334378,-1.720193 1.707997,-3.272934 2.902879,-4.756647 l -0.573348,0.06634 c -3.043424,2.607663 -3.566926,5.727075 -4.549102,8.753339 -0.851792,4.453281 -2.633389,8.857322 -2.311827,13.372738 -0.466568,0.941499 0.270737,5.147259 0.442837,7.820486 z"
       style="display:inline;opacity:0.626229;fill:#ffffff;stroke:#000000;stroke-width:0.0773049;stroke-linecap:butt;stroke-linejoin:miter;stroke-miterlimit:4;stroke-dasharray:none;stroke-opacity:1" />
    <path
       sodipodi:nodetypes="ccsccccccc"
       id="path953"
       d="m 43.863445,57.50144 c -1.599023,1.490008 -3.752295,1.686768 -5.773604,2.191435 -2.138688,-0.500276 -3.852031,-1.316971 -4.876639,-2.84265 -0.415252,-0.618326 -0.818203,-1.353241 -1.206012,-2.172374 1.002694,-1.076038 2.598493,-1.743495 4.410976,-2.261681 l 1.657626,0.309051 c 0.106312,-0.514691 0.236728,-0.999931 0.674291,-1.109768 0.87946,0.868127 1.85174,1.705305 3.287161,2.388114 l 2.444299,2.950015 z"
       style="fill:#14146c;fill-opacity:0.870588;stroke:#000000;stroke-width:0.011893;stroke-linecap:butt;stroke-linejoin:miter;stroke-miterlimit:4;stroke-dasharray:none;stroke-opacity:1" />
    <path
       sodipodi:nodetypes="ccccccccccccccccsccccccccccccccccccccccccccccccccccccccccccccccccccccccc"
       style="fill:#24278a;fill-opacity:1;stroke:#000000;stroke-width:0.196234;stroke-linecap:butt;stroke-linejoin:miter;stroke-miterlimit:4;stroke-dasharray:none;stroke-opacity:1"
       d="m 45.455408,4.595675 -2.96704,1.0780753 -2.486865,0.9169077 -3.169327,1.4402306 -1.854216,1.7977499 -0.08528,2.3742605 0.207457,4.573036 0.309644,3.104323 1.148338,5.402202 1.492689,6.261889 0.897577,3.630002 -0.305522,6.909627 -0.277678,2.538914 0.01209,1.78838 5.444606,3.819514 1.092019,2.619702 c 0,0 1.608383,3.919157 1.666132,4.039267 0.05775,0.120105 -2.386859,1.453253 -2.386859,1.453253 l -0.649569,2.175529 -1.712612,0.251682 -3.622254,1.438562 1.229255,0.41198 2.773906,0.499871 0.465986,0.702617 -0.08663,0.620635 -0.409506,0.134159 0.03197,0.204214 0.430541,0.322765 -0.987162,-0.155108 -2.659016,1.707349 -1.650308,-1.207711 -0.856502,2.708789 -2.208698,1.495743 2.378575,2.937628 0.412007,2.54272 -0.149577,3.313342 0.328278,2.39347 0.1858,6.156502 1.466725,1.455708 2.332804,1.778184 2.703208,1.446743 2.26764,0.540837 3.710755,-0.111214 4.3699,-0.943991 2.243597,-1.538839 2.917335,-1.681502 1.173956,-0.806584 -0.121564,-1.651307 -0.152127,-2.882475 0.05095,-5.113177 -0.146986,-3.892599 -0.255829,-4.189805 -0.142322,-2.066982 -0.314034,-2.926149 -0.373965,-2.63189 -0.387895,-1.536251 0.40012,-2.209507 0.607369,-7.144776 -0.572905,-8.073708 0.104858,-5.124622 -0.405722,-2.468793 1.507012,-6.020737 2.269959,-6.646815 1.98646,-9.352473 L 65.533055,9.9376738 65.835651,8.0143179 63.286468,6.9289155 59.884606,5.7134675 56.061046,4.8502858 52.848999,4.3326302 49.57408,4.0724625 Z"
       id="path1434" />
    <path
       style="fill:#171468;fill-opacity:1;stroke:#000000;stroke-width:0;stroke-linecap:butt;stroke-linejoin:miter;stroke-miterlimit:4;stroke-dasharray:none;stroke-opacity:1"
       d="m 39.05092,11.693719 4.092488,-0.83439 4.368205,-0.696325 2.704245,-0.138067 4.767951,0.357596 4.251416,0.834391 1.353537,0.357595 c -0.938837,4.610817 -2.00735,9.195696 -3.687843,13.658181 -2.126592,-0.757294 -2.777819,-0.466434 -5.79107,-0.92379 l -3.05943,0.03972 -2.662105,0.327796 -4.284919,0.884054 C 40.405257,20.938228 39.647551,16.315974 39.05092,11.693719 Z"
       id="path1424"
       sodipodi:nodetypes="ccccccccccccc" />
    <path
       style="fill:#0e0259;fill-opacity:1;stroke:#000000;stroke-width:0.0773049;stroke-linecap:butt;stroke-linejoin:miter;stroke-miterlimit:4;stroke-dasharray:none;stroke-opacity:1"
       d="m 40.419295,6.443367 -0.982685,0.3632084 -0.343548,0.8544619 -0.171274,1.5791763 0.01,1.7780474 0.178796,1.380718 0.861713,6.13415 0.899052,6.377655 0.6181,2.640968 0.337146,1.685721 c -0.341959,0.845698 -0.807816,0.643572 -1.40477,0.505717 l -0.800718,-3.427636 -0.885006,-5.67527 -0.927149,-6.377655 -0.08428,-2.163345 -0.0281,-2.584777 0.252858,-2.3600116 0.252858,-1.376676 0.421432,-0.4214287 0.505717,-0.1404781 0.604052,0.1264335 0.266903,0.2247637 z"
       id="path1426"
       sodipodi:nodetypes="ccccccccccccccccccccccc" />
    <path
       style="display:inline;fill:#0e0259;fill-opacity:1;stroke:#000000;stroke-width:0.0773049;stroke-linecap:butt;stroke-linejoin:miter;stroke-miterlimit:4;stroke-dasharray:none;stroke-opacity:1"
       d="m 61.53607,5.8839607 0.363966,-0.823287 0.742051,0.1660177 0.03594,1.3071475 -0.501521,2.4508863 -0.799821,3.5702248 -1.851048,7.638567 -1.269855,5.027048 -1.177496,4.193983 c -0.548363,0.09527 -1.176386,0.653396 -1.534348,-0.357467 l 0.53302,-1.761984 2.805243,-9.177884 1.817031,-7.005468 z"
       id="path1428"
       sodipodi:nodetypes="cccccccccccccc" />
    <path
       style="fill:#0e0259;fill-opacity:1;stroke:#000000;stroke-width:0.11893;stroke-linecap:butt;stroke-linejoin:miter;stroke-miterlimit:4;stroke-dasharray:none;stroke-opacity:1"
       d="m 51.490111,4.1374183 -0.3793,-0.030327 -0.420364,0.8364636 -0.280196,1.7658881 -0.20004,2.0340672 -0.03831,0.6597284 C 49.60504,10.310389 49.127794,10.311651 48.738556,9.4232246 L 49.058348,6.9133319 49.251224,5.342783 49.521206,4.2370572 49.958878,3.1901208 50.357597,2.8450514 51.062066,2.7154502 51.43436,3.1707864 Z"
       id="path1431"
       sodipodi:nodetypes="ccccccccccccccc" />
    <path
       sodipodi:nodetypes="ccccccccccccc"
       id="path841"
       d="m 69.605504,51.704736 c -0.751855,-1.095594 -1.324376,-1.338446 -2.542902,-1.589316 -2.836896,0.210831 -5.648959,0.550005 -8.463102,1.271455 -1.819818,0.417366 -3.368655,1.079832 -4.88715,2.10584 l -1.589311,2.264773 -0.476795,1.748246 c -0.189588,1.085412 0.05148,2.165239 0.238395,3.258097 l 0.556265,-2.383971 1.033055,-2.046245 1.827707,-1.907177 2.264774,-1.033056 c 3.113029,-1.649955 6.797642,-1.970278 10.092164,-2.523039 z"
       style="fill:#000000;fill-opacity:1;stroke:#000000;stroke-width:0.11893;stroke-linecap:butt;stroke-linejoin:miter;stroke-miterlimit:4;stroke-dasharray:none;stroke-opacity:1" />
    <path
       sodipodi:nodetypes="cccccccc"
       id="path843"
       d="m 53.73222,57.028939 c 1.715703,-1.761599 3.781702,-3.111098 6.396992,-3.814357 1.402058,-0.359878 2.470049,-0.200114 3.397165,0.1788 1.139622,0.782547 1.539625,1.608598 1.787987,2.443571 l -3.615698,1.58932 c -2.192551,0.665339 -3.556099,-0.04638 -5.622206,-0.735065 l -2.225042,0.516532 z"
       style="fill:#030548;fill-opacity:1;stroke:#000000;stroke-width:0.11893;stroke-linecap:butt;stroke-linejoin:miter;stroke-miterlimit:4;stroke-dasharray:none;stroke-opacity:1" />
    <path
       sodipodi:nodetypes="cccccccc"
       id="path845"
       d="m 59.781553,53.810575 c 1.643297,-0.162997 2.502323,0.557317 3.397164,1.658848 0.0936,0.120927 0.179605,0.320203 -0.01,0.466862 l -0.625792,0.715195 c -0.774309,0.649929 -1.698896,0.780792 -2.731641,0.913853 -1.01779,-0.09819 -1.994904,-0.440449 -2.960102,-0.854254 -0.411301,-0.357593 -0.757095,-0.685392 -0.427121,-1.042985 0.816027,-1.15729 2.135739,-1.67519 3.357483,-1.857519 z"
       style="fill:#000000;stroke:#000000;stroke-width:0.0773049;stroke-linecap:butt;stroke-linejoin:miter;stroke-miterlimit:4;stroke-dasharray:none;stroke-opacity:1" />
    <path
       sodipodi:nodetypes="ccccc"
       id="path847"
       d="m 59.175622,55.330363 c -0.108929,-0.11589 -0.0774,-0.231779 -0.02981,-0.347668 0.347329,-0.09045 0.69928,-0.189016 0.943657,-0.09932 0.377921,0.381461 0.146444,0.538413 0.04964,0.744986 -0.379013,0.05973 -0.690262,-0.0669 -0.963515,-0.297994 z"
       style="fill:#ffffff;stroke:#000000;stroke-width:0;stroke-linecap:butt;stroke-linejoin:miter;stroke-miterlimit:4;stroke-dasharray:none;stroke-opacity:1" />
    <path
       sodipodi:nodetypes="ccccccccc"
       id="path849"
       d="m 62.125791,54.466171 c 0.321219,0.652283 0.399863,1.304563 0.168864,1.956842 -0.671967,0.480033 -1.561428,0.68326 -2.523036,0.794656 l -1.033059,0.139068 c 0.717495,0.212543 1.533571,0.28336 2.67204,-0.10926 0.468654,-0.07232 0.80228,-0.333677 1.142325,-0.58606 l 0.635726,-0.74499 c 0.13129,-0.165555 0.06476,-0.331111 -0.03975,-0.496661 -0.303811,-0.410937 -0.668871,-0.668767 -1.023123,-0.953595 z"
       style="fill:#ffffff;stroke:#000000;stroke-width:0.11893;stroke-linecap:butt;stroke-linejoin:miter;stroke-miterlimit:4;stroke-dasharray:none;stroke-opacity:1" />
    <path
       sodipodi:nodetypes="ccc"
       id="path851"
       d="m 59.443821,56.144885 c 0.446872,-0.03511 0.519985,0.188999 0.39733,0.53639 -0.435284,0.16378 -0.814907,-0.151053 -0.39733,-0.53639 z"
       style="fill:#f9f9f9;stroke:#000000;stroke-width:0.0773049;stroke-linecap:butt;stroke-linejoin:miter;stroke-miterlimit:4;stroke-dasharray:none;stroke-opacity:1" />
    <path
       sodipodi:nodetypes="cccc"
       id="path937"
       d="m 54.069952,57.664664 c 5.079365,3.133842 8.57514,3.250502 11.264274,-1.64891 -3.172093,5.06309 -7.716794,3.902127 -11.077356,1.535637 -0.593365,-0.06476 -0.358074,0.0052 -0.186918,0.113282 z"
       style="display:inline;opacity:0.963934;fill:#205ea7;fill-opacity:0.964706;stroke:#000000;stroke-width:0;stroke-linecap:butt;stroke-linejoin:miter;stroke-miterlimit:4;stroke-dasharray:none;stroke-opacity:1" />
    <path
       sodipodi:nodetypes="cccccc"
       id="path940"
       d="m 42.626879,56.115086 c -0.810173,-1.197396 -1.712614,-2.354455 -4.013023,-2.900504 -2.518287,0.102005 -3.074886,0.986508 -5.284471,2.264778 0.865774,1.180784 2.256275,1.741435 3.695157,2.244908 1.297337,0.157114 2.548546,0.175853 3.63556,-0.297995 0.956752,-0.236294 1.478413,-0.762638 1.966777,-1.311187 z"
       style="display:inline;opacity:0.862295;fill:#181818;fill-opacity:1;stroke:#000000;stroke-width:0.0773049;stroke-linecap:butt;stroke-linejoin:miter;stroke-miterlimit:4;stroke-dasharray:none;stroke-opacity:1" />
    <path
       sodipodi:nodetypes="ccccccccc"
       id="path943"
       d="m 37.415552,53.511892 c -1.011435,0.374608 -1.629532,0.749211 -1.854296,1.123818 -0.369283,0.505952 -0.408003,0.992465 -0.140478,1.460956 0.205836,0.580774 0.867228,0.857837 1.629535,1.067627 0.925577,0.218641 1.747337,0.220088 2.542631,0.08428 0.791965,-0.18373 1.390076,-0.420325 1.77001,-0.716429 0.256013,-0.348904 0.428684,-0.690321 0.140477,-1.362633 -0.706319,-0.840362 -1.641261,-1.490203 -3.020254,-1.77001 z"
       style="fill:#000000;stroke:#000000;stroke-width:0.0237859;stroke-linecap:butt;stroke-linejoin:miter;stroke-miterlimit:4;stroke-dasharray:none;stroke-opacity:1" />
    <path
       sodipodi:nodetypes="ccccc"
       id="path947"
       d="m 38.087397,55.439628 c -0.04795,0.01384 -0.109725,-0.451631 0.04966,-0.4768 0.336502,0.05747 0.665969,0.04286 1.003256,0.01986 0.233734,0.21236 0.102055,0.405489 0.109262,0.605926 -0.390953,-0.02595 -0.776343,-0.08468 -1.162183,-0.148993 z"
       style="fill:#f2f2f2;stroke:#000000;stroke-width:0.011893;stroke-linecap:butt;stroke-linejoin:miter;stroke-miterlimit:4;stroke-dasharray:none;stroke-opacity:1" />
    <path
       sodipodi:nodetypes="ccccc"
       id="path949"
       d="m 38.310893,56.308781 c 0.130788,-0.07434 0.261575,-0.06629 0.392364,0.0052 0.102934,0.108536 0.04138,0.202125 0.005,0.297999 -0.133892,0.02546 -0.265649,0.07437 -0.412227,-0.03975 -0.05372,-0.08241 -0.076,-0.167695 0.01486,-0.263258 z"
       style="fill:#ececec;stroke:#000000;stroke-width:0.011893;stroke-linecap:butt;stroke-linejoin:miter;stroke-miterlimit:4;stroke-dasharray:none;stroke-opacity:1" />
    <path
       sodipodi:nodetypes="cccccccccc"
       id="path951"
       d="m 35.701732,54.3969 c -0.283535,0.355756 -0.621272,0.684409 -0.765598,1.109764 0.345835,1.772117 1.675188,1.904316 3.343352,2.11418 1.611862,-0.303723 5.544811,-0.709465 3.259065,-2.451323 0.174191,0.533712 0.169563,0.96369 -0.168575,1.383696 -0.539759,0.346682 -1.118123,0.603286 -1.77001,0.688335 -0.747834,0.111844 -1.49035,0.149246 -2.219536,0 -0.646723,-0.206564 -1.306474,-0.392769 -1.650601,-0.688335 -0.16965,-0.302024 -0.423905,-0.604052 -0.505717,-0.906076 0.0063,-0.393225 0.231798,-0.820168 0.47762,-1.250241 z"
       style="fill:#cccccc;stroke:#000000;stroke-width:0;stroke-linecap:butt;stroke-linejoin:miter;stroke-miterlimit:4;stroke-dasharray:none;stroke-opacity:1" />
    <path
       sodipodi:nodetypes="cccccccccccccccc"
       id="path957"
       d="m 43.878463,59.452648 c -0.397299,-0.295835 -0.78773,-0.600815 -0.874123,-1.311188 0.590745,-0.365827 1.045121,-0.773621 1.465153,-1.191982 l -2.50814,-2.970035 C 40.657217,53.377878 39.649822,52.521969 38.713187,51.6054 l -3.882413,-2.420193 c -1.161276,-0.477044 -2.322549,-0.62704 -3.483825,0.05619 -2.456377,0.533562 -2.623449,2.309228 -3.431732,3.327524 -1.425299,-0.579181 -0.974623,-2.17443 -1.541155,-3.215146 1.318797,-2.084978 2.884397,-3.891513 5.675271,-4.523359 5.192896,2.070117 7.170551,4.259907 10.374552,6.404044 0.818522,0.899621 0.828304,1.799243 1.200749,2.698864 l 1.264292,1.93858 c 0.525222,0.564473 0.461786,1.213038 0.449526,1.854298 l -1.164961,0.565022 z"
       style="fill:#151570;fill-opacity:0.87451;stroke:#000000;stroke-width:0.011893;stroke-linecap:butt;stroke-linejoin:miter;stroke-miterlimit:4;stroke-dasharray:none;stroke-opacity:1" />
    <path
       sodipodi:nodetypes="cccccccccccccc"
       id="path959"
       d="m 38.306444,46.440682 -4.888836,-2.89887 c -1.318491,-0.544445 -2.623875,-0.458318 -3.912795,0.420007 l 0.196504,-9.474273 0.384494,-0.429513 c -0.11969,-1.140305 0.05062,-2.286638 0.09731,-3.430401 l 0.302561,-0.315405 c -0.552301,-3.299369 -1.054926,-6.616455 -1.276403,-10.033793 -0.339061,-2.354068 0.469283,-4.268249 1.559841,-6.074235 l 4.153332,-4.3296438 c -0.0644,3.3174958 0.102161,6.6109028 0.486396,9.8816048 l 3.564834,15.353609 -0.08994,2.432648 z"
       style="fill:#05479d;fill-opacity:0.945098;stroke:#000000;stroke-width:0;stroke-linecap:butt;stroke-linejoin:miter;stroke-miterlimit:4;stroke-dasharray:none;stroke-opacity:1" />
    <path
       sodipodi:nodetypes="cccccccccccccccccccccccccccccccc"
       id="path985"
       d="m 45.340352,57.701384 c 0.422859,-0.261799 0.895092,-0.493752 1.235542,-0.805357 L 43.826123,50.223151 C 41.972432,48.952156 40.24088,47.684162 38.26505,46.41017 l -4.819125,-2.853023 c -1.833411,-0.691569 -2.956004,-0.233628 -3.952263,0.428609 l 0.215317,-9.500849 0.369287,-0.440477 c -0.141412,-1.09382 -0.0081,-2.258898 0.106144,-3.419033 l 0.302947,-0.315656 C 30.035072,27.75788 29.696109,25.208797 29.37312,22.660105 l -0.230681,-3.5271 c 0.0021,-1.151155 0.284911,-2.29543 0.811262,-3.433736 l 0.74548,-1.422202 c -1.059902,1.460188 -2.392495,2.507135 -2.925241,4.766181 -0.746683,1.964823 -0.626984,3.724215 -0.698086,5.528848 l 0.776766,5.296682 c 0.554358,1.464906 -0.126717,3.13656 0.05829,5.143261 l -0.240652,3.329407 0.107357,3.149366 c -0.0046,0.662205 0.564289,1.934149 -0.19472,2.118264 l -0.373673,-0.07999 c 0.245827,0.542194 0.759423,0.977926 0.710136,1.547531 l -0.965135,1.268984 0.901359,1.08991 c 0.805872,-1.074434 1.99643,-1.983247 4.20645,-2.59489 2.307128,0.913266 4.478617,2.036125 6.416356,3.520194 l 3.754762,2.74785 1.078208,1.874259 0.293429,0.927597 1.212482,1.842416 c 0.600432,0.623462 0.564122,1.285808 0.523084,1.948448 z"
       style="display:inline;opacity:1;fill:#09095f;fill-opacity:1;stroke:#000000;stroke-width:0.011893;stroke-linecap:butt;stroke-linejoin:miter;stroke-miterlimit:4;stroke-dasharray:none;stroke-opacity:1" />
    <path
       style="fill:#8f92e2;fill-opacity:0.988235;stroke:#000000;stroke-width:0.011893;stroke-linecap:butt;stroke-linejoin:miter;stroke-miterlimit:4;stroke-dasharray:none;stroke-opacity:1"
       d="m 30.637581,14.319081 c -1.056618,1.229877 -2.183912,2.485709 -2.732318,4.14381 -0.683323,1.609751 -0.79165,3.22114 -0.794075,4.832833 l -0.04176,1.081247 c -0.257218,-0.163288 -0.412951,0.01525 -0.597025,0.09833 l 1.102743,6.258251 -0.240457,12.816007 -0.218531,-0.06457 0.610893,0.968489 c 0.158348,0.200587 0.177906,0.400779 0.193699,0.600959 l -1.013189,1.296284 0.923791,1.062855 c -0.549708,0.585637 -1.012121,1.271608 -1.471333,1.961262 0.09399,0.0861 0.08133,0.331172 0.101839,0.526788 l -0.540841,0.02806 -2.237093,-5.594496 -0.484646,-4.906158 -0.112377,-1.390723 c -0.0076,-0.512371 -0.08843,-1.021099 0.140478,-1.545243 -0.08038,-1.726411 0.04528,-3.460818 0.414407,-5.204673 l 1.329319,-5.589934 0.604554,-2.639251 c 0.555954,-1.777797 0.922911,-3.556134 1.855465,-5.332856 l 1.128979,-1.808941 1.46536,-1.541075 z"
       id="path898"
       sodipodi:nodetypes="cccccccccccccccccccccccccc" />
    <path
       style="fill:#05499e;fill-opacity:1;stroke:#000000;stroke-width:0;stroke-linecap:butt;stroke-linejoin:miter;stroke-miterlimit:4;stroke-dasharray:none;stroke-opacity:0.651822"
       d="m 65.843275,8.0438575 -0.303354,1.876522 c 0,0 -1.068767,4.2451785 -1.068962,4.3154165 -2.03e-4,0.07024 -2.047352,8.659262 -2.047352,8.659262 l -1.672309,5.316671 -0.895392,3.376752 -0.924736,3.811735 0.431507,1.94815 c -0.471286,4.593999 0.07271,9.167109 0.458483,13.692142 2.404551,-0.375772 4.84553,-0.88201 7.173676,-0.955804 l 1.488898,0.381714 1.082982,1.111251 1.158149,1.091755 1.26017,-3.881679 c 0.136188,-1.009902 0.760914,-1.032102 1.37361,-0.989406 0.626353,0.390241 0.908257,0.961596 1.227415,1.513354 l 3.161548,-7.937595 1.274527,-6.629229 C 79.241294,32.838056 79.288286,30.6319 78.929785,27.720729 77.942797,23.944719 76.841421,20.348687 75.22204,17.567675 73.182661,13.361503 70.217658,10.03385 65.843275,8.0438575 Z"
       id="path900"
       sodipodi:nodetypes="ccscccccccccccccccccc" />
    <path
       sodipodi:nodetypes="cccccccccccccccccccccccccccccc"
       id="path874"
       d="m 77.507679,42.00683 -2.921921,7.332897 c -0.360064,-0.520475 -0.537082,-1.104317 -1.208105,-1.517151 -0.852716,-0.184647 -1.266372,0.199868 -1.404765,0.941198 l -1.250245,3.905256 -1.095726,-1.039527 -2.050959,-0.814771 c -2.715464,0.343966 -5.346437,0.7662 -7.951002,1.664652 l -0.09834,0.906081 c 2.398672,-0.716289 2.980815,-0.248839 3.947406,-0.02806 1.163153,0.71643 1.523839,1.615243 1.882389,2.514541 l -3.554068,1.531193 c -0.866273,0.368865 -1.73255,0.308947 -2.598823,0.295005 l -0.421429,2.598823 0.379283,1.489057 0.709565,5.494037 0.498539,8.483424 v 6.124792 c 0.05493,1.744495 0.176782,3.488992 0.27174,5.23349 l 2.116365,-1.496811 4.073834,-4.832401 c 1.54009,-2.18465 2.599213,-4.609792 3.624309,-7.05194 1.258164,-3.566365 2.454138,-7.127315 2.865729,-10.62006 2.021458,-1.18095 3.45654,-2.752812 4.467175,-4.607648 1.107492,-2.902212 1.954633,-5.826114 2.612866,-8.765761 0.08901,-0.992705 0.112328,-1.985406 0.07024,-2.978112 -0.208775,-0.905247 -0.369127,-1.598419 -1.250246,-1.980725 -0.854259,0.07886 -1.20708,0.365258 -1.62251,0.800721 -0.466684,0.418448 -0.844152,1.040675 -1.327513,1.292386 z"
       style="display:inline;opacity:1;fill:#05459d;fill-opacity:1;stroke:#000000;stroke-width:0;stroke-linecap:butt;stroke-linejoin:miter;stroke-miterlimit:4;stroke-dasharray:none;stroke-opacity:1" />
    <path
       sodipodi:nodetypes="cccc"
       id="path883"
       d="m 78.462918,26.203172 -0.814762,4.045734 c 0.06225,3.408908 -0.362606,6.817815 -0.814763,10.226723 -0.725829,2.823559 -1.934115,5.16466 -3.174784,7.473374"
       style="fill:none;stroke:#000000;stroke-width:0.314668px;stroke-linecap:butt;stroke-linejoin:miter;stroke-opacity:1" />
    <path
       sodipodi:nodetypes="cccccccc"
       id="path885"
       d="m 72.386806,13.124103 c -1.573662,0.976203 -1.765833,2.653676 -1.616583,4.978249 0.346616,6.305386 2.968867,12.343486 3.377303,18.43606 0.431922,0.889988 0.466045,1.909338 1.238534,2.792941 l 1.530298,1.128975 c 0.427067,-3.452292 0.773778,-6.918765 0.754931,-10.449747 l 0.834389,-4.052758 c -1.450397,-4.543057 -3.18371,-8.958802 -6.118872,-12.83372 z"
       style="fill:#2e87ea;fill-opacity:1;stroke:#000000;stroke-width:0.314668px;stroke-linecap:butt;stroke-linejoin:miter;stroke-opacity:0" />
    <path
       sodipodi:nodetypes="ccccccccccccccccccc"
       id="path895"
       d="m 70.743712,52.647962 1.229176,3.729659 c -0.888593,2.921925 -2.794808,5.843845 -4.326693,8.765766 -2.572075,4.676517 -3.583929,9.513122 -4.888596,14.272459 l 0.232384,5.883045 c 2.148756,-2.47464 4.409223,-4.677984 6.059265,-8.36377 1.854605,-3.678622 2.818049,-7.519271 3.878881,-11.34221 l 0.386314,-2.500491 0.323098,-0.154528 0.470601,-4.734068 c 0.458827,0.155705 0.791613,-0.528907 1.18,-0.842863 -0.295925,-0.205296 -0.265641,-0.834674 0,-1.77001 -0.116801,-0.636828 -0.269248,-1.273657 -0.590002,-1.910489 l 1.559292,-6.74289 1.278338,-5.043124 -2.964053,7.431232 c -0.305988,-0.558838 -0.548065,-1.151307 -1.194064,-1.531196 -0.944917,-0.159171 -1.293609,0.282261 -1.376673,0.856903 z"
       style="fill:#5152cf;fill-opacity:1;stroke:#000000;stroke-width:0.0773049;stroke-linecap:butt;stroke-linejoin:miter;stroke-miterlimit:4;stroke-dasharray:none;stroke-opacity:0" />
    <path
       sodipodi:nodetypes="ccccscccccc"
       id="path1017"
       d="m 31.968372,54.706038 -2.161684,1.995107 3.495254,5.276901 c 1.506925,0.558325 3.075182,0.894916 4.923097,0.220436 l 3.545753,-1.42082 c 0.271353,-0.108739 1.21242,-0.120575 1.721485,-0.284456 l 0.326093,-1.069782 c -0.5317,-0.192892 -0.688882,-0.806557 -0.873392,-1.247451 -1.47438,0.740181 -3.147144,1.16687 -4.876464,1.550139 -2.720329,-0.70493 -3.442466,-1.487493 -4.894989,-2.83734 z"
       style="display:inline;opacity:1;fill:#05459d;fill-opacity:0.995951;stroke:#000000;stroke-width:0.0773049;stroke-linecap:butt;stroke-linejoin:miter;stroke-miterlimit:4;stroke-dasharray:none;stroke-opacity:1" />
    <path
       style="fill:#05459d;fill-opacity:1;stroke:#000000;stroke-width:0;stroke-linecap:butt;stroke-linejoin:miter;stroke-miterlimit:4;stroke-dasharray:none;stroke-opacity:1"
       d="m 37.387455,86.959464 c -1.039081,-0.88143 -4.956425,-3.900935 -5.624584,-5.687766 0.13128,-1.048747 0.321772,-2.097494 0.02006,-3.146249 -0.741338,-1.891821 -0.844831,-4.937346 -1.784884,-7.252772 l -1.084356,-2.872719 -2.350607,-4.029516 -1.425222,-4.277567 c -1.231161,-0.946965 -1.986666,-2.0675 -2.218498,-3.379126 -0.308952,-2.607211 -0.653013,-5.218082 -1.17212,-7.847244 -0.202883,-1.320221 -0.891737,-2.647345 -0.09933,-3.953421 0.379939,-0.549826 0.751292,-1.114253 2.001544,-0.183767 l 2.150544,8.487939 c -0.429193,0.754381 0.109177,0.917755 0.238396,1.33105 l -0.357596,0.854259 c 0.45495,1.268536 0.770076,2.539913 0.933722,3.814357 0.408885,0.330099 0.892664,0.565555 1.047698,0.926249 0.442599,0.09475 0.84685,0.290039 1.254473,1.214 l 0.927148,2.022875 c 1.333121,1.815084 2.343109,3.583026 3.366341,5.3529 l 1.325588,-0.731209 0.632148,-1.039536 2.174483,-1.11485 c -0.03586,1.080914 -0.508044,1.848186 -0.839953,2.716297 l -2.240606,1.510119 2.395134,2.921925 0.421429,2.549659 -0.140477,3.315254 0.323097,2.458338 z"
       id="path894"
       sodipodi:nodetypes="ccccccccccccccccccccccccccccc" />
    <path
       sodipodi:nodetypes="cccccccccccccc"
       id="path896"
       d="M 39.567444,64.220595 38.246329,62.17435 c -1.872163,0.748589 -3.144659,0.437203 -4.9354,-0.179215 l -3.553096,-5.372754 c -1.639791,-0.14964 -1.81998,-0.662673 -2.542907,-2.026379 -0.673423,-0.374304 -0.468485,0.05225 -0.560669,0.207896 l 1.609183,3.77462 c 1.773617,0.08861 2.007501,0.955688 2.721703,2.423708 l 0.933721,0.119198 c 0.621398,0.792032 0.713295,1.599705 1.717742,1.30919 0.262384,0.839326 0.180967,1.204871 1.003964,1.273445 l 0.397329,-0.536394 c 2.511768,-0.338047 2.323332,-0.220553 3.556093,1.609182 0.104432,-0.405468 0.245185,-0.774624 0.973452,-0.556252 z"
       style="fill:#6061d5;fill-opacity:0.819608;stroke:#000000;stroke-width:0;stroke-linecap:butt;stroke-linejoin:miter;stroke-miterlimit:4;stroke-dasharray:none;stroke-opacity:1" />
    <path
       sodipodi:nodetypes="cccc"
       id="path901"
       d="m 26.634392,54.823765 1.638982,3.794494 c 2.179885,0.243889 1.934119,1.556217 2.715355,2.41618 l 0.906079,0.09833"
       style="fill:none;stroke:#000000;stroke-width:0.196234;stroke-linecap:butt;stroke-linejoin:miter;stroke-miterlimit:4;stroke-dasharray:none;stroke-opacity:1" />
    <path
       sodipodi:nodetypes="ccccccc"
       id="path933"
       d="M 31.720202,81.345467 C 28.446983,75.141048 26.918943,67.722593 25.320485,60.353123 l 1.250246,3.624305 c 0.626119,1.526666 1.424847,3.034149 2.388107,4.523353 l 1.517152,4.804315 c 0.29993,1.770011 0.62455,3.619482 1.035416,5.389494 0.154506,0.883623 0.148789,1.767255 0.208796,2.650877 z"
       style="fill:#26278a;fill-opacity:1;stroke:#000000;stroke-width:0.0773049;stroke-linecap:butt;stroke-linejoin:miter;stroke-miterlimit:4;stroke-dasharray:none;stroke-opacity:1" />
    <path
       style="fill:#17136a;fill-opacity:0.890196;stroke:#000000;stroke-width:0;stroke-linecap:butt;stroke-linejoin:miter;stroke-miterlimit:4;stroke-dasharray:none;stroke-opacity:1"
       d="m 57.603764,86.224623 c -4.131439,-2.239409 -7.826262,-3.676914 -11.917452,-3.508368 -0.55391,0.05898 -1.683178,-0.404234 -1.805097,-0.261663 -0.196411,0.229675 1.077286,1.171977 1.149503,1.453643 4.927455,-0.790032 8.928406,1.124937 12.573046,2.316388 z"
       id="path944"
       sodipodi:nodetypes="ccscc" />
    <path
       style="fill:#8e91e1;fill-opacity:0.984314;stroke:#000000;stroke-width:0;stroke-linecap:butt;stroke-linejoin:miter;stroke-miterlimit:4;stroke-dasharray:none;stroke-opacity:1"
       d="m 23.676906,44.373867 1.882391,7.522542 0.547859,-0.491666 0.400359,1.215119 c 0,0 1.40477,1.250245 1.418818,1.299414 0.01403,0.04918 1.453938,1.334528 1.453938,1.334528 l 0.561906,-0.01405 0.0281,-0.252859 -0.716434,-0.238806 -2.275726,-3.287163 -0.09042,-0.645219 -0.471826,-1.425414 0.0596,0.516519 -0.55626,0.01985 z"
       id="path946" />
    <path
       style="fill:#0b115b;fill-opacity:1;stroke:#000000;stroke-width:0.11893;stroke-linecap:butt;stroke-linejoin:miter;stroke-miterlimit:4;stroke-dasharray:none;stroke-opacity:1"
       d="m 28.720028,51.095687 c 0.838053,-0.41142 1.322806,0.5906 1.938583,0.842867 0.912514,-0.704093 1.758945,-1.492915 1.952628,-3.118585 -0.385777,0.09691 -0.747845,0.151129 -1.22215,0.407384 -2.137723,0.535415 -2.348068,1.205745 -2.669061,1.868334 z"
       id="path950"
       sodipodi:nodetypes="ccccc" />
    <path
       style="fill:none;stroke:#000000;stroke-width:0.196234;stroke-linecap:butt;stroke-linejoin:miter;stroke-miterlimit:4;stroke-dasharray:none;stroke-opacity:1"
       d="m 28.284549,51.643553 c 0.226988,0.493892 0.495676,1.029486 0.758577,1.559292 0.445313,-0.206689 1.250205,-0.936538 1.51715,-1.250245"
       id="path952"
       sodipodi:nodetypes="ccc" />
    <path
       style="fill:#000000;fill-opacity:0.870588;stroke:#000000;stroke-width:0;stroke-linecap:butt;stroke-linejoin:miter;stroke-miterlimit:4;stroke-dasharray:none;stroke-opacity:1"
       d="m 33.063887,55.611609 c 1.766008,-1.32753 3.417089,-2.068143 5.530105,-2.416889 1.023776,0.09183 1.793648,0.733809 2.602501,1.291313 1.173825,0.994534 1.893092,2.259244 2.840903,3.456764 0.439459,-0.09341 0.88832,-0.17473 1.072786,-0.595993 -0.09345,-0.595993 -0.236737,-1.191982 -0.516524,-1.787978 -1.172895,-1.234492 -2.083179,-2.527339 -3.556096,-3.695156 -0.453075,-0.409722 -0.912255,-0.818892 -1.768113,-1.191994 -0.24785,-0.05656 -0.289655,0.05172 -0.357595,0.139068 l 3.258096,3.218364 c 0.191048,0.370341 -0.0069,0.546166 -0.178799,0.735058 -1.059966,-0.701663 -2.037889,-1.458025 -3.417028,-1.94691 h -1.66878 c -1.75208,0.397653 -2.985114,1.078609 -4.291152,2.10584 -0.214203,0.434284 0.325533,0.704026 0.449696,0.688513 z"
       id="path958"
       sodipodi:nodetypes="ccccccccccccccc" />
    <path
       sodipodi:nodetypes="cccccccccccc"
       id="path927"
       d="m 70.736685,82.899673 c 0.361477,1.079531 -0.902404,1.810767 -1.966672,2.584777 -3.104631,1.190366 -4.12884,2.161741 -5.281938,3.146684 -2.23975,1.522562 -1.890241,4.210315 -2.135249,6.630509 l 1.741911,10.058147 2.360022,-2.64096 c 3.869579,-1.12389 7.149324,-2.739306 10.395294,-4.382875 l -2.640969,-8.709582 -1.629533,-6.349559 c -0.292543,-0.537392 -0.437212,-1.148699 -1.517152,-1.292386 -1.354899,-0.405497 -2.683902,-0.318233 -3.903801,-0.352489 1.227122,0.558051 3.40692,0.645894 4.578087,1.307734 z"
       style="fill:#360259;fill-opacity:1;stroke:#000000;stroke-width:0;stroke-linecap:butt;stroke-linejoin:miter;stroke-miterlimit:4;stroke-dasharray:none;stroke-opacity:1" />
    <path
       sodipodi:nodetypes="cccccccccsscccc"
       id="path941"
       d="m 22.591569,78.127107 c 0.311003,0.897362 0.882316,1.723741 1.48005,2.542902 0.93748,0.844151 1.776778,1.896789 2.811105,2.52304 l 4.052752,3.655428 c 0.567243,0.476955 0.577765,0.897887 0.645661,1.410519 -2.181262,3.074224 -4.131249,5.288995 -7.072454,7.271112 l 0.715192,0.397334 c 1.973798,-1.482904 3.638944,-3.318563 5.363939,-5.085821 0.603974,-0.695719 1.310103,-1.255229 1.708514,-2.225037 0.05699,0.03416 0.402376,-1.756189 0.03974,-1.94691 -0.145314,-0.07643 -2.292214,-2.076514 -2.62237,-2.105842 -0.279853,-0.02491 -4.13222,-3.337567 -4.13222,-3.337567 -0.88545,-0.749699 -1.590819,-1.594742 -2.026377,-2.582631 l -0.407264,-1.042992 z"
       style="fill:#3a2b48;fill-opacity:1;stroke:#000000;stroke-width:0;stroke-linecap:butt;stroke-linejoin:miter;stroke-miterlimit:4;stroke-dasharray:none;stroke-opacity:1" />
    <path
       sodipodi:nodetypes="cccc"
       id="path964"
       d="m 52.313849,94.790048 -0.730471,6.883402 c 0.701514,-1.779256 1.487907,-2.809464 2.072578,-5.61982 -0.112722,-1.309479 -0.634246,-1.533839 -1.342107,-1.263582 z"
       style="fill:#2f3bc2;fill-opacity:1;stroke:#000000;stroke-width:0;stroke-linecap:butt;stroke-linejoin:miter;stroke-miterlimit:4;stroke-dasharray:none;stroke-opacity:1" />
  </g>
  <g
     inkscape:groupmode="layer"
     id="layer4"
     inkscape:label="lines"
     style="display:inline;opacity:1">
    <path
       sodipodi:nodetypes="ccccccccccc"
       id="path988"
       d="m 25.114994,30.792556 -0.217514,0.922481 0.240354,2.458568 c -0.518701,0.335357 -0.617689,0.811064 -0.185979,1.273767 -0.442823,0.854004 -0.593414,1.714595 -0.84288,2.572959 0.102256,0.247055 0.283272,0.464643 0.519027,0.66176 0.296182,-0.405692 0.536087,-0.887204 0.652855,-1.534624 0.05365,-0.485901 0.02241,-0.973715 -0.135604,-1.464388 0.175416,-0.08117 0.302798,-0.225231 0.375282,-0.441181 l 0.118228,-2.751382 c -0.169018,-0.573077 -0.13369,-1.406192 -0.523769,-1.69796 z"
       style="display:inline;opacity:0.95082;fill:#000000;stroke:#000000;stroke-width:0;stroke-linecap:butt;stroke-linejoin:miter;stroke-miterlimit:4;stroke-dasharray:none;stroke-opacity:1" />
    <path
       id="path990"
       d="m 25.414889,28.435507 0.627987,2.994882 -0.193754,6.831421 -1.582899,3.22324 0.294788,0.145751 1.401907,-3.127967 0.378772,-7.105454 -0.799571,-3.316693 z"
       style="display:inline;opacity:0.95082;fill:#000000;stroke:#000000;stroke-width:0.011893;stroke-linecap:butt;stroke-linejoin:miter;stroke-miterlimit:4;stroke-dasharray:none;stroke-opacity:1" />
    <path
       id="path995"
       d="m 25.143235,47.297441 1.550076,-2.536853"
       style="display:inline;opacity:0.95082;fill:none;stroke:#000000;stroke-width:0.314668px;stroke-linecap:butt;stroke-linejoin:miter;stroke-opacity:1" />
    <path
       id="path997"
       d="m 26.582882,46.782198 0.798353,1.274718"
       style="display:inline;opacity:0.95082;fill:none;stroke:#000000;stroke-width:0.314668px;stroke-linecap:butt;stroke-linejoin:miter;stroke-opacity:1" />
    <path
       id="path999"
       d="m 26.235959,47.53635 0.688524,1.07662"
       style="display:inline;opacity:0.95082;fill:none;stroke:#000000;stroke-width:0.314668px;stroke-linecap:butt;stroke-linejoin:miter;stroke-opacity:1" />
    <path
       id="path1001"
       d="m 25.549014,48.51089 0.518151,1.214902 0.365207,0.0046"
       style="display:inline;opacity:0.95082;fill:none;stroke:#000000;stroke-width:0.314668px;stroke-linecap:butt;stroke-linejoin:miter;stroke-opacity:1" />
    <path
       id="path1003"
       d="m 25.405719,39.776275 1.267761,4.903944"
       style="display:inline;opacity:0.95082;fill:#4d4d4d;stroke:#5d5d5d;stroke-width:0.196234;stroke-linecap:butt;stroke-linejoin:miter;stroke-miterlimit:4;stroke-dasharray:none;stroke-opacity:1" />
    <path
       sodipodi:nodetypes="cccccc"
       id="path963"
       d="m 37.946716,30.966084 0.388092,4.169058 0.156663,2.17494 c 0.196441,0.06393 0.293388,0.181294 0.379903,0.262389 l 0.04094,-2.493221 c -0.324905,-1.333866 -0.52201,-2.831342 -0.965602,-4.113166 z"
       style="display:inline;opacity:0.95082;fill:#86bafb;fill-opacity:0.945098;stroke:#000099;stroke-width:0;stroke-linecap:butt;stroke-linejoin:miter;stroke-miterlimit:4;stroke-dasharray:none;stroke-opacity:1" />
    <path
       sodipodi:nodetypes="cscc"
       id="path983"
       d="m 38.850544,37.807805 c 0.09963,0.0091 -0.360332,6.757224 -0.452082,6.688298 -0.0405,-0.03043 0.130204,-6.904542 0.130204,-6.904542 -0.03536,-0.03852 0.232697,0.125811 0.321878,0.216244 z"
       style="display:inline;opacity:0.95082;fill:#79b0f3;fill-opacity:0.996078;stroke:#000000;stroke-width:0.011893;stroke-linecap:butt;stroke-linejoin:miter;stroke-miterlimit:4;stroke-dasharray:none;stroke-opacity:1" />
    <path
       sodipodi:nodetypes="ccccccccccsc"
       id="path992"
       d="m 27.355611,43.55587 0.252573,-12.805569 -1.091257,-6.244376 c 0.181948,-0.126122 0.3476,-0.348998 0.615256,0.03374 0.110557,1.771872 0.499661,3.587237 0.749491,5.380855 0.361071,1.243786 0.118895,1.959063 0.07914,2.851679 -0.05163,0.750325 -0.09336,1.500953 -0.04075,2.254461 l -0.244407,3.400691 0.09815,3.228447 c 0.06432,0.582648 0.313719,1.33401 0.137882,1.697746 -0.09834,0.183822 -0.211355,0.232302 -0.32816,0.253885 -0.07003,0.01294 -0.14141,-0.01347 -0.227922,-0.05156 z"
       style="display:inline;opacity:1;fill:#1a1a1a;stroke:#000000;stroke-width:0.011893;stroke-linecap:butt;stroke-linejoin:miter;stroke-miterlimit:4;stroke-dasharray:none;stroke-opacity:1" />
    <path
       style="fill:none;stroke:#002255;stroke-width:0.196234;stroke-linecap:butt;stroke-linejoin:miter;stroke-miterlimit:4;stroke-dasharray:none;stroke-opacity:1"
       d="m 59.322497,37.507184 c 0.673314,0.189531 1.346579,0.394513 2.019264,0.804827 0.838493,0.215039 0.759538,1.339404 1.032222,1.98519 l 0.702613,4.41237 0.595047,3.816069 0.104153,1.788286"
       id="path902"
       sodipodi:nodetypes="cccccc" />
    <path
       style="fill:#002255;stroke:#000000;stroke-width:0;stroke-linecap:butt;stroke-linejoin:miter;stroke-miterlimit:4;stroke-dasharray:none;stroke-opacity:1"
       d="m 34.827534,44.31115 1.427055,-5.796957 2.188756,-1.205615 0.05841,0.417363 -2.088575,0.907906 -1.466729,5.776975 z"
       id="path904" />
    <path
       sodipodi:nodetypes="ccccccccccc"
       id="path887"
       d="m 52.003841,25.083703 c -1.429519,1.717709 -3.055985,3.280672 -3.059434,6.118863 -0.245228,1.124849 0.149201,2.158318 0.635726,3.178632 0.244928,1.198638 2.105403,1.858761 3.536224,2.662102 1.271455,0.462701 2.542906,0.258821 3.814357,-0.119198 1.089641,-0.464154 1.789903,-2.291167 2.463441,-4.211684 -0.116469,-2.064336 -0.408996,-4.148234 -1.470114,-6.317532 l -0.754927,3.059432 -1.629048,-0.476793 0.874125,-3.456763 z"
       style="fill:#31358b;fill-opacity:0.768627;stroke:#000000;stroke-width:0.314668px;stroke-linecap:butt;stroke-linejoin:miter;stroke-opacity:0" />
    <path
       sodipodi:nodetypes="cccc"
       id="path889"
       d="m 55.95851,38.284189 c -0.903759,4.495267 -0.599094,8.990525 -0.337143,13.485792 -5.586371,-2.121029 -3.151378,-5.096587 -9.102907,-6.461943 0.05386,-8.640505 0.624457,-7.937662 9.44005,-7.023849 z"
       style="fill:#2b3086;fill-opacity:1;stroke:#000000;stroke-width:0.314668px;stroke-linecap:butt;stroke-linejoin:miter;stroke-opacity:0" />
    <path
       sodipodi:nodetypes="ccccc"
       id="path879"
       d="m 66.030712,81.705614 c 0.958772,-4.832401 1.592802,-9.664806 2.950011,-14.497215 1.125352,-1.717476 2.215506,-3.458426 3.118593,-5.324079 0.623927,-1.612673 1.26544,-3.216556 1.598677,-4.974579 0.394789,-2.506817 0.622555,-5.055386 0.873724,-7.59811"
       style="display:inline;opacity:0.695082;fill:#1f159b;fill-opacity:0;stroke:#1f189b;stroke-width:0.196234;stroke-linecap:butt;stroke-linejoin:miter;stroke-miterlimit:4;stroke-dasharray:none;stroke-opacity:1" />
    <path
       id="path877"
       d="m 66.803328,80.764423 1.376683,-7.557664 1.685719,-6.068597 2.388114,-3.877161 1.545243,-4.74813 0.421433,-0.92715"
       style="display:inline;opacity:0.695082;fill:#1b1372;fill-opacity:0;stroke:#1f189b;stroke-width:0.196234;stroke-linecap:butt;stroke-linejoin:miter;stroke-miterlimit:4;stroke-dasharray:none;stroke-opacity:1" />
    <path
       style="fill:#0e1262;fill-opacity:0.682353;stroke:#000000;stroke-width:0;stroke-linecap:butt;stroke-linejoin:miter;stroke-miterlimit:4;stroke-dasharray:none;stroke-opacity:1"
       d="m 42.781772,67.405068 c -0.247824,0.279546 -0.410016,0.597154 -0.575955,0.913099 -0.170159,0.608733 -0.25126,1.21747 -0.252859,1.826202 0.131932,0.432427 0.338714,0.848235 0.639171,1.243223 0.199067,0.172437 0.188709,0.05486 0.147499,-0.105364 -0.398388,-0.39473 -0.513141,-0.842638 -0.618097,-1.292386 -0.03534,-0.565834 0.128371,-1.109557 0.252857,-1.657625 0.128396,-0.280085 0.284518,-0.558035 0.533813,-0.828817 0.05151,-0.210747 0.0094,-0.243453 -0.126429,-0.09833 z"
       id="path881"
       sodipodi:nodetypes="ccccccccc" />
    <path
       style="fill:#14176f;fill-opacity:1;stroke:#000000;stroke-width:0;stroke-linecap:butt;stroke-linejoin:miter;stroke-miterlimit:4;stroke-dasharray:none;stroke-opacity:1"
       d="m 43.287491,71.09961 c 0.567422,0.01949 1.140219,-0.04706 1.671676,0.54786 1.091494,0.836316 1.67461,1.350316 2.964062,1.081677 0.190471,0.112374 0.118953,0.22476 0.01405,0.337134 l -1.334532,0.04213 -1.601437,-0.561907 c -0.579024,-0.317254 -1.308381,-0.578144 -1.61548,-0.99738 -0.187401,-0.149847 -0.283233,-0.29969 -0.09832,-0.449537 z"
       id="path884"
       sodipodi:nodetypes="cccccccc" />
    <path
       style="fill:#0d0f48;fill-opacity:1;stroke:#000000;stroke-width:0;stroke-linecap:butt;stroke-linejoin:miter;stroke-miterlimit:4;stroke-dasharray:none;stroke-opacity:1"
       d="m 52.450836,71.869176 c -0.319531,-0.474768 -0.760486,-0.609562 -1.360852,-0.297995 -0.511143,0.226709 -0.08548,0.462402 0.03052,0.741379 0.622881,0.123712 1.098097,0.07836 1.628339,-0.07586 0.439351,-0.491517 0.902971,-0.963619 1.162182,-1.599254 0.134417,-0.638071 0.33623,-1.263892 0.278136,-1.936971 -0.07086,-0.77137 -0.270695,-1.531989 -0.566193,-2.284645 -0.08898,-0.0131 -0.240012,-0.377737 -0.258266,0.01 0.232554,0.708569 0.421815,1.417135 0.486728,2.125714 0.169142,0.722541 -0.03603,1.421696 -0.147566,2.126696 -0.20327,0.377157 -0.428307,0.743431 -0.77964,1.04655 z"
       id="path886"
       sodipodi:nodetypes="cccccccccccc" />
    <path
       style="fill:#151054;fill-opacity:0.819608;stroke:#000000;stroke-width:0;stroke-linecap:butt;stroke-linejoin:miter;stroke-miterlimit:4;stroke-dasharray:none;stroke-opacity:1"
       d="m 39.567446,79.994547 c 0.279857,-0.518153 1.067746,-0.866974 1.807846,-1.231715 1.622425,-0.815794 3.244853,-1.25323 4.867279,-1.768112 0.612576,0.49247 1.156154,1.105689 1.966779,1.251589 1.04252,-0.103117 1.512276,-0.520723 2.254841,-0.923791 2.755561,0.642595 4.594308,1.460973 6.625458,2.274703 0.118754,0.119202 0.516146,0.2384 -0.417197,0.357601 l -6.218194,0.158931 c -1.917943,0.156666 -3.96294,0.599185 -5.483141,-0.139069 -1.735136,-0.290776 -3.564208,-0.158838 -5.403671,0.0199 z"
       id="path888"
       sodipodi:nodetypes="ccccccccccc" />
    <path
       style="fill:#3f3491;fill-opacity:0.819608;stroke:#000000;stroke-width:0;stroke-linecap:butt;stroke-linejoin:miter;stroke-miterlimit:4;stroke-dasharray:none;stroke-opacity:1"
       d="m 40.322371,79.974684 c 1.031502,0.822698 2.08146,1.626948 3.476629,2.085969 1.557104,0.367246 3.164495,0.533349 4.827546,0.476799 1.741626,0.01632 3.483247,-0.142135 5.224872,-0.49666 1.391221,-0.556112 2.025587,-1.30145 2.582639,-2.066108 l -5.989733,0.119195 c -2.032737,0.220398 -4.097422,0.483382 -5.512936,-0.119195 -1.513909,-0.255604 -3.071578,-0.232554 -4.609017,0 z"
       id="path890"
       sodipodi:nodetypes="cccccccc" />
    <path
       style="fill:#1c1872;fill-opacity:0.933333;stroke:#000000;stroke-width:0;stroke-linecap:butt;stroke-linejoin:miter;stroke-miterlimit:4;stroke-dasharray:none;stroke-opacity:1"
       d="m 48.864942,73.458487 c 0.403208,1.364456 0.267001,2.359512 0.774794,3.675302 -0.998356,0.368616 -1.782606,0.456281 -2.622372,-0.496662 l 0.397322,-3.099171 z"
       id="path892"
       sodipodi:nodetypes="ccccc" />
    <path
       sodipodi:nodetypes="ccccc"
       id="path891"
       d="m 48.147989,56.180952 c -0.684641,4.036374 -0.9277,8.072746 -1.376673,12.10912 0.54318,-1.092286 1.086357,-1.611235 1.629533,-3.45574 0.309454,-2.846995 0.659576,-5.693998 0.870958,-8.540997 -0.355666,-0.264709 -0.696721,-0.704789 -1.123818,-0.112374 z"
       style="fill:#5257c2;fill-opacity:0.92549;stroke:#000000;stroke-width:0.0773049;stroke-linecap:butt;stroke-linejoin:miter;stroke-miterlimit:4;stroke-dasharray:none;stroke-opacity:0" />
    <path
       sodipodi:nodetypes="ccccccccccc"
       id="path893"
       d="m 46.656355,73.617426 -0.423717,3.327628 c 0.606348,0.535441 1.223161,1.047338 1.976712,1.251589 0.512348,-0.03362 1.055314,-0.105645 2.15551,-0.874125 -0.240627,-1.331191 -0.425066,-2.669404 -0.804594,-3.983225 -0.17897,-0.02027 -0.35586,-0.04809 -0.589467,0.132041 0.244829,1.231719 0.360213,2.47046 0.778201,3.702187 -0.372642,0.200164 -0.859238,0.28639 -1.38072,0.337731 -0.644103,-0.135648 -1.076005,-0.499824 -1.480047,-0.893995 l 0.403851,-3.034958 c -0.198368,-0.0851 -0.345496,-0.155365 -0.635729,0.03507 z"
       style="fill:#2f3482;fill-opacity:0.858824;stroke:#000000;stroke-width:0.011893;stroke-linecap:butt;stroke-linejoin:miter;stroke-miterlimit:4;stroke-dasharray:none;stroke-opacity:0" />
    <path
       style="fill:#665fe6;fill-opacity:1;stroke:#000000;stroke-width:0;stroke-linecap:butt;stroke-linejoin:miter;stroke-miterlimit:4;stroke-dasharray:none;stroke-opacity:1"
       d="m 26.504472,63.858819 c -0.02524,0.141021 1.118069,2.478349 1.118069,2.478349 L 28.99,68.641857 c 1.182636,3.221688 1.757588,6.570966 2.393076,9.927412 0.287982,0.891819 0.22843,1.789202 0.328379,2.684026 0.132172,-0.659845 0.359136,-1.205028 0.280192,-2.120291 l -1.544364,-7.06937 -1.389406,-3.84659 c -0.661993,-1.45436 -1.601395,-2.906891 -2.553405,-4.358225 z"
       id="path905"
       sodipodi:nodetypes="ccccccccc" />
    <path
       sodipodi:nodetypes="cccccccc"
       id="path923"
       d="m 31.501473,56.012384 c 0.961621,1.541839 2.562895,3.046052 4.144069,4.551453 0.683533,0.5352 1.230468,0.731003 2.317869,0.899049 l 5.324078,-1.137859 c 0.130792,-0.236758 0.207634,-0.301249 -0.182619,-0.463574 -1.84883,0.649145 -3.634011,1.081892 -5.295983,1.095718 -2.780784,-1.100341 -4.151128,-3.23139 -6.054557,-4.972883 -0.13437,-0.105111 -0.362303,-0.424087 -0.252857,0.02811 z"
       style="fill:#09367a;fill-opacity:1;stroke:#000000;stroke-width:0;stroke-linecap:butt;stroke-linejoin:miter;stroke-miterlimit:4;stroke-dasharray:none;stroke-opacity:1" />
    <path
       sodipodi:nodetypes="ccccccc"
       id="path935"
       d="m 44.910954,79.970999 c 1.297099,0.360325 2.571286,0.410443 3.765246,0.291938 l 1.716925,-0.144061 2.967639,-0.05141 c -3.918501,0.99309 -7.451332,1.650117 -9.299669,-0.227911 l 0.849859,0.13146 z"
       style="fill:#594dc1;fill-opacity:1;stroke:#7c7c7c;stroke-width:0.0827647;stroke-linecap:butt;stroke-linejoin:miter;stroke-miterlimit:4;stroke-dasharray:none;stroke-opacity:0" />
    <path
       id="path938"
       d="m 47.265693,80.312415 c -0.08568,0.08374 -0.184278,0.155755 -0.129131,0.367523"
       style="display:inline;opacity:0.986885;mix-blend-mode:normal;fill:#1d1873;fill-opacity:0;stroke:#000000;stroke-width:0.0594645;stroke-linecap:butt;stroke-linejoin:miter;stroke-miterlimit:4;stroke-dasharray:none;stroke-opacity:1"
       sodipodi:nodetypes="cc" />
    <path
       sodipodi:nodetypes="cc"
       style="display:inline;opacity:0.986885;mix-blend-mode:normal;fill:#1d1873;fill-opacity:0;stroke:#000000;stroke-width:0.0594645;stroke-linecap:butt;stroke-linejoin:miter;stroke-miterlimit:4;stroke-dasharray:none;stroke-opacity:1"
       d="m 46.672619,80.278499 c -0.08568,0.08374 -0.184278,0.155755 -0.129132,0.367527"
       id="path938-8" />
    <path
       sodipodi:nodetypes="cc"
       style="display:inline;opacity:0.986885;mix-blend-mode:normal;fill:#1d1873;fill-opacity:0;stroke:#000000;stroke-width:0.0594645;stroke-linecap:butt;stroke-linejoin:miter;stroke-miterlimit:4;stroke-dasharray:none;stroke-opacity:1"
       d="m 47.912326,80.310111 c -0.08568,0.08375 -0.184278,0.155754 -0.129132,0.367522"
       id="path938-2" />
    <path
       sodipodi:nodetypes="cc"
       style="display:inline;opacity:0.986885;mix-blend-mode:normal;fill:#1d1873;fill-opacity:0;stroke:#000000;stroke-width:0.0594645;stroke-linecap:butt;stroke-linejoin:miter;stroke-miterlimit:4;stroke-dasharray:none;stroke-opacity:1"
       d="m 48.604176,80.292541 c -0.08568,0.08375 -0.184277,0.155755 -0.129131,0.367535"
       id="path938-9" />
    <path
       style="display:inline;opacity:0.383607;mix-blend-mode:normal;fill:#0a055a;fill-opacity:0;stroke:#0a055a;stroke-width:0.314668px;stroke-linecap:butt;stroke-linejoin:miter;stroke-opacity:1"
       d="m 32.73767,48.848061 1.039528,1.770007 c 0.854439,0.08701 1.723293,0.130781 2.725252,-0.224761 -0.199892,0.687041 -0.221096,1.3592 0.0281,2.008817 l 1.531197,0.337147 0.575957,-1.095718 -3.877164,-2.4724 z"
       id="path954"
       sodipodi:nodetypes="cccccccc" />
    <path
       sodipodi:nodetypes="ccccccc"
       id="path916"
       d="m 78.366609,45.724936 c -0.150555,1.250876 -0.861837,1.732476 -1.748246,2.542907 l -0.735056,0.31786 -0.39733,1.88731 c 1.157149,-0.83263 1.843825,-1.977065 2.622375,-3.138895 0.31041,-0.490866 0.648308,-0.954245 0.754919,-1.648914 -0.07388,-0.390142 -0.295926,-0.128298 -0.496662,0.03972 z"
       style="fill:#091d3a;fill-opacity:1;stroke:#000000;stroke-width:0;stroke-linecap:butt;stroke-linejoin:miter;stroke-miterlimit:4;stroke-dasharray:none;stroke-opacity:1" />
    <path
       sodipodi:nodetypes="ccccc"
       id="path918"
       d="m 78.456012,47.930112 c -0.01654,0.516523 0.201208,1.033055 0.417201,1.549583 l 0.764847,1.718446 c 0.328096,-1.33105 0.442871,-2.662103 0.536399,-3.993153 -0.803135,-0.478043 -1.33843,-0.119086 -1.718447,0.725124 z"
       style="fill:#0e264e;fill-opacity:1;stroke:#000000;stroke-width:0;stroke-linecap:butt;stroke-linejoin:miter;stroke-miterlimit:4;stroke-dasharray:none;stroke-opacity:1" />
    <path
       sodipodi:nodetypes="cccccccccccccccccccccccccccccccccc"
       id="path920"
       d="m 77.61169,48.784366 c -0.935022,1.787792 -1.350323,3.079794 -2.781301,4.410354 l -0.158939,0.516524 c 0.322243,0.533877 0.433622,1.097878 0.566197,1.658848 0.11647,-0.538679 0.208265,-1.08385 0.148998,-1.668781 0.785888,-0.802579 0.397807,1.157257 0.337731,1.55952 l -0.485028,0.470373 c -0.306664,1.322 -0.110629,1.467884 0.04794,1.640437 -0.252441,0.21702 -0.427195,0.446987 -0.640688,0.670491 -0.199679,0.195774 -0.369251,0.19281 -0.53639,0.173839 l -0.432092,4.236515 1.440311,-1.191981 c 0.330107,-0.960987 0.143811,-0.893631 -0.844322,-0.824468 -0.211818,-0.804361 0.217945,-0.694068 0.98339,-0.854259 0.06674,-0.335293 0.22488,-0.606577 0.397325,-0.893991 0.302207,-0.975766 0.171774,-1.588329 1.221786,-1.559508 1.10471,-0.783102 1.378162,-1.741741 1.82772,-2.960102 0.01074,-0.122233 -0.07213,-0.03175 -0.129136,0 -0.312794,1.024096 -0.75469,1.815805 -1.460185,2.582638 -0.15204,0.107461 -0.277991,0.132941 -0.337731,-0.04964 0.03321,-0.446283 0.288754,-0.576338 0.618003,-0.843294 l 0.98334,-2.065008 c -0.04067,-0.02421 -0.02089,-0.121084 -0.182619,0 l -1.194063,2.205486 -0.533807,0.590007 -0.814763,0.112391 -0.168577,-0.744539 c 0.825802,-0.639013 0.872736,-1.569702 0.884987,-2.430246 l 0.449533,-1.011436 c 0.694056,-0.01559 1.23576,0.347595 1.840248,0.646198 -0.0716,-0.673949 0.172881,-1.263603 -0.253245,-2.032095 l -1.390654,-0.01986 0.993315,-1.74825 c 0.300183,-0.577889 -0.01517,-0.606785 -0.397305,-0.576148 z"
       style="fill:#0e264c;fill-opacity:1;stroke:#000000;stroke-width:0;stroke-linecap:butt;stroke-linejoin:miter;stroke-miterlimit:4;stroke-dasharray:none;stroke-opacity:1" />
    <path
       sodipodi:nodetypes="cccccccccccccccccccccccccccc"
       id="path922"
       d="m 23.508332,44.19827 c 0.04218,0.266906 -0.180662,0.526789 -0.344167,0.793699 -0.289979,-0.248947 -0.501668,-0.674045 -0.927151,-0.618102 l 0.007,0.1194 c 0.576966,0.442278 0.522787,0.926636 0.561907,1.404769 l 0.0281,0.870962 c 0.108274,0.380283 0.140534,0.787712 0.601851,1.041907 -0.06198,0.483416 -0.261884,0.966836 -0.178797,1.450252 l 0.953589,0.774793 c 0.09423,0.156526 0.05037,0.273597 -0.03974,0.377456 L 23.574973,50.03595 c -0.02226,0.196752 0.05541,0.448016 -0.238395,0.496658 l -0.297989,-0.04964 c -0.325155,0.583161 -0.294927,0.858392 -0.204521,1.441554 0.05349,0.820786 0.09901,1.639968 0.280951,2.486441 0.40582,0.632845 0.808698,1.268959 1.446915,1.643583 0.125518,0.394785 0.04933,0.472612 -0.0036,0.587017 l -1.400583,-1.46018 c -0.07042,0.483176 -0.01566,0.953835 0.178796,1.41052 l 0.824458,1.64891 0.297998,0.2384 c 0.164554,-0.325651 0.188292,-0.309151 0.402294,-0.01493 l 0.312896,1.266485 C 24.277397,58.918836 23.46711,58.58945 22.949175,56.462746 22.657967,53.989371 22.268428,51.515998 21.866455,49.042624 l -0.61586,-3.029631 c 0.0113,-0.753758 0.244536,-1.452026 0.854259,-2.056178 0.378984,-0.285996 0.875886,-0.08559 1.403487,0.241455 z"
       style="fill:#598ee0;fill-opacity:0.996078;stroke:#000000;stroke-width:0;stroke-linecap:butt;stroke-linejoin:miter;stroke-miterlimit:4;stroke-dasharray:none;stroke-opacity:1" />
    <path
       id="path924"
       d="m 21.766419,46.010422 0.702384,4.565505 0.477622,-2.669065 z"
       style="fill:#05459d;fill-opacity:1;stroke:#000000;stroke-width:0;stroke-linecap:butt;stroke-linejoin:miter;stroke-miterlimit:4;stroke-dasharray:none;stroke-opacity:1" />
    <path
       sodipodi:nodetypes="ccccccccccsccccccccccccc"
       id="path926"
       d="m 31.759935,81.266002 c 1.328135,2.322021 3.255245,3.709865 5.105675,5.205005 -0.608024,-0.784635 -1.343848,-1.546038 -1.768113,-2.364105 -0.68105,-2.410458 -1.903474,-4.820921 -1.927045,-7.231375 -0.793559,-3.660319 -2.158697,-7.238979 -3.456761,-10.827212 -1.388023,-1.745382 -1.868817,-3.641966 -2.681969,-5.483147 L 26.574793,58.697724 C 26.361999,57.479247 26.152395,56.260775 25.720534,55.042298 L 26.058473,54.2056 c -0.117896,-0.322329 -0.521279,-0.512975 -0.253341,-1.382042 -0.06273,-0.290478 -0.195012,-0.657163 -0.264515,-0.948504 -0.326746,-1.369663 -0.674925,-2.754495 -1.052456,-4.150811 -0.617416,-0.04892 -0.52392,0.101612 -0.530298,0.604048 l -0.4425,0.161554 c 1.151043,0.809847 0.748939,1.6057 1.102743,2.465374 l -0.126431,6.335514 0.702388,1.334528 0.19868,1.84058 1.291322,3.68523 2.205174,3.814353 1.261519,3.307766 c 0.422897,1.526409 0.794706,3.052805 1.033056,4.579214 l 0.536392,2.066107 c 0.309077,1.115837 0.168159,2.231662 0.03972,3.347491 z"
       style="fill:#588de0;fill-opacity:1;stroke:#000000;stroke-width:0;stroke-linecap:butt;stroke-linejoin:miter;stroke-miterlimit:4;stroke-dasharray:none;stroke-opacity:1" />
    <path
       sodipodi:nodetypes="ccccccc"
       id="path928"
       d="m 40.477949,6.536396 h -1.067622 c -1.266692,1.6398661 -0.63092,3.1766906 -0.67429,4.748122 -0.230425,-0.02853 -0.405527,0.496192 -0.702384,-0.196668 0.08989,-1.6950887 0.07404,-3.3901783 0.590002,-5.0852669 0.465128,-0.1342918 0.758331,-0.7516383 1.292388,-0.1966631 z"
       style="fill:#8a84b5;fill-opacity:0.882353;stroke:#000000;stroke-width:0;stroke-linecap:butt;stroke-linejoin:miter;stroke-miterlimit:4;stroke-dasharray:none;stroke-opacity:1" />
    <path
       id="path930"
       d="m 37.808887,13.95358 1.460963,9.468149 0.252857,0.224761 -1.545246,-9.524337 z"
       style="fill:#e0dded;fill-opacity:0.890196;stroke:#000000;stroke-width:0;stroke-linecap:butt;stroke-linejoin:miter;stroke-miterlimit:4;stroke-dasharray:none;stroke-opacity:1" />
    <path
       id="path932"
       d="m 40.719699,26.673018 0.655593,2.721702 0.278133,-0.07947 -0.754928,-2.542905 z"
       style="fill:#9994be;fill-opacity:0.882353;stroke:#000000;stroke-width:0;stroke-linecap:butt;stroke-linejoin:miter;stroke-miterlimit:4;stroke-dasharray:none;stroke-opacity:1" />
    <path
       id="path934"
       d="m 62.195688,6.9016359 -1.994771,7.6419481 -2.079062,8.76576 c 0,0 0.337146,-0.252858 0.393333,-0.393335 0.05619,-0.140474 2.640969,-9.917673 2.640969,-9.917673 z"
       style="fill:#e5e4ee;fill-opacity:0.882353;stroke:#000000;stroke-width:0;stroke-linecap:butt;stroke-linejoin:miter;stroke-miterlimit:4;stroke-dasharray:none;stroke-opacity:1" />
    <path
       sodipodi:nodetypes="cccc"
       id="path936"
       d="m 57.67233,23.225061 -1.320482,4.326691 c -0.158894,1.179072 0.377567,0.272073 0.618097,0.252858 z"
       style="fill:#bab8d2;fill-opacity:0.882353;stroke:#000000;stroke-width:0;stroke-linecap:butt;stroke-linejoin:miter;stroke-miterlimit:4;stroke-dasharray:none;stroke-opacity:1" />
    <path
       sodipodi:nodetypes="cccccccc"
       id="path939"
       d="m 51.089984,4.3133363 6.201151,1.0431582 4.094487,1.1296008 c 0.03097,0.7814118 -0.271855,1.7243743 -0.441883,2.5057871 -3.008218,-1.3765713 -6.43257,-0.8321739 -9.0591,-2.0661091 L 50.49399,6.5979766 50.74998,4.9414332 Z"
       style="fill:#9a9edf;fill-opacity:1;stroke:#000000;stroke-width:0;stroke-linecap:butt;stroke-linejoin:miter;stroke-miterlimit:4;stroke-dasharray:none;stroke-opacity:1" />
    <path
       sodipodi:nodetypes="cccccccc"
       id="path956"
       d="m 49.454119,4.2303407 c -3.4528,0.146621 -6.595484,0.9338803 -9.421515,2.8782248 0.12972,-0.2707889 -0.02119,-0.1288152 -0.127426,-0.3814567 L 39.410927,6.897887 C 39.285137,7.2430423 39.085154,7.5881976 39.095473,7.9333529 38.983786,8.5685165 38.962581,9.1885975 38.962229,9.805205 L 49.083471,6.0715191 Z"
       style="fill:#b5b8e8;fill-opacity:1;stroke:#000000;stroke-width:0;stroke-linecap:butt;stroke-linejoin:miter;stroke-miterlimit:4;stroke-dasharray:none;stroke-opacity:1" />
  </g>
</svg>
