<?xml version="1.0" encoding="UTF-8" standalone="no"?>
<svg
   xmlns:dc="http://purl.org/dc/elements/1.1/"
   xmlns:cc="http://creativecommons.org/ns#"
   xmlns:rdf="http://www.w3.org/1999/02/22-rdf-syntax-ns#"
   xmlns:svg="http://www.w3.org/2000/svg"
   xmlns="http://www.w3.org/2000/svg"
   xmlns:sodipodi="http://sodipodi.sourceforge.net/DTD/sodipodi-0.dtd"
   xmlns:inkscape="http://www.inkscape.org/namespaces/inkscape"
   sodipodi:docname="customer-3.svg"
   inkscape:version="1.0 (4035a4fb49, 2020-05-01)"
   id="svg8"
   version="1.1"
   viewBox="0 0 100 100"
   height="100mm"
   width="100mm">
  <defs
     id="defs2" />
  <sodipodi:namedview
     inkscape:snap-nodes="false"
     inkscape:window-maximized="1"
     inkscape:window-y="-8"
     inkscape:window-x="-8"
     inkscape:window-height="1027"
     inkscape:window-width="1920"
     showgrid="false"
     inkscape:document-rotation="0"
     inkscape:current-layer="layer7"
     inkscape:document-units="mm"
     inkscape:cy="188.88383"
     inkscape:cx="86.084782"
     inkscape:zoom="1.4"
     inkscape:pageshadow="2"
     inkscape:pageopacity="0.0"
     borderopacity="1.0"
     bordercolor="#666666"
     pagecolor="#ffffff"
     id="base" />
  <metadata
     id="metadata5">
    <rdf:RDF>
      <cc:Work
         rdf:about="">
        <dc:format>image/svg+xml</dc:format>
        <dc:type
           rdf:resource="http://purl.org/dc/dcmitype/StillImage" />
        <dc:title />
      </cc:Work>
    </rdf:RDF>
  </metadata>
  <g
     style="display:inline;opacity:1"
     inkscape:label="head"
     id="layer2"
     inkscape:groupmode="layer">
    <path
       sodipodi:nodetypes="cccccccccccccccccc"
       id="path848"
       d="m 33.281685,87.002011 c 2.362521,3.701378 4.74363,7.384188 9.025977,9.167793 7.144335,4.057426 13.045309,1.978574 18.806995,-0.787707 5.954801,-4.709956 6.791979,-8.778229 9.063012,-13.026288 1.808319,-3.877937 3.090306,-7.53267 3.742291,-10.920236 0.980725,-2.527814 2.51877,-4.90823 2.696999,-7.648287 -0.336306,-2.929871 0.560812,-4.896764 1.753204,-6.633124 1.028114,-1.564965 1.525468,-3.036897 1.977694,-4.50092 -0.531846,-1.373765 -0.67738,-2.706213 -0.769276,-4.032924 l 1.003088,-1.983197 c -21.191751,-10.671613 -37.974742,-5.3734 -57.847938,-1.527538 0.204871,2.990606 0.464182,3.899721 0.715675,5.107863 -0.594612,0.996558 -0.980499,1.981993 -0.841257,2.939449 1.35742,2.361573 1.475666,4.395412 2.011613,6.539723 0.0032,1.320182 -0.26778,2.450655 0.448981,4.26441 l 0.842292,1.241617 c 0.879786,0.896968 1.431867,2.519932 1.650523,4.881569 1.063684,6.420166 2.670612,10.695131 5.720127,16.917797 z"
       style="fill:#c87137;fill-opacity:1;stroke:#000000;stroke-width:0;stroke-linecap:butt;stroke-linejoin:miter;stroke-miterlimit:4;stroke-dasharray:none;stroke-opacity:1" />
    <path
       sodipodi:nodetypes="cccccssscccc"
       id="path987"
       d="m 56.858918,70.656138 c 1.280274,1.220415 2.350731,2.15128 4.154243,4.093775 2.049584,2.279223 3.649824,4.741494 5.148658,7.14983 -0.0271,0.504694 0.07477,1.047154 -0.339131,1.438578 -1.580066,0.718103 -2.579093,0.86788 -3.814142,1.248516 1.133097,-0.56425 2.435263,-0.80227 3.310073,-1.864907 0.795504,-0.966306 -1.000272,-2.385689 -1.090315,-2.514899 -0.09004,-0.129213 -1.588415,-2.565568 -2.646989,-3.638048 C 61.144034,76.125956 60.07992,75.44289 60.07992,75.44289 L 57.800003,73.394757 57.137848,72.2494 Z"
       style="fill:#bd6c35;fill-opacity:1;stroke:#000000;stroke-width:0;stroke-linecap:butt;stroke-linejoin:miter;stroke-miterlimit:4;stroke-dasharray:none;stroke-opacity:1" />
    <path
       sodipodi:nodetypes="csccc"
       id="path993"
       d="m 28.190481,64.174937 c -1.543265,2.757032 4.547379,19.389837 5.66584,21.318526 l 4.767533,8.22119 C 36.757052,87.421967 33.756383,81.379388 35.369165,74.219462 32.740908,74.344431 27.513404,64.305502 28.190481,64.174937 Z"
       style="fill:#ac612e;fill-opacity:1;stroke:#000000;stroke-width:0;stroke-linecap:butt;stroke-linejoin:miter;stroke-miterlimit:4;stroke-dasharray:none;stroke-opacity:1" />
    <path
       sodipodi:nodetypes="cccccc"
       id="path995"
       d="m 72.053975,77.378256 c -1.543605,3.83079 -3.291341,7.722589 -5.450683,11.737402 -2.213151,3.061382 -3.07498,3.765876 -4.420892,5.31468 1.233986,-2.695559 2.430993,-5.397999 3.249485,-8.17086 0.189325,-0.83693 0.03388,-1.7029 -0.136951,-2.570164 1.551858,-0.921041 4.310415,-3.877435 6.759041,-6.311058 z"
       style="fill:#874b34;fill-opacity:1;stroke:#000000;stroke-width:0;stroke-linecap:butt;stroke-linejoin:miter;stroke-miterlimit:4;stroke-dasharray:none;stroke-opacity:1" />
  </g>
  <g
     style="display:inline;opacity:1"
     inkscape:label="lips"
     id="layer3"
     inkscape:groupmode="layer">
    <path
       sodipodi:nodetypes="cccccccccacc"
       id="path855"
       d="m 41.461158,84.934396 c 1.015814,-0.259912 0.0166,-0.253329 2.921983,0.627279 1.124407,-0.0069 2.151028,0.05691 3.115473,0.165647 l 4.053017,0.655824 1.483895,-0.107501 1.974145,-0.654798 c 0.759184,-0.271978 1.51778,-0.54346 2.035299,-0.610678 l 2.807112,-0.47176 c 0.35215,-0.02228 1.235313,-0.628828 1.904958,-0.939036 -0.883301,1.178017 -2.762192,2.576286 -4.48063,3.310984 -2.379262,1.017224 -5.386919,1.062821 -7.673062,1.348602 -4.220605,-0.363341 -5.908927,-1.857539 -8.14219,-3.324566 z"
       style="opacity:0.687708;fill:#800000;fill-opacity:1;stroke:#000000;stroke-width:0;stroke-linecap:butt;stroke-linejoin:miter;stroke-miterlimit:4;stroke-dasharray:none;stroke-opacity:1" />
    <path
       sodipodi:nodetypes="cccccccccccccccscccccccc"
       id="path853"
       d="m 40.594236,84.797574 c 0.906256,-0.274416 0.800636,-0.204794 2.352282,-0.448081 0.708998,0.196056 1.152791,0.215969 2.31151,0.710717 0.852845,-0.05812 1.207375,0.08942 2.769327,-0.261276 0.421997,-0.103702 0.34438,-0.194781 1.718547,-0.281092 0.585044,0.148282 1.126197,0.294674 1.39361,0.4943 0.537742,0.261943 0.523196,0.526511 0.802977,0.8022 0.150491,-0.48641 1.562191,-0.893724 2.106692,-1.298375 1.00738,-0.158762 1.889613,-0.288573 2.102789,-0.263664 0.914578,0.01638 1.57738,0.08132 2.242211,0.14585 0.689915,0.01827 1.167353,-0.05244 1.47937,-0.192538 0.734813,-0.490271 1.870278,-0.92634 2.323954,-1.151837 -0.134833,0.523509 -1.206001,1.009895 -1.838765,1.429213 -0.384571,0.134371 -2.212257,0.452022 -2.172909,0.419013 l -1.55352,0.2723 c -0.323976,0.01726 -1.953383,0.634739 -2.004468,0.637462 -0.234538,0.01249 -2.11771,0.719303 -2.11771,0.719303 -0.621149,0.01202 -1.287759,-0.0074 -2.287342,-0.257159 -0.386084,0.05178 -1.18349,-0.144007 -1.93755,-0.3137 -0.350399,-0.04962 -0.900542,-0.157727 -1.663923,-0.328281 -0.575543,0.01197 -1.253941,0.0026 -2.238178,-0.07025 l -1.155757,-0.355365 c -0.53458,-0.05835 -0.659659,-0.349042 -1.766225,-0.27192 z"
       style="fill:#2b0000;fill-opacity:1;stroke:#000000;stroke-width:0;stroke-linecap:butt;stroke-linejoin:miter;stroke-miterlimit:4;stroke-dasharray:none;stroke-opacity:1" />
  </g>
  <g
     style="display:inline;opacity:1"
     inkscape:label="nose"
     id="layer4"
     inkscape:groupmode="layer">
    <path
       sodipodi:nodetypes="cccccccccccc"
       id="path979"
       d="m 45.158803,77.888967 c 1.934912,0.160914 3.928987,-0.247896 5.685932,1.626774 l 3.199187,-0.304479 c 1.391489,-1.248071 2.81143,-2.099963 4.303714,-1.944653 l -0.200332,0.695868 c -1.111652,0.763696 -1.690319,0.40451 -2.242333,0.801194 -0.796074,0.747668 -1.469554,1.223742 -2.079063,1.558095 -0.927449,0.312529 -1.625348,0.276983 -2.316115,0.230618 -0.879522,-0.0948 -1.466683,-0.268911 -1.88325,-0.489297 -1.154818,-0.760812 -1.841386,-1.496278 -3.349043,-0.947234 -0.787037,-0.181414 -1.322059,-0.81215 -1.785607,-1.010802 z"
       style="display:inline;opacity:1;fill:#b15d25;fill-opacity:1;stroke:#000000;stroke-width:0;stroke-linecap:butt;stroke-linejoin:miter;stroke-miterlimit:4;stroke-dasharray:none;stroke-opacity:1" />
    <path
       sodipodi:nodetypes="cccccscccccccccccccccccccc"
       id="path858"
       d="m 49.275115,64.074851 c 0.04265,1.641158 -0.155101,2.733595 -0.343841,3.846608 -0.327893,1.539177 -0.640157,2.60111 -0.948318,3.537687 L 46.6724,73.348361 c -0.705984,0.781378 -1.185803,1.288804 -1.33674,1.397863 -0.449797,0.06381 -1.363151,1.285265 -1.402836,1.628809 -0.221795,1.919999 0.587819,1.911743 0.60685,1.824954 0.593541,0.237737 1.128519,0.570907 1.980671,0.387207 0.618548,-0.137382 1.242091,-0.278376 1.444302,-0.114865 0.417816,0.03373 0.856096,0.125206 1.445498,0.643154 2.20745,2.075596 3.867322,0.91298 5.47457,-0.253806 0.493266,-0.588596 1.041706,-0.827032 1.589403,-1.070194 0.535323,0.138137 1.10299,0.204622 1.802156,-0.02021 l 1.158593,-0.327062 c 0.520672,-0.438697 0.749396,-0.881985 0.752408,-1.328821 0.01534,-0.50292 -0.07545,-0.96532 -0.38522,-1.344014 -0.633933,-0.806342 -1.160638,-1.53114 -1.92986,-1.640746 -0.455239,-1.278542 -0.715546,-2.368497 -1.195166,-3.669844 l -0.359816,-1.970777 -0.601405,-2.090568 -0.806739,-1.530025 -0.591747,-1.541477 -1.140007,-1.531216 -1.964557,-0.08483 -1.477811,2.428784 z"
       style="opacity:1;fill:#c87137;fill-opacity:1;stroke:#000000;stroke-width:0;stroke-linecap:butt;stroke-linejoin:miter;stroke-miterlimit:4;stroke-dasharray:none;stroke-opacity:1" />
    <path
       sodipodi:nodetypes="ccccc"
       id="path977"
       d="m 51.261457,63.09722 c -1.467549,4.162666 -1.877481,7.327954 -3.011005,11.910635 2.681998,0.218947 6.674796,-1.753433 6.801698,-4.039101 -0.507959,-2.660083 -1.036047,-5.32963 -2.487823,-8.433707 -0.506976,-0.33138 -0.963929,-0.305744 -1.30287,0.562173 z"
       style="display:inline;opacity:1;fill:#ac612e;fill-opacity:1;stroke:#000000;stroke-width:0;stroke-linecap:butt;stroke-linejoin:miter;stroke-miterlimit:4;stroke-dasharray:none;stroke-opacity:1" />
    <path
       sodipodi:nodetypes="ccsc"
       id="path983"
       d="m 57.773821,73.502011 c -0.184019,1.251635 -0.615573,2.51646 -1.530572,3.807045 0.620281,-0.420012 2.342836,-0.382436 2.583441,-1.299343 0.282898,-1.078085 -0.856729,-1.778693 -1.052869,-2.507702 z"
       style="fill:#d38d5f;fill-opacity:1;stroke:#000000;stroke-width:0;stroke-linecap:butt;stroke-linejoin:miter;stroke-miterlimit:4;stroke-dasharray:none;stroke-opacity:1" />
    <path
       sodipodi:nodetypes="ccccc"
       id="path985"
       d="m 55.755767,70.93126 c -0.002,3.851742 -1.606172,5.836464 -2.729233,8.370563 l 2.699665,-2.304372 c 0.372991,-0.788545 0.805491,-1.409158 0.945475,-2.855263 0.02095,-1.56492 -0.469443,-2.354668 -0.915907,-3.210928 z"
       style="fill:#d38d5f;fill-opacity:1;stroke:#000000;stroke-width:0;stroke-linecap:butt;stroke-linejoin:miter;stroke-miterlimit:4;stroke-dasharray:none;stroke-opacity:1" />
    <path
       sodipodi:nodetypes="ccccccccccc"
       id="path989"
       d="m 55.831358,71.139726 0.167592,-1.536648 c 0.467084,0.282255 0.890817,0.849942 1.300208,1.512041 l 0.558703,1.983358 c -0.07619,0.384302 -0.09278,0.716313 -0.215978,1.067216 -0.266327,1.497633 -0.774613,1.964248 -1.120921,2.835369 -0.423892,0.69435 -0.805563,1.250634 -1.096339,1.509662 l -0.923962,0.684124 c 0.409454,-0.668121 0.823766,-1.305403 1.19521,-2.21473 0.473681,-0.950029 0.941324,-1.904715 0.935612,-3.224302 -0.02087,-1.032722 -0.40928,-1.825199 -0.800125,-2.61609 z"
       style="fill:#bf723f;fill-opacity:1;stroke:#000000;stroke-width:0;stroke-linecap:butt;stroke-linejoin:miter;stroke-miterlimit:4;stroke-dasharray:none;stroke-opacity:1" />
    <path
       sodipodi:nodetypes="cccsccc"
       id="path991"
       d="m 44.04157,75.997162 2.786247,-2.898248 2.142088,-2.981087 c -1.756616,2.013708 -4.291439,3.466549 -6.369163,6.21843 -2.246582,2.975531 -1.78177,5.082972 -3.205191,7.583353 0.80396,-0.60324 1.44146,-2.929686 2.140032,-4.623925 0.791375,-1.231137 1.539594,-2.411556 2.505987,-3.298523 z"
       style="fill:#b76935;fill-opacity:1;stroke:#000000;stroke-width:0;stroke-linecap:butt;stroke-linejoin:miter;stroke-miterlimit:4;stroke-dasharray:none;stroke-opacity:1" />
  </g>
  <g
     inkscape:label="glasses"
     id="layer5"
     inkscape:groupmode="layer">
    <path
       sodipodi:nodetypes="ccssssscccc"
       id="path863-7"
       d="m 30.369794,53.004519 c 3.553148,0.665902 7.044237,1.095861 10.776315,2.442035 l 5.220006,1.824929 c 1.87552,0.655689 2.396024,2.712099 2.494145,4.37764 0.094,1.595936 -1.001095,3.340119 -1.880954,4.444735 -1.51106,1.897064 -2.390891,1.499156 -3.35897,1.949989 -1.834573,0.854366 -9.879236,-2.102026 -10.395032,-2.268645 -2.02252,-0.653352 -3.509795,-2.036094 -4.927017,-2.787288 -1.34998,-1.799095 -2.288296,-3.017004 -2.933196,-4.936176 -0.240782,-1.150368 -0.89046,-2.153739 -0.178681,-3.498111 1.035145,-0.928414 2.141369,-1.814538 5.183314,-1.549105 z"
       style="fill:#3c4f83;fill-opacity:1;stroke:#000000;stroke-width:0;stroke-linecap:butt;stroke-linejoin:miter;stroke-miterlimit:4;stroke-dasharray:none;stroke-opacity:1" />
    <path
       sodipodi:nodetypes="cscscccccccc"
       id="path865-1"
       d="m 54.905489,61.945473 c -0.263438,-1.425733 -0.50422,-2.862032 2.674497,-4.400704 2.530267,-1.224787 4.673655,-2.202335 8.345132,-3.37462 2.365648,-0.736246 4.432878,-1.198218 8.351738,-1.734196 l 2.807721,-0.384008 c 0.408603,0.01607 1.031394,-0.281991 1.155241,1.208091 -0.564777,1.94044 -1.141122,3.764954 -2.276425,5.805398 -1.139794,2.203412 -2.838471,4.053658 -5.160763,5.509835 -2.219378,1.08418 -4.480874,2.136413 -7.580881,2.552574 l -3.460635,0.262536 c -1.142882,-0.171718 -1.788671,-0.545298 -2.195471,-1.015928 -1.349095,-1.406621 -2.37596,-2.86182 -2.660154,-4.428978 z"
       style="fill:#3c4f83;fill-opacity:1;stroke:#000000;stroke-width:0;stroke-linecap:butt;stroke-linejoin:miter;stroke-miterlimit:4;stroke-dasharray:none;stroke-opacity:1" />
    <path
       d="m 24.028765,49.650616 c -0.502241,0.866561 -0.980386,1.731753 -1.192716,2.582866 l 0.184693,1.383782 c 0.05496,0.443773 0.08005,0.889305 0.347535,1.321752 0.446676,0.215841 0.29974,0.453511 1.630539,0.42202 -1.481889,1.422132 0.538234,3.486231 1.336514,5.316253 1.339,2.203535 2.693606,2.998264 4.04477,4.126575 2.698277,1.392885 5.670687,2.606482 9.434425,3.302934 2.677079,0.305882 5.389781,0.791595 7.577441,-1.368808 1.566132,-1.637967 2.219619,-3.227142 3.179909,-4.832831 0.313555,-0.704778 0.641776,-1.132626 0.981907,-1.338652 l 1.105279,-0.0589 c 1.221412,0.616954 1.329534,1.566631 1.737359,2.426735 0.585795,1.550815 1.858197,2.810188 2.991649,4.128757 1.439344,0.631738 2.407103,1.598507 5.596583,0.988704 3.929893,-0.794839 6.412528,-1.956427 8.25169,-3.280879 2.365178,-1.584774 3.523982,-3.160848 4.349347,-4.734502 0.640701,-1.00989 1.297652,-2.206149 2.074025,-4.773904 0.678387,-0.625795 1.069989,-1.236808 1.232561,-1.835119 -0.06282,-0.514824 -0.08954,-1.031323 -0.580202,-1.52335 -0.383372,-0.605499 -0.736289,-0.641043 -1.098666,-0.852561 -12.152744,1.857726 -11.108556,2.378472 -16.662911,3.567836 -2.456348,0.863477 -4.501622,1.7053 -5.854012,2.50995 -1.802034,0.14863 -3.708094,0.635225 -4.977827,0.211306 -4.617203,-1.700956 -8.021281,-2.514932 -11.098647,-3.321545 -4.382009,-1.148578 -6.689957,-1.621388 -8.975669,-1.98769 0,0 -3.184761,-0.518162 -3.514023,-0.401983 -0.695829,0.245515 -2.347885,-1.735819 -2.101557,-1.978749 z m 5.009816,3.507037 c 0.43251,-0.02313 0.91916,-0.01464 1.471592,0.03358 3.441443,0.644969 6.822351,1.061519 10.4371,2.365373 l 5.056006,1.767967 c 1.816558,0.635073 2.321034,2.626565 2.41607,4.239744 0.0911,1.545762 -0.969719,3.235032 -1.821915,4.304922 -1.463553,1.837421 -2.316061,1.45221 -3.253705,1.888872 -1.776896,0.82751 -9.568396,-2.036039 -10.067976,-2.197422 -1.958938,-0.632812 -3.399481,-1.971891 -4.772145,-2.699471 -1.307541,-1.742536 -2.216239,-2.922292 -2.840866,-4.781126 -0.233211,-1.114203 -0.862707,-2.086239 -0.173285,-3.388347 0.814614,-0.730622 1.674889,-1.433816 3.549109,-1.534076 z m 47.726349,-0.66812 c 0.396454,0.01545 1.000386,-0.273655 1.120548,1.1721 -0.547975,1.882716 -1.106812,3.653204 -2.208339,5.632947 -1.105889,2.137864 -2.754203,3.933037 -5.00741,5.345898 -2.153358,1.051924 -4.347504,2.073007 -7.35529,2.476789 l -3.357771,0.254549 c -1.108883,-0.166609 -1.735806,-0.529149 -2.130504,-0.985781 -1.30896,-1.364776 -2.305287,-2.776669 -2.581026,-4.297209 -0.255602,-1.383318 -0.489097,-2.777 2.595061,-4.269898 2.454994,-1.18835 4.534588,-2.136387 8.096838,-3.273799 2.295277,-0.714345 4.30111,-1.162907 8.103391,-1.682942 z"
       style="opacity:1;fill:#1c1c24;stroke:#000000;stroke-width:0;stroke-linecap:butt;stroke-linejoin:miter;stroke-miterlimit:4;stroke-dasharray:none;stroke-opacity:1"
       id="path861" />
  </g>
  <g
     inkscape:label="scalp"
     id="layer6"
     inkscape:groupmode="layer">
    <path
       id="path902"
       d="M 23.998837,46.279133 79.622507,48.053217 84.109525,46.44914 86.374383,33.624276 83.936093,22.0685 76.061233,13.107386 62.74847,4.7040512 45.617415,4.1159618 26.688527,12.039519 l -8.434664,12.724784 -3.794375,14.30007 3.921572,8.206888 z"
       style="opacity:0;fill:#000000;stroke:#000000;stroke-width:0;stroke-linecap:butt;stroke-linejoin:miter;stroke-miterlimit:4;stroke-dasharray:none;stroke-opacity:1" />
  </g>
  <g
     style="display:inline;opacity:1"
     inkscape:label="helmet"
     id="layer7"
     inkscape:groupmode="layer">
    <path
       sodipodi:nodetypes="ccccccccccccccccccccccccc"
       id="path905"
       d="m 27.487027,45.651109 7.307917,-1.407122 c 2.056267,-0.45947 4.217144,-0.875763 7.551131,-0.807807 6.807178,1.187498 13.726293,2.117365 21.462082,1.167631 5.752587,0.195865 8.284958,1.16015 11.487386,1.964539 0.810262,1.616708 1.694779,3.197237 4.025306,4.073243 1.416779,1.794222 2.886636,1.743141 4.377062,0.976927 0.952505,-1.032431 1.901205,-2.207277 2.823583,-4.366001 l 1.433746,-0.189808 1.285975,-5.713955 -0.743811,-2.32765 C 87.726947,34.459865 87.308233,29.810526 85.33516,25.550493 83.179838,22.228772 81.656499,18.890147 77.631382,15.61844 74.076518,11.762255 70.653734,8.7282011 67.441093,7.0021678 L 61.704722,4.7459826 C 55.226958,3.4033773 51.256591,3.8849325 46.525873,3.8133246 41.141988,4.7036599 38.54994,5.7847177 36.112527,6.8763387 32.249268,8.6931952 28.87084,10.49708 26.992872,12.260832 c -3.638353,2.841794 -4.513803,4.867085 -6.181504,7.126505 -3.915417,5.389457 -5.689531,10.780385 -7.226688,16.096871 -0.213528,1.078145 0.08267,3.369905 0.936633,6.989648 1.982567,0.708521 2.418693,2.670407 3.335068,4.569408 0.311166,1.399233 1.336349,2.107917 3.317016,1.892525 0.271792,-0.399952 1.875836,-0.835542 3.232562,-1.264515 0.483493,-0.242558 0.960462,-0.479944 3.081068,-2.020165 z"
       style="fill:#4d4d4d;stroke:#000000;stroke-width:0;stroke-linecap:butt;stroke-linejoin:miter;stroke-miterlimit:4;stroke-dasharray:none;stroke-opacity:1" />
    <path
       sodipodi:nodetypes="ccccccc"
       id="path907"
       d="m 50.605028,12.469941 c 0.362409,-1.91078 0.151336,-3.7651477 1.813661,-5.8037948 1.887516,-0.2120047 3.772078,-0.5343148 5.685615,0.2265485 1.277075,1.6622198 1.178432,3.2087243 1.643019,4.8026033 -1.163565,6.9815 -2.64018,14.60974 -4.024258,21.761875 -1.461145,1.782258 -2.583028,1.59584 -3.426276,-0.207464 -0.593146,-6.925808 -1.478375,-13.843803 -1.691761,-20.779768 z"
       style="fill:#000000;stroke:#000000;stroke-width:0.299757px;stroke-linecap:butt;stroke-linejoin:miter;stroke-opacity:1" />
    <path
       sodipodi:nodetypes="cccccc"
       id="path909"
       d="m 66.246037,22.501931 c 3.149819,-2.638285 6.38043,-3.795953 9.809182,-1.322575 -0.867611,7.263969 -3.266053,9.77311 -5.983316,11.291975 l -4.060039,1.093063 c -1.669388,-0.19912 -1.064375,-1.084377 -1.333004,-1.706075 0.30169,-3.112891 0.572286,-6.224953 1.567177,-9.356388 z"
       style="fill:#000000;stroke:#000000;stroke-width:0;stroke-linecap:butt;stroke-linejoin:miter;stroke-miterlimit:4;stroke-dasharray:none;stroke-opacity:1" />
    <path
       sodipodi:nodetypes="cccccc"
       id="path909-1"
       d="m 41.885518,20.556804 c -3.286357,-2.466118 -6.574241,-3.44942 -9.86586,-0.796276 1.254707,7.207198 3.78386,9.584527 6.578438,10.955954 l 4.11267,0.874448 c 1.656355,-0.288083 1.004879,-1.139728 1.239888,-1.7749 -0.467675,-3.092312 -0.90426,-6.185456 -2.065136,-9.259226 z"
       style="opacity:1;fill:#000000;stroke:#000000;stroke-width:0;stroke-linecap:butt;stroke-linejoin:miter;stroke-miterlimit:4;stroke-dasharray:none;stroke-opacity:1" />
    <path
       sodipodi:nodetypes="cccccc"
       id="path926"
       d="m 85.655138,33.266125 -6.133734,4.253353 c -0.643663,0.8376 -1.452581,1.679616 -1.031473,2.488732 0.56885,0.931062 1.069063,1.322064 1.510038,1.246975 1.637113,-0.106522 2.906962,-0.78876 4.30668,-1.781206 1.039922,-2.085077 0.934755,-4.139525 1.348489,-6.207854 z"
       style="fill:#000000;stroke:#000000;stroke-width:0;stroke-linecap:butt;stroke-linejoin:miter;stroke-miterlimit:4;stroke-dasharray:none;stroke-opacity:1" />
    <path
       sodipodi:nodetypes="cccccc"
       id="path926-6"
       d="m 19.323389,29.755281 6.352349,3.919357 c 0.687523,0.801989 1.540298,1.599559 1.163048,2.430029 -0.518261,0.960144 -0.996854,1.377325 -1.441216,1.32592 -1.640464,-0.01885 -2.944971,-0.632226 -4.395744,-1.548419 -1.149904,-2.026502 -1.154722,-4.083636 -1.678437,-6.126887 z"
       style="opacity:1;fill:#000000;fill-opacity:1;stroke:#000000;stroke-width:0;stroke-linecap:butt;stroke-linejoin:miter;stroke-miterlimit:4;stroke-dasharray:none;stroke-opacity:1" />
    <path
       sodipodi:nodetypes="ccccc"
       id="path943"
       d="m 82.289317,21.598242 c -0.03088,3.195818 -0.386622,6.400326 -0.920992,9.609611 1.114739,-1.25088 2.061209,-2.27949 3.534127,-4.003493 0.01002,-0.857023 -0.15361,-1.709406 -0.496777,-2.556984 -0.879319,-1.419436 -1.42859,-2.073754 -2.116358,-3.049134 z"
       style="fill:#000000;stroke:#000000;stroke-width:0;stroke-linecap:butt;stroke-linejoin:miter;stroke-miterlimit:4;stroke-dasharray:none;stroke-opacity:1" />
    <path
       sodipodi:nodetypes="ccccc"
       id="path943-6"
       d="m 24.146092,17.54823 c 0.201679,3.189597 0.728234,6.370503 1.433412,9.546631 -1.180019,-1.189494 -2.180126,-2.166036 -3.743106,-3.80883 -0.05578,-0.855265 0.06201,-1.715173 0.35937,-2.579884 0.802177,-1.464417 1.315685,-2.147163 1.950324,-3.157917 z"
       style="opacity:1;fill:#000000;stroke:#000000;stroke-width:0;stroke-linecap:butt;stroke-linejoin:miter;stroke-miterlimit:4;stroke-dasharray:none;stroke-opacity:1" />
    <path
       sodipodi:nodetypes="cccc"
       id="path960"
       d="m 68.632057,9.4870342 c -1.53168,2.0117598 -0.783409,2.8062768 -1.066986,4.1516858 1.903338,0.729928 4.393894,1.06372 7.838087,0.754188 -1.463583,-1.728874 -3.741794,-3.361668 -6.771101,-4.9058738 z"
       style="fill:#000000;stroke:#000000;stroke-width:0;stroke-linecap:butt;stroke-linejoin:miter;stroke-miterlimit:4;stroke-dasharray:none;stroke-opacity:1" />
    <path
       sodipodi:nodetypes="cccc"
       id="path960-9"
       d="m 39.280469,6.0811019 c 1.637041,1.9269979 0.932313,2.7603819 1.287415,4.0887081 -1.861595,0.830635 -4.330743,1.297098 -7.786561,1.17214 1.369065,-1.8046484 3.556726,-3.5569025 6.499146,-5.2608481 z"
       style="display:inline;opacity:1;fill:#000000;stroke:#000000;stroke-width:0;stroke-linecap:butt;stroke-linejoin:miter;stroke-miterlimit:4;stroke-dasharray:none;stroke-opacity:1" />
  </g>
</svg>
