<?xml version="1.0" encoding="UTF-8" standalone="no"?>
<svg
   xmlns:dc="http://purl.org/dc/elements/1.1/"
   xmlns:cc="http://creativecommons.org/ns#"
   xmlns:rdf="http://www.w3.org/1999/02/22-rdf-syntax-ns#"
   xmlns:svg="http://www.w3.org/2000/svg"
   xmlns="http://www.w3.org/2000/svg"
   xmlns:sodipodi="http://sodipodi.sourceforge.net/DTD/sodipodi-0.dtd"
   xmlns:inkscape="http://www.inkscape.org/namespaces/inkscape"
   inkscape:export-ydpi="57.473366"
   inkscape:export-xdpi="57.473366"
   inkscape:export-filename="D:\InkScape\logo\channel-logo.png"
   sodipodi:docname="double-helical.svg"
   inkscape:version="1.0 (4035a4fb49, 2020-05-01)"
   id="svg8"
   version="1.1"
   viewBox="0 0 100 100"
   height="100mm"
   width="100mm">
  <defs
     id="defs2">
    <inkscape:perspective
       id="perspective853"
       inkscape:persp3d-origin="105 : -98.000002 : 1"
       inkscape:vp_z="210.00001 : -48.500004 : 1"
       inkscape:vp_y="0 : 999.99997 : 0"
       inkscape:vp_x="0 : -48.500004 : 1"
       sodipodi:type="inkscape:persp3d" />
  </defs>
  <sodipodi:namedview
     inkscape:window-maximized="1"
     inkscape:window-y="-8"
     inkscape:window-x="-8"
     inkscape:window-height="1027"
     inkscape:window-width="1920"
     inkscape:snap-nodes="false"
     showgrid="true"
     inkscape:document-rotation="0"
     inkscape:current-layer="layer6"
     inkscape:document-units="mm"
     inkscape:cy="280.82413"
     inkscape:cx="116.00793"
     inkscape:zoom="1"
     inkscape:pageshadow="2"
     inkscape:pageopacity="0.0"
     borderopacity="1.0"
     bordercolor="#666666"
     pagecolor="#ffffff"
     id="base">
    <inkscape:grid
       id="grid1075"
       type="xygrid" />
  </sodipodi:namedview>
  <metadata
     id="metadata5">
    <rdf:RDF>
      <cc:Work
         rdf:about="">
        <dc:format>image/svg+xml</dc:format>
        <dc:type
           rdf:resource="http://purl.org/dc/dcmitype/StillImage" />
        <dc:title></dc:title>
      </cc:Work>
    </rdf:RDF>
  </metadata>
  <g
     style="display:inline"
     inkscape:label="helical-structure"
     id="layer6"
     inkscape:groupmode="layer">
    <rect
       transform="matrix(-0.98381285,-0.179199,0.39530014,-0.91855201,0,0)"
       y="-15.833628"
       x="-66.985474"
       height="4.838768"
       width="29.710403"
       id="rect1199-8-4-9-9"
       style="opacity:1;fill:#ff0000;fill-opacity:1;fill-rule:evenodd;stroke:#ff0000;stroke-width:0" />
    <rect
       style="opacity:1;fill:#ff0000;fill-opacity:1;fill-rule:evenodd;stroke:#ff0000;stroke-width:0"
       id="rect1199-8-4-1"
       width="30.866282"
       height="5.3006077"
       x="-60.128941"
       y="-68.71981"
       transform="matrix(-0.98120348,0.19297597,-0.06529754,-0.99786584,0,0)" />
    <rect
       style="opacity:1;fill:#ff0000;fill-opacity:1;fill-rule:evenodd;stroke:#ff0000;stroke-width:0"
       id="rect1199-8"
       width="29.409748"
       height="4.7900648"
       x="-60.995213"
       y="-77.682304"
       transform="matrix(-0.98399427,0.17820009,-0.07409675,-0.99725106,0,0)" />
    <rect
       transform="matrix(-0.98160414,0.19092752,-0.06646463,-0.99778878,0,0)"
       y="-56.749851"
       x="-51.794567"
       height="4.7843847"
       width="28.060804"
       id="rect1199-8-4"
       style="opacity:1;fill:#ff0000;fill-opacity:1;fill-rule:evenodd;stroke:#ff0000;stroke-width:0" />
    <rect
       style="opacity:1;fill:#ff0000;fill-opacity:1;fill-rule:evenodd;stroke:#ff0000;stroke-width:0"
       id="rect1199-8-4-9"
       width="29.710403"
       height="4.838768"
       x="-69.030289"
       y="-5.6488795"
       transform="matrix(-0.98381285,-0.179199,0.39530014,-0.91855201,0,0)" />
    <rect
       transform="matrix(-0.99918348,0.04040266,0.05369929,-0.99855715,0,0)"
       y="-95.292473"
       x="-69.491539"
       height="3.0753365"
       width="24.778992"
       id="rect1199"
       style="opacity:1;fill:#ff0000;fill-opacity:1;fill-rule:evenodd;stroke:#ff0000;stroke-width:0" />
    <path
       sodipodi:nodetypes="cccccc"
       id="path1197"
       d="M 40.027794,30.487511 C 36.979139,24.881191 35.178535,19.023552 36.139307,16.862057 40.133035,10.646348 44.625382,7.8922927 50.154614,4.4647444 50.829741,1.720238 49.218105,0.68537681 46.152326,0.73762661 28.891748,11.968747 25.773712,20.453547 34.414698,34.403482 c 1.022786,-1.49796 2.350254,-3.403725 5.612936,-3.915945 z"
       style="opacity:1;fill:#3e95e9;fill-opacity:1;stroke:#000000;stroke-width:0.0763177;stroke-linecap:butt;stroke-linejoin:miter;stroke-miterlimit:4;stroke-dasharray:none;stroke-opacity:1" />
    <path
       sodipodi:nodetypes="ccscccccc"
       id="path1195"
       d="M 54.736902,78.958047 C 35.82049,68.636435 31.479325,61.640089 34.565422,46.232125 39.967501,28.597658 67.650939,29.790065 71.866861,14.965013 73.154946,10.435582 67.239906,1.3681974 67.239906,1.3681974 66.239389,-1.2195865 59.811656,0.50334261 60.662846,2.0388276 65.08897,13.702601 68.892645,16.492663 53.709411,23.09354 38.525247,28.367542 24.712378,34.879167 26.859366,56.138918 c 0.712263,14.105017 9.848013,17.697409 22.141291,26.053724 z"
       style="opacity:1;fill:#22ab6e;fill-opacity:1;stroke:#000000;stroke-width:0.0763177;stroke-linecap:butt;stroke-linejoin:miter;stroke-miterlimit:4;stroke-dasharray:none;stroke-opacity:1" />
    <path
       sodipodi:nodetypes="ccccc"
       id="path1193"
       d="m 70.010009,95.487024 c 4.15556,0.446574 5.513931,-0.159802 4.251808,-3.75686 -7.947859,-3.56735 -15.605515,-9.709265 -19.166006,-14.186675 l -6.230905,4.122048 c 4.327835,4.569062 14.18493,10.193402 21.145103,13.821487 z"
       style="opacity:1;fill:#22ab6e;fill-opacity:1;stroke:#000000;stroke-width:0.0763177;stroke-linecap:butt;stroke-linejoin:miter;stroke-miterlimit:4;stroke-dasharray:none;stroke-opacity:1" />
    <path
       sodipodi:nodetypes="cccccccc"
       id="path1191"
       d="M 30.663375,99.645765 C 49.987665,89.155141 76.670932,75.07175 69.065733,54.151893 63.35439,45.035999 56.579344,43.047717 50.21132,38.331992 l -5.902392,-3.745044 c -2.626452,1.201553 -4.709994,3.480193 -5.174218,4.055805 l 17.170158,11.551206 c 20.650635,16.722562 -12.643876,35.978598 -31.773872,45.222834 0.116076,3.090634 1.172894,5.361417 6.132379,4.228972 z"
       style="opacity:1;fill:#3e95e9;fill-opacity:1;stroke:#000000;stroke-width:0.117413;stroke-linecap:butt;stroke-linejoin:miter;stroke-miterlimit:4;stroke-dasharray:none;stroke-opacity:1" />
  </g>
</svg>
