<?xml version="1.0" encoding="UTF-8" standalone="no"?>
<svg
   xmlns:dc="http://purl.org/dc/elements/1.1/"
   xmlns:cc="http://creativecommons.org/ns#"
   xmlns:rdf="http://www.w3.org/1999/02/22-rdf-syntax-ns#"
   xmlns:svg="http://www.w3.org/2000/svg"
   xmlns="http://www.w3.org/2000/svg"
   xmlns:sodipodi="http://sodipodi.sourceforge.net/DTD/sodipodi-0.dtd"
   xmlns:inkscape="http://www.inkscape.org/namespaces/inkscape"
   width="100mm"
   height="100mm"
   viewBox="0 0 100 100"
   version="1.1"
   id="svg8"
   inkscape:version="1.0 (4035a4fb49, 2020-05-01)"
   sodipodi:docname="double-helical.svg"
   inkscape:export-filename="D:\InkScape\logo\channel-logo.png"
   inkscape:export-xdpi="57.473366"
   inkscape:export-ydpi="57.473366">
  <defs
     id="defs2">
    <inkscape:perspective
       sodipodi:type="inkscape:persp3d"
       inkscape:vp_x="0 : -48.500004 : 1"
       inkscape:vp_y="0 : 999.99997 : 0"
       inkscape:vp_z="210.00001 : -48.500004 : 1"
       inkscape:persp3d-origin="105 : -98.000002 : 1"
       id="perspective853" />
  </defs>
  <sodipodi:namedview
     id="base"
     pagecolor="#ffffff"
     bordercolor="#666666"
     borderopacity="1.0"
     inkscape:pageopacity="0.0"
     inkscape:pageshadow="2"
     inkscape:zoom="1.4142136"
     inkscape:cx="-80.553317"
     inkscape:cy="149.09698"
     inkscape:document-units="mm"
     inkscape:current-layer="layer6"
     inkscape:document-rotation="0"
     showgrid="true"
     inkscape:snap-nodes="false"
     inkscape:window-width="1920"
     inkscape:window-height="1027"
     inkscape:window-x="-8"
     inkscape:window-y="-8"
     inkscape:window-maximized="1">
    <inkscape:grid
       type="xygrid"
       id="grid1075" />
  </sodipodi:namedview>
  <metadata
     id="metadata5">
    <rdf:RDF>
      <cc:Work
         rdf:about="">
        <dc:format>image/svg+xml</dc:format>
        <dc:type
           rdf:resource="http://purl.org/dc/dcmitype/StillImage" />
        <dc:title />
      </cc:Work>
    </rdf:RDF>
  </metadata>
  <g
     inkscape:groupmode="layer"
     id="layer6"
     inkscape:label="helical-structure"
     style="display:inline">
    <rect
       style="opacity:1;fill:#01738a;fill-opacity:1;fill-rule:evenodd;stroke:#ff0000;stroke-width:0"
       id="rect1199"
       width="22.293991"
       height="3.6725037"
       x="-65.819641"
       y="-96.556747"
       transform="matrix(-0.99855929,0.05365957,0.04043261,-0.99918227,0,0)" />
    <path
       style="opacity:1;fill:#01738a;fill-opacity:1;stroke:#000000;stroke-width:0;stroke-linecap:butt;stroke-linejoin:miter;stroke-miterlimit:4;stroke-dasharray:none;stroke-opacity:1"
       d="m 69.355199,98.667531 c 4.15556,0.446574 5.513931,-0.159802 4.251808,-3.75686 -7.947859,-3.56735 -18.505389,-9.522176 -22.06588,-13.999586 l -4.921285,3.280149 c 4.327835,4.569062 15.775184,10.848212 22.735357,14.476297 z"
       id="path1193"
       sodipodi:nodetypes="ccccc" />
    <rect
       style="display:inline;opacity:1;fill:#01738a;fill-opacity:1;fill-rule:evenodd;stroke:#ff0000;stroke-width:0"
       id="rect1199-8-9"
       width="29.939716"
       height="3.4408896"
       x="-58.036709"
       y="-79.913231"
       transform="matrix(-0.99210878,0.12538008,-0.10587489,-0.99437946,0,0)" />
    <rect
       transform="matrix(-0.99401167,0.10927397,-0.12149423,-0.99259214,0,0)"
       y="-70.172226"
       x="-59.124844"
       height="3.4470854"
       width="34.352589"
       id="rect1199-8"
       style="opacity:1;fill:#01738a;fill-opacity:1;fill-rule:evenodd;stroke:#ff0000;stroke-width:0" />
    <rect
       transform="matrix(-0.99433057,0.10633307,-0.11948374,-0.99283616,0,0)"
       y="-61.780262"
       x="-59.218079"
       height="3.3846691"
       width="35.588951"
       id="rect1199-8-4-1"
       style="opacity:1;fill:#01738a;fill-opacity:1;fill-rule:evenodd;stroke:#ff0000;stroke-width:0" />
    <rect
       style="opacity:1;fill:#01738a;fill-opacity:1;fill-rule:evenodd;stroke:#ff0000;stroke-width:0"
       id="rect1199-8-4"
       width="26.365227"
       height="4.0369449"
       x="-51.29211"
       y="-54.928799"
       transform="matrix(-0.9852075,0.17136563,-0.07428252,-0.99723724,0,0)" />
    <path
       style="opacity:1;fill:#01738a;fill-opacity:1;stroke:#000000;stroke-width:0;stroke-linecap:butt;stroke-linejoin:miter;stroke-miterlimit:4;stroke-dasharray:none;stroke-opacity:1"
       d="M 30.663375,99.645765 C 49.987665,89.155141 76.670932,75.07175 69.065733,54.151893 63.35439,45.035999 56.579344,43.047717 50.21132,38.331992 l -9.457077,-6.738463 c -2.626452,1.201553 -3.77455,3.012472 -4.238774,3.588084 L 56.77259,48.323072 c 26.442418,16.722562 -13.096223,37.849485 -32.241594,47.093721 0.116076,3.090634 1.172894,5.361417 6.132379,4.228972 z"
       id="path1191"
       sodipodi:nodetypes="cccccccc" />
    <rect
       ry="0"
       style="opacity:1;fill:#01738a;fill-opacity:1;fill-rule:evenodd;stroke:#ff0000;stroke-width:0"
       id="rect1199-8-4-9-9"
       width="32.586555"
       height="3.0063179"
       x="-68.326614"
       y="-17.578949"
       transform="matrix(-0.98750119,-0.15761153,0.44083254,-0.89758937,0,0)" />
    <rect
       transform="matrix(-0.98381285,-0.179199,0.39530014,-0.91855201,0,0)"
       y="-5.6488795"
       x="-69.030289"
       height="3.6424205"
       width="38.452801"
       id="rect1199-8-4-9"
       style="opacity:1;fill:#01738a;fill-opacity:1;fill-rule:evenodd;stroke:#ff0000;stroke-width:0" />
    <path
       style="opacity:1;fill:#01738a;fill-opacity:1;stroke:#000000;stroke-width:0;stroke-linecap:butt;stroke-linejoin:miter;stroke-miterlimit:4;stroke-dasharray:none;stroke-opacity:1"
       d="M 40.027794,30.487511 C 31.483428,21.691526 23.272959,9.3553681 38.274484,4.090567 38.949611,1.3460607 37.337975,0.31119943 34.272196,0.36344923 17.011618,11.59457 27.030483,20.188964 35.671469,34.138899 c 1.022786,-1.49796 1.093483,-3.139142 4.356165,-3.651362 z"
       id="path1197"
       sodipodi:nodetypes="cccccc" />
    <path
       style="opacity:1;fill:#01738a;fill-opacity:1;stroke:#000000;stroke-width:0;stroke-linecap:butt;stroke-linejoin:miter;stroke-miterlimit:4;stroke-dasharray:none;stroke-opacity:1"
       d="M 51.556395,80.548301 C 32.639983,70.226689 30.169704,61.640089 33.255801,46.232125 38.65788,28.597658 65.780052,31.286774 69.995974,16.461722 71.284059,11.932291 67.239906,1.3681974 67.239906,1.3681974 66.239389,-1.2195865 59.811656,0.50334261 60.662846,2.0388276 65.08897,13.702601 68.892645,16.492663 53.709411,23.09354 38.525247,28.367542 24.712378,34.879167 26.859366,56.138918 c 0.712263,14.105017 7.509405,19.848929 19.802683,28.205244 z"
       id="path1195"
       sodipodi:nodetypes="ccscccccc" />
  </g>
</svg>
