<?xml version="1.0" encoding="UTF-8" standalone="no"?>
<svg
   xmlns:dc="http://purl.org/dc/elements/1.1/"
   xmlns:cc="http://creativecommons.org/ns#"
   xmlns:rdf="http://www.w3.org/1999/02/22-rdf-syntax-ns#"
   xmlns:svg="http://www.w3.org/2000/svg"
   xmlns="http://www.w3.org/2000/svg"
   xmlns:sodipodi="http://sodipodi.sourceforge.net/DTD/sodipodi-0.dtd"
   xmlns:inkscape="http://www.inkscape.org/namespaces/inkscape"
   width="100mm"
   height="100mm"
   viewBox="0 0 100 100"
   version="1.1"
   id="svg8"
   inkscape:version="1.0 (4035a4fb49, 2020-05-01)"
   sodipodi:docname="facebook.svg">
  <defs
     id="defs2" />
  <sodipodi:namedview
     id="base"
     pagecolor="#ffffff"
     bordercolor="#666666"
     borderopacity="1.0"
     inkscape:pageopacity="0.0"
     inkscape:pageshadow="2"
     inkscape:zoom="0.98994949"
     inkscape:cx="393.59746"
     inkscape:cy="323.91416"
     inkscape:document-units="mm"
     inkscape:current-layer="layer2"
     inkscape:document-rotation="0"
     showgrid="false"
     inkscape:window-width="1920"
     inkscape:window-height="1027"
     inkscape:window-x="-8"
     inkscape:window-y="-8"
     inkscape:window-maximized="1" />
  <metadata
     id="metadata5">
    <rdf:RDF>
      <cc:Work
         rdf:about="">
        <dc:format>image/svg+xml</dc:format>
        <dc:type
           rdf:resource="http://purl.org/dc/dcmitype/StillImage" />
        <dc:title />
      </cc:Work>
    </rdf:RDF>
  </metadata>
  <g
     inkscape:groupmode="layer"
     id="layer2"
     inkscape:label="facebook"
     style="opacity:1">
    <path
       id="path850"
       style="fill:#1bbfe0;fill-rule:evenodd;stroke:#333333;stroke-width:0;fill-opacity:1"
       d="M 184.39062 0 L 172.5332 0.66015625 L 160.74219 2.0644531 L 149.06055 4.2070312 L 137.53711 7.078125 L 126.2168 10.666016 L 115.14453 14.958984 L 104.36523 19.9375 L 93.917969 25.583984 L 83.845703 31.875 L 74.189453 38.787109 L 64.984375 46.291016 L 56.269531 54.357422 L 48.078125 62.957031 L 40.443359 72.052734 L 33.396484 81.609375 L 26.960938 91.589844 L 21.166016 101.95508 L 16.033203 112.66406 L 11.582031 123.67383 L 7.8320312 134.94141 L 4.796875 146.42188 L 2.4882812 158.07031 L 0.91601562 169.8418 L 0.083984375 181.6875 L 0 193.5625 L 0.66015625 205.41992 L 2.0644531 217.21094 L 4.2070312 228.89258 L 7.078125 240.41602 L 10.666016 251.73438 L 14.958984 262.80664 L 19.9375 273.58789 L 25.583984 284.03516 L 31.875 294.10742 L 38.787109 303.76367 L 46.291016 312.96875 L 54.357422 321.68359 L 62.957031 329.87305 L 72.052734 337.50781 L 81.609375 344.55664 L 91.589844 350.99219 L 101.95508 356.78711 L 112.66406 361.91992 L 123.67383 366.37109 L 134.94141 370.12109 L 146.42188 373.15625 L 158.07031 375.46484 L 169.8418 377.03711 L 181.6875 377.86719 L 193.5625 377.95312 L 205.41992 377.29102 L 217.21094 375.88867 L 228.89258 373.74609 L 240.41602 370.875 L 251.73438 367.28711 L 262.80664 362.99414 L 273.58789 358.01367 L 284.03516 352.36914 L 294.10742 346.07617 L 303.76367 339.16602 L 312.96875 331.66211 L 321.68359 323.59375 L 329.87305 314.99609 L 337.50781 305.90039 L 344.55664 296.34375 L 350.99219 286.36328 L 356.78711 275.99805 L 361.91992 265.28906 L 366.37109 254.2793 L 370.12109 243.01172 L 373.15625 231.53125 L 375.46484 219.88281 L 377.03711 208.11133 L 377.86719 196.26562 L 377.95312 184.39062 L 377.29102 172.5332 L 375.88867 160.74219 L 373.74609 149.06055 L 370.875 137.53711 L 367.28711 126.2168 L 362.99414 115.14453 L 358.01367 104.36523 L 352.36914 93.917969 L 346.07617 83.845703 L 339.16602 74.189453 L 331.66211 64.984375 L 323.59375 56.269531 L 314.99609 48.078125 L 305.90039 40.443359 L 296.34375 33.396484 L 286.36328 26.960938 L 275.99805 21.166016 L 265.28906 16.033203 L 254.2793 11.582031 L 243.01172 7.8320312 L 231.53125 4.796875 L 219.88281 2.4882812 L 208.11133 0.91601562 L 196.26562 0.083984375 L 184.39062 0 z M 230.30078 74.308594 C 244.79237 74.204922 259.02549 75.714703 273.21484 77.5 L 273.03516 124.10742 L 246.25 124.10742 C 229.68446 126.32733 221.17983 134.68776 218.75 147.67773 L 218.03516 189.10742 L 271.42773 189.10742 L 262.5 243.39258 L 218.39258 243.39258 L 218.39258 375.53516 C 198.84741 378.36504 179.16674 378.76079 159.28516 375.53516 L 159.10742 243.92773 L 111.42773 244.28516 L 111.42773 189.28516 L 159.10742 189.28516 L 159.28516 167.85742 C 159.52892 154.93265 159.37236 141.37595 160.71484 130.17773 C 162.72247 117.3763 168.22924 104.13288 182.14258 89.822266 C 189.89133 84.881788 193.37437 79.940477 215.71484 75 C 220.61064 74.557526 225.47025 74.343151 230.30078 74.308594 z "
       transform="scale(0.26458333)" />
  </g>
</svg>
