<?xml version="1.0" encoding="UTF-8" standalone="no"?>
<svg
   xmlns:dc="http://purl.org/dc/elements/1.1/"
   xmlns:cc="http://creativecommons.org/ns#"
   xmlns:rdf="http://www.w3.org/1999/02/22-rdf-syntax-ns#"
   xmlns:svg="http://www.w3.org/2000/svg"
   xmlns="http://www.w3.org/2000/svg"
   xmlns:sodipodi="http://sodipodi.sourceforge.net/DTD/sodipodi-0.dtd"
   xmlns:inkscape="http://www.inkscape.org/namespaces/inkscape"
   sodipodi:docname="fork.svg"
   inkscape:version="1.0 (4035a4fb49, 2020-05-01)"
   id="svg8"
   version="1.1"
   viewBox="0 0 100 100"
   height="10cm"
   width="10cm">
  <defs
     id="defs2" />
  <sodipodi:namedview
     inkscape:window-maximized="1"
     inkscape:window-y="-8"
     inkscape:window-x="-8"
     inkscape:window-height="1027"
     inkscape:window-width="1920"
     units="cm"
     inkscape:snap-nodes="false"
     showgrid="false"
     inkscape:document-rotation="0"
     inkscape:current-layer="layer3"
     inkscape:document-units="cm"
     inkscape:cy="338.3167"
     inkscape:cx="158.2778"
     inkscape:zoom="0.98994949"
     inkscape:pageshadow="2"
     inkscape:pageopacity="0.0"
     borderopacity="1.0"
     bordercolor="#666666"
     pagecolor="#ffffff"
     id="base" />
  <metadata
     id="metadata5">
    <rdf:RDF>
      <cc:Work
         rdf:about="">
        <dc:format>image/svg+xml</dc:format>
        <dc:type
           rdf:resource="http://purl.org/dc/dcmitype/StillImage" />
        <dc:title />
      </cc:Work>
    </rdf:RDF>
  </metadata>
  <g
     inkscape:label="spoon-and-fork"
     id="layer3"
     inkscape:groupmode="layer"
     style="display:inline">
    <path
       sodipodi:nodetypes="cccccccccccccccccccccccccccccccccccccccccccccccccccc"
       d="M 12.416814,26.98764 11.726676,27.01951 10.894223,10.224673 C 9.9669902,8.0538593 8.7441552,9.7196208 8.6889632,10.455694 L 8.1557075,27.191446 7.6763284,27.151443 7.1989531,10.219176 C 6.2934552,7.9532639 5.0357136,9.9102522 4.9716898,10.467398 L 4.3047362,27.048064 c -0.2200428,0.189017 -0.4351444,0.413955 -0.7390715,-0.007 L 4.0682941,10.237697 C 3.2939933,8.3359114 1.7213687,9.3596497 1.6430496,10.414459 1.2518814,17.003362 0.4979698,24.445607 0.5337628,31.251874 c 0.2372394,1.793182 0.2983942,3.730372 1.54269,5.429155 1.8294836,1.725148 2.8790027,2.678734 3.0760285,4.256553 -0.2995624,16.690719 -0.1990408,31.070881 -1.9648053,44.695053 0.051737,0.296829 -0.067837,0.731132 0.3714254,1.360588 3.7649097,4.041538 5.7432221,2.719782 8.6976376,0.0883 C 12.572243,86.64749 12.765968,86.2971 12.732836,85.650184 11.56937,70.827662 10.10402,52.74327 11.248525,40.89392 11.376142,39.356135 11.827467,37.928933 13.655134,36.967634 15.158415,36.03714 15.52597,34.75969 15.932325,32.605856 15.497,25.306638 14.798348,17.945092 14.262435,10.502396 13.292569,8.0766357 12.16094,9.7379379 12.059714,10.536446 c -0.458719,4.06898 0.274083,11.48006 0.357098,16.451205 z M 13.56129,10.769379 c 0.634612,6.775652 1.316977,15.492324 1.496501,22.077933 -0.390133,2.067842 -1.569733,3.320481 -3.012993,4.213825 -1.675763,1.67307 -1.641895,3.120615 -1.803648,4.223991 -1.0988176,11.376264 0.365353,29.68998 1.482373,43.920724 0.03185,0.621073 -0.15451,0.956253 -0.457408,1.372957 C 8.4296505,89.105234 8.2263485,89.929319 4.6117521,86.049115 4.1900579,85.444801 4.3047176,85.029145 4.2550189,84.744169 5.9502784,71.663953 5.7776057,57.099536 6.0652109,41.075201 5.8760485,39.560378 5.0449976,38.35048 3.2885563,36.69421 1.8262433,35.116726 1.5348199,32.731859 1.3669215,30.99831 1.3325495,24.463783 2.2526119,16.980861 2.6281536,10.655023 2.8280132,10.387002 3.045528,10.538216 3.1439026,10.642043 L 2.6878963,27.788098 c 0.5240422,0.736504 1.7981752,1.085659 2.4783369,0.04861 L 5.7902883,10.556532 c 0.1734369,-0.208421 0.2682078,-0.18176 0.5087814,-0.04601 l 0.5123164,16.867104 c 0.033353,0.628774 1.2971885,1.351401 2.2840693,0.317754 L 9.4055072,10.424435 c 0.149616,-0.270007 0.372874,-0.247017 0.6988188,-0.02799 l 0.742733,17.175375 c 0.584036,1.004283 1.895966,0.573621 2.367972,0.06298 -0.01524,-4.3408 -0.468728,-10.985251 -0.424612,-16.783326 0.201689,-0.696324 0.499226,-0.497462 0.770869,-0.08205 z"
       style="fill:#333333;stroke:#000000;stroke-width:0;stroke-linecap:butt;stroke-linejoin:miter;stroke-miterlimit:4;stroke-dasharray:none;stroke-opacity:1"
       id="path1047" />
  </g>
  <g
     inkscape:label="plate"
     id="layer2"
     inkscape:groupmode="layer"
     style="display:inline" />
</svg>
