<?xml version="1.0" encoding="UTF-8" standalone="no"?>
<svg
   xmlns:dc="http://purl.org/dc/elements/1.1/"
   xmlns:cc="http://creativecommons.org/ns#"
   xmlns:rdf="http://www.w3.org/1999/02/22-rdf-syntax-ns#"
   xmlns:svg="http://www.w3.org/2000/svg"
   xmlns="http://www.w3.org/2000/svg"
   xmlns:sodipodi="http://sodipodi.sourceforge.net/DTD/sodipodi-0.dtd"
   xmlns:inkscape="http://www.inkscape.org/namespaces/inkscape"
   width="100mm"
   height="100mm"
   viewBox="0 0 100 100"
   version="1.1"
   id="svg8"
   inkscape:version="1.0 (4035a4fb49, 2020-05-01)"
   sodipodi:docname="human.svg">
  <defs
     id="defs2" />
  <sodipodi:namedview
     id="base"
     pagecolor="#ffffff"
     bordercolor="#666666"
     borderopacity="1.0"
     inkscape:pageopacity="0.0"
     inkscape:pageshadow="2"
     inkscape:zoom="1.4"
     inkscape:cx="158.78479"
     inkscape:cy="218.71752"
     inkscape:document-units="mm"
     inkscape:current-layer="layer4"
     inkscape:document-rotation="0"
     showgrid="false"
     inkscape:window-width="1920"
     inkscape:window-height="1027"
     inkscape:window-x="-8"
     inkscape:window-y="-8"
     inkscape:window-maximized="1"
     inkscape:snap-nodes="false" />
  <metadata
     id="metadata5">
    <rdf:RDF>
      <cc:Work
         rdf:about="">
        <dc:format>image/svg+xml</dc:format>
        <dc:type
           rdf:resource="http://purl.org/dc/dcmitype/StillImage" />
        <dc:title />
      </cc:Work>
    </rdf:RDF>
  </metadata>
  <g
     inkscape:groupmode="layer"
     id="layer2"
     inkscape:label="simple-house"
     style="display:inline" />
  <g
     inkscape:groupmode="layer"
     id="layer4"
     inkscape:label="standing-person"
     style="display:inline">
    <path
       style="fill:none;stroke:#333333;stroke-width:1;stroke-linecap:butt;stroke-linejoin:miter;stroke-miterlimit:4;stroke-dasharray:none;stroke-opacity:1"
       d="M 3.7083418,56.443878 C 3.2287209,55.955555 3.550464,55.467233 3.8598899,54.978911 4.111259,54.64002 4.5901746,54.699334 5.0217582,54.675817 4.4445247,53.985432 5.4073255,52.899794 6.1331105,52.604662 c 0.6215885,-0.252763 1.4796612,0.09952 1.9196074,0.60619 0.2014642,0.232016 0.1515473,0.909289 0.1515473,0.909289 0.8851139,0.369718 1.2382238,0.686235 1.6670274,1.01032 -0.028854,0.75101 -0.1737197,1.447881 -0.9092864,1.869091 -0.8893928,0.258323 -1.0593343,0.216875 -1.4144488,0.252581 l 0.050518,0.454642 c 1.5528463,0.471483 1.9033799,0.942966 2.6773486,1.414449 0.669105,1.380771 0.910051,2.761541 1.161867,4.142312 0.727453,2.829718 0.75475,5.369717 0.101028,7.627913 l -0.353612,0.353614 c 0.450557,0.568942 0.350719,0.980627 0.505159,1.464964 -0.180416,0.353612 -0.440814,0.707225 -0.858771,1.060836 -0.413458,0.08977 -0.73684,0.04442 -0.9598038,-0.151549 l -0.20206,-1.010319 C 9.9382222,72.322738 10.189909,72.03648 10.224906,71.750223 10.069001,69.960767 9.8903168,68.118165 9.8712943,66.648106 9.7940026,66.405465 9.4178011,66.461733 9.0125231,66.547077 c 0.6495718,1.1737 0.5276102,2.13698 0.707223,3.18251 l 0.1515482,6.263983 -0.5051597,9.648554 0.8082564,0.101027 c 0.574407,0.745405 0.479363,1.089138 0.353612,1.414449 C 9.8925414,86.973573 9.4103158,87.06537 9.0125231,87.309149 7.6830215,87.872128 7.4838153,87.504277 6.8908504,87.460695 6.5986999,86.618763 6.780129,85.77683 6.7898234,84.934897 L 6.9413716,83.62148 7.143435,83.166837 7.0424071,78.620397 C 6.6942052,77.363059 6.314793,76.09792 6.3351841,74.932731 6.2399724,76.499343 6.2046408,78.245607 5.9310557,79.277106 l 0.9092881,4.293859 -0.3536115,3.536119 C 5.408535,87.494687 5.1692192,87.378961 4.7691882,87.359665 4.0050022,86.853637 3.8736235,86.294879 3.6578259,85.743151 3.8681489,85.116727 4.2172598,84.999194 4.5671138,84.884381 3.972627,82.771848 3.3371521,80.597832 3.203182,79.176075 3.1209988,77.317034 3.0480482,75.504158 3.1526658,74.579119 l 0.050516,-1.414448 C 2.1932231,73.172899 1.9125826,72.816489 1.4351223,72.558478 1.1054226,71.258662 1.3764083,70.93496 1.384606,70.184225 L 0.8794462,69.628551 C 0.55012833,67.290741 0.80555811,65.830052 1.0309941,64.324372 1.2181803,61.895536 1.5712554,60.343541 2.09183,59.676901 2.3638054,59.164706 2.794743,58.843267 3.3042137,58.616065 l 2.071156,-0.90929 0.1515473,-0.202061 C 4.9110343,57.176943 4.1974773,57.10964 3.7083418,56.443878 Z"
       id="path918"
       sodipodi:nodetypes="cccaacccccccccccccccccccccccccccccccccccccccccccccc" />
  </g>
</svg>
