<?xml version="1.0" encoding="UTF-8" standalone="no"?>
<svg
   xmlns:osb="http://www.openswatchbook.org/uri/2009/osb"
   xmlns:dc="http://purl.org/dc/elements/1.1/"
   xmlns:cc="http://creativecommons.org/ns#"
   xmlns:rdf="http://www.w3.org/1999/02/22-rdf-syntax-ns#"
   xmlns:svg="http://www.w3.org/2000/svg"
   xmlns="http://www.w3.org/2000/svg"
   xmlns:sodipodi="http://sodipodi.sourceforge.net/DTD/sodipodi-0.dtd"
   xmlns:inkscape="http://www.inkscape.org/namespaces/inkscape"
   sodipodi:docname="instagram.svg"
   inkscape:version="1.0 (4035a4fb49, 2020-05-01)"
   id="svg8"
   version="1.1"
   viewBox="0 0 100 100"
   height="100mm"
   width="100mm">
  <defs
     id="defs2">
    <linearGradient
       osb:paint="gradient"
       id="linearGradient858-3">
      <stop
         style="stop-color:#1bbfe0;stop-opacity:1;"
         offset="0"
         id="stop867" />
      <stop
         style="stop-color:#1bbfe0;stop-opacity:0;"
         offset="1"
         id="stop869" />
    </linearGradient>
  </defs>
  <sodipodi:namedview
     inkscape:snap-object-midpoints="true"
     inkscape:window-maximized="1"
     inkscape:window-y="-8"
     inkscape:window-x="-8"
     inkscape:window-height="1027"
     inkscape:window-width="1920"
     showgrid="false"
     inkscape:document-rotation="0"
     inkscape:current-layer="layer2"
     inkscape:document-units="mm"
     inkscape:cy="349.60911"
     inkscape:cx="109.67835"
     inkscape:zoom="0.7"
     inkscape:pageshadow="2"
     inkscape:pageopacity="0.0"
     borderopacity="1.0"
     bordercolor="#666666"
     pagecolor="#ffffff"
     id="base" />
  <metadata
     id="metadata5">
    <rdf:RDF>
      <cc:Work
         rdf:about="">
        <dc:format>image/svg+xml</dc:format>
        <dc:type
           rdf:resource="http://purl.org/dc/dcmitype/StillImage" />
        <dc:title />
      </cc:Work>
    </rdf:RDF>
  </metadata>
  <g
     style="opacity:1"
     inkscape:label="logo"
     id="layer2"
     inkscape:groupmode="layer">
    <path
       d="M 23.797793,0.13399323 C 5.1709681,0.10123643 0.36883767,13.175094 0.32576442,25.544405 L 0.13400638,80.568608 C 0.09692021,91.218605 13.969919,100.56058 22.221291,99.820747 c 8.25137,-0.73982 54.364462,0.0446 54.364462,0.0446 10.450629,0.0768 23.15792,-5.598869 23.18441,-21.207039 l 0.0959,-56.457154 C 99.893543,5.9896685 86.530617,0.24438863 78.118772,0.22959573 Z m 7.128054,13.56562977 39.543555,0.06948 c 6.123503,0.01077 15.85104,4.193174 15.831048,15.994352 L 86.23077,70.862081 C 86.21149,82.22423 76.961097,86.35606 69.353437,86.300056 c 0,0 -33.568836,-0.570951 -39.575516,-0.0324 C 23.771238,86.80621 13.672564,80.005533 13.699583,72.252745 l 0.139364,-40.055356 c 0.03136,-9.004373 3.52729,-18.521633 17.086903,-18.497774 z m 3.616682,6.88338 C 23.554265,20.56367 20.721546,28.276413 20.696133,35.573265 l -0.113171,32.459399 c -0.0219,6.282606 8.161971,11.793798 13.029597,11.357368 4.867615,-0.436429 32.07075,0.02611 32.07075,0.02611 6.164998,0.04536 13.661548,-3.302829 13.677172,-12.510347 l 0.05658,-33.305192 C 79.433288,24.037331 71.549898,20.648148 66.587612,20.639424 Z m 35.260439,5.542854 0.265107,0.0068 0.264057,0.02352 0.261967,0.03969 0.259345,0.0564 0.254628,0.07263 0.249917,0.08776 0.244151,0.103961 0.236813,0.118589 0.228959,0.133218 0.220052,0.147842 0.210615,0.160909 0.199617,0.173439 0.188619,0.185984 0.176039,0.197472 0.163989,0.207922 0.149842,0.217852 0.136224,0.226728 0.122075,0.235086 0.106358,0.241879 0.09117,0.248148 0.07544,0.253374 0.0592,0.258075 0.04297,0.260686 0.0262,0.263298 0.0099,0.26382 -0.0068,0.264346 -0.02357,0.263298 -0.04034,0.26121 -0.05606,0.258598 -0.07283,0.25389 -0.08854,0.249718 -0.103738,0.242925 -0.119455,0.236133 -0.133605,0.228298 -0.147748,0.219412 -0.161371,0.210014 -0.174466,0.199043 -0.185995,0.188067 -0.198048,0.176058 -0.208523,0.162994 -0.218475,0.149934 -0.227912,0.135306 -0.235245,0.121723 -0.242576,0.106051 -0.249394,0.09091 -0.254105,0.07522 -0.258296,0.05904 -0.261444,0.04285 -0.264057,0.02611 -0.265106,0.0099 -0.26511,-0.0068 -0.264061,-0.02352 -0.261963,-0.04022 -0.258825,-0.05589 -0.255151,-0.07263 -0.249913,-0.08828 -0.243628,-0.103438 -0.237341,-0.118588 -0.228953,-0.133739 -0.220054,-0.147323 -0.210096,-0.160905 -0.200138,-0.173442 -0.188091,-0.185981 -0.176568,-0.197473 -0.163463,-0.207924 -0.150368,-0.217848 -0.13622,-0.226731 -0.121553,-0.235084 -0.106882,-0.241882 -0.09117,-0.24867 -0.07492,-0.253371 -0.05921,-0.257552 -0.04296,-0.260687 -0.02672,-0.263302 -0.0094,-0.264342 0.0068,-0.263822 0.02357,-0.263298 0.03981,-0.261732 0.05658,-0.258076 0.0723,-0.254415 0.08854,-0.249193 0.104262,-0.242926 0.118935,-0.236134 0.1336,-0.228293 0.147748,-0.21994 0.161369,-0.209489 0.174469,-0.199041 0.18652,-0.18807 0.198044,-0.176054 0.208523,-0.162997 0.218481,-0.149933 0.227385,-0.13583 0.235765,-0.121198 0.242583,-0.106577 0.248864,-0.09038 0.254106,-0.07522 0.258298,-0.05903 0.261964,-0.04285 0.263535,-0.02663 z m -19.905119,5.144774 1.179886,0.03029 1.175176,0.104488 1.166266,0.177621 1.153167,0.250762 1.134831,0.321807 1.112303,0.392857 1.085581,0.461295 1.054668,0.52869 1.018518,0.593465 0.97975,0.656155 0.936258,0.715715 0.889633,0.773702 0.838809,0.826987 0.784845,0.878706 0.728264,0.925726 0.668535,0.969607 0.606185,1.009312 0.541743,1.04536 0.474155,1.077746 0.406046,1.104915 0.335313,1.127903 0.263538,1.146703 0.191235,1.161336 0.11736,1.170742 0.04348,1.175963 -0.03091,1.175961 -0.104787,1.172306 -0.178134,1.162903 -0.250961,1.149841 -0.323265,1.131558 -0.393471,1.109094 -0.463153,1.082451 -0.529693,1.051105 -0.595184,1.016101 -0.658057,0.976925 -0.718302,0.933559 -0.77542,0.886545 -0.829904,0.83639 -0.880724,0.783103 -0.928402,0.726164 -0.972411,0.666603 -1.012757,0.604438 -1.04838,0.539659 -1.080344,0.473309 -1.108108,0.404352 -1.131166,0.334871 -1.150546,0.262776 -1.164174,0.190159 -1.174121,0.117022 -1.179366,0.04337 -1.179887,-0.0303 -1.175175,-0.104485 -1.166269,-0.177624 -1.153166,-0.250762 -1.134831,-0.321807 -1.112301,-0.39286 -1.085582,-0.461294 -1.054667,-0.528687 -1.018519,-0.593469 -0.97975,-0.656155 -0.936261,-0.715711 -0.889629,-0.773706 -0.838813,-0.826987 -0.784844,-0.878706 -0.728261,-0.925725 -0.668535,-0.969608 -0.606185,-1.009311 -0.541747,-1.045358 -0.474151,-1.077748 -0.406048,-1.104916 -0.335313,-1.127896 -0.263538,-1.14671 -0.191234,-1.161335 -0.117359,-1.170739 -0.04349,-1.175963 0.03091,-1.175964 0.104783,-1.172305 0.178135,-1.162902 0.250964,-1.149844 0.323264,-1.131558 0.393472,-1.109091 0.463153,-1.082453 0.529693,-1.051103 0.595184,-1.016104 0.658054,-0.976922 0.718305,-0.933559 0.775417,-0.886545 0.829904,-0.836391 0.880727,-0.783104 0.928399,-0.726163 0.97241,-0.666602 1.012759,-0.604441 1.048382,-0.539659 1.080344,-0.473309 1.108108,-0.404352 1.131166,-0.334871 1.150544,-0.262775 1.164173,-0.19016 1.174124,-0.117021 z m 0.03405,6.192741 -0.789561,0.02925 -0.785892,0.07835 -0.779606,0.127467 -0.769652,0.175531 -0.757078,0.224119 -0.741883,0.270612 -0.723025,0.316584 -0.702063,0.361516 -0.67744,0.404352 -0.651247,0.446667 -0.621381,0.485846 -0.58942,0.52399 -0.555361,0.56003 -0.519216,0.593465 -0.480969,0.624815 -0.440096,0.654067 -0.398712,0.679663 -0.3547,0.703699 -0.309646,0.724593 -0.263534,0.742358 -0.216382,0.757505 -0.168182,0.769522 -0.118932,0.778402 -0.07021,0.784671 -0.02043,0.787284 0.02881,0.787286 0.07858,0.783626 0.127838,0.776837 0.176569,0.767952 0.224238,0.754896 0.271918,0.739745 0.317505,0.720936 0.362556,0.70004 0.405523,0.675485 0.447433,0.648845 0.48778,0.619587 0.525501,0.588243 0.56113,0.553765 0.595704,0.517714 0.62662,0.479057 0.655436,0.439355 0.682156,0.397034 0.705734,0.35368 0.726689,0.30927 0.744503,0.262776 0.759697,0.215238 0.771748,0.167696 0.780654,0.119111 0.786942,0.07001 0.789562,0.02037 0.789036,-0.02925 0.785894,-0.07836 0.779605,-0.127471 0.769653,-0.17553 0.757601,-0.224119 0.741359,-0.270612 0.723548,-0.316585 0.70154,-0.361516 0.677964,-0.40435 0.650723,-0.446666 0.621379,-0.485849 0.589423,-0.523985 0.555883,-0.560033 0.518693,-0.593466 0.480969,-0.624813 0.440097,-0.654069 0.398712,-0.679663 0.354697,-0.703696 0.309645,-0.724597 0.263535,-0.742355 0.216381,-0.757507 0.168186,-0.769519 0.119455,-0.778406 0.06968,-0.78467 0.02096,-0.787285 -0.02934,-0.787285 -0.07858,-0.783627 -0.127833,-0.776823 -0.176566,-0.767956 -0.224241,-0.754893 -0.271392,-0.739744 -0.318028,-0.720937 -0.362033,-0.70004 -0.406047,-0.675488 -0.447433,-0.648842 -0.487256,-0.619589 -0.525502,-0.588243 -0.561652,-0.553762 -0.595181,-0.517715 -0.627144,-0.479057 -0.655436,-0.439354 -0.682156,-0.397038 -0.705733,-0.35368 -0.726166,-0.309269 -0.745029,-0.262777 -0.759697,-0.215236 -0.771746,-0.167694 -0.780655,-0.119112 -0.786417,-0.07001 z"
       style="fill:#ffffff;stroke:#000000;stroke-width:0;stroke-linecap:butt;stroke-linejoin:miter;stroke-opacity:1;fill-opacity:1;stroke-miterlimit:4;stroke-dasharray:none"
       id="path1417" />
  </g>
</svg>
