<?xml version="1.0" encoding="UTF-8" standalone="no"?>
<svg
   xmlns:dc="http://purl.org/dc/elements/1.1/"
   xmlns:cc="http://creativecommons.org/ns#"
   xmlns:rdf="http://www.w3.org/1999/02/22-rdf-syntax-ns#"
   xmlns:svg="http://www.w3.org/2000/svg"
   xmlns="http://www.w3.org/2000/svg"
   xmlns:sodipodi="http://sodipodi.sourceforge.net/DTD/sodipodi-0.dtd"
   xmlns:inkscape="http://www.inkscape.org/namespaces/inkscape"
   width="128mm"
   height="72mm"
   viewBox="0 0 128 72"
   version="1.1"
   id="svg8"
   inkscape:version="1.0 (4035a4fb49, 2020-05-01)"
   sodipodi:docname="painted-stork.svg"
   inkscape:export-filename="D:\InkScape\birds\Painter-Stork\painted-stork.png"
   inkscape:export-xdpi="483.80951"
   inkscape:export-ydpi="483.80951">
  <defs
     id="defs2" />
  <sodipodi:namedview
     id="base"
     pagecolor="#ffffff"
     bordercolor="#666666"
     borderopacity="1.0"
     inkscape:pageopacity="0.0"
     inkscape:pageshadow="2"
     inkscape:zoom="0.70000001"
     inkscape:cx="-33.476369"
     inkscape:cy="201.04054"
     inkscape:document-units="mm"
     inkscape:current-layer="layer8"
     inkscape:document-rotation="0"
     showgrid="false"
     inkscape:window-width="1920"
     inkscape:window-height="1027"
     inkscape:window-x="-8"
     inkscape:window-y="-8"
     inkscape:window-maximized="1"
     inkscape:object-paths="true"
     inkscape:snap-intersection-paths="false"
     width="210mm"
     inkscape:snap-others="false"
     inkscape:snap-nodes="false" />
  <metadata
     id="metadata5">
    <rdf:RDF>
      <cc:Work
         rdf:about="">
        <dc:format>image/svg+xml</dc:format>
        <dc:type
           rdf:resource="http://purl.org/dc/dcmitype/StillImage" />
        <dc:title></dc:title>
      </cc:Work>
    </rdf:RDF>
  </metadata>
  <g
     inkscape:groupmode="layer"
     id="layer8"
     inkscape:label="background"
     style="display:inline;opacity:0.95873">
    <path
       style="fill:#454837;stroke:#ed0a0a;stroke-width:0;stroke-linecap:butt;stroke-linejoin:miter;stroke-miterlimit:4;stroke-dasharray:none;stroke-opacity:1"
       d="m -13.336577,59.861881 152.907527,-4.845448 0.31764,-84.002422 -154.385963,1.110598 v 88.847872 z"
       id="path2408" />
    <path
       style="fill:#5fbcd3;stroke:#000000;stroke-width:0;stroke-linecap:butt;stroke-linejoin:miter;stroke-miterlimit:4;stroke-dasharray:none;stroke-opacity:1"
       d="m -20.135528,51.487519 c 22.0833374,6.16048 42.784308,0.224311 64.175475,0 24.655387,-0.258541 49.317478,-2.672499 73.959343,-1.551179 7.26243,0.330478 22.72431,0.272469 21.72347,2.437568 l 0.16583,57.393692 -160.189946,0.4432 z"
       id="path2404"
       sodipodi:nodetypes="caacccc" />
    <path
       style="fill:#2d899f;fill-opacity:0.960784;stroke:#000000;stroke-width:0;stroke-linecap:butt;stroke-linejoin:miter;stroke-miterlimit:4;stroke-dasharray:none;stroke-opacity:1"
       d="m 61.440914,63.151847 c 0,0 -1.016654,0.488912 -0.895859,0.89283 0.191286,0.639667 1.315615,0.57006 1.961996,0.402913 0.521217,-0.134782 1.283624,-0.515782 1.226256,-1.051071 -0.02736,-0.255444 -0.678173,-0.366186 -0.678173,-0.366186 z"
       id="path2434"
       sodipodi:nodetypes="caaacc" />
    <path
       style="opacity:0.71987;fill:#005a70;fill-opacity:0.721569;stroke:#000000;stroke-width:0;stroke-linecap:butt;stroke-linejoin:miter;stroke-miterlimit:4;stroke-dasharray:none;stroke-opacity:1"
       d="m 65.270312,63.267898 c 0,0 -1.106826,0.532276 -0.975315,0.972019 0.208249,0.696392 1.432297,0.620622 2.136014,0.438645 0.567442,-0.146736 1.39747,-0.561534 1.335016,-1.144299 -0.02978,-0.278091 -0.73832,-0.398649 -0.73832,-0.398649 z"
       id="path2434-9"
       sodipodi:nodetypes="caaacc" />
  </g>
  <g
     inkscape:groupmode="layer"
     id="layer7"
     inkscape:label="legs"
     style="display:inline;opacity:1">
    <path
       style="fill:#d58b74;fill-opacity:1;stroke:#000000;stroke-width:0;stroke-linecap:butt;stroke-linejoin:miter;stroke-miterlimit:4;stroke-dasharray:none;stroke-opacity:1"
       d="m 62.462192,54.422551 c 0.594004,1.017121 1.133326,2.198215 1.673175,3.377503 0.838214,1.799977 1.737821,3.384744 2.629193,4.99859 0.07289,0.214782 0.157075,0.419964 -0.09345,0.9041 -0.487577,0.238823 -1.088944,0.09789 -1.652421,0.08314 0.172101,-0.882161 0.100724,-1.753796 -0.363783,-2.608446 l -2.972142,-6.401616 z"
       id="path1722"
       sodipodi:nodetypes="cccccccc" />
    <path
       style="fill:#de8787;stroke:#000000;stroke-width:0;stroke-linecap:butt;stroke-linejoin:miter;stroke-miterlimit:4;stroke-dasharray:none;stroke-opacity:1"
       d="m 61.173593,54.131613 c 0.403406,0.289039 0.404038,6.101982 0.561161,9.768675 l 0.976898,-0.103913 c -0.103051,-2.899654 -0.214819,-5.867972 -0.280594,-8.469689 l -0.540384,-1.818685 z"
       id="path1716"
       sodipodi:nodetypes="cccccc" />
    <path
       style="fill:#ee7377;fill-opacity:1;stroke:#000000;stroke-width:0;stroke-linecap:butt;stroke-linejoin:miter;stroke-miterlimit:4;stroke-dasharray:none;stroke-opacity:1"
       d="m 61.391768,54.630411 c 0.293438,0.153691 0.36994,0.437665 0.540464,0.665125 0.125561,1.354453 0.08814,2.708907 0.114245,4.063361 l -0.394844,-0.561265 z"
       id="path1718"
       sodipodi:nodetypes="ccccc" />
    <path
       style="fill:#ff5555;stroke:#000000;stroke-width:0;stroke-linecap:butt;stroke-linejoin:miter;stroke-miterlimit:4;stroke-dasharray:none;stroke-opacity:1"
       d="m 62.368715,55.461789 -0.249434,0.166293 0.20787,4.697287 z"
       id="path1720" />
    <path
       style="fill:#e46c6e;fill-opacity:1;stroke:#000000;stroke-width:0;stroke-linecap:butt;stroke-linejoin:miter;stroke-miterlimit:4;stroke-dasharray:none;stroke-opacity:1"
       d="m 63.998731,58.176385 c 0.726916,1.547252 1.583389,3.107438 2.057484,4.629485 l 0.249818,0.440823 c -0.02184,-0.35906 0.146545,-0.321673 -0.146854,-1.249139 -0.538969,-1.228475 -1.424864,-2.543558 -2.160448,-3.821169 z"
       id="path1724"
       sodipodi:nodetypes="ccccc" />
    <path
       style="fill:#be5e6f;fill-opacity:1;stroke:#000000;stroke-width:0;stroke-linecap:butt;stroke-linejoin:miter;stroke-miterlimit:4;stroke-dasharray:none;stroke-opacity:1"
       d="m 65.159766,63.761158 c 0.135674,0.178838 0.452986,0.124357 0.778891,0.05884 -0.08919,-0.837818 -0.336707,-1.675536 -0.646692,-2.513169 -0.565424,-1.361628 -1.238572,-2.364213 -1.881193,-3.468474 -0.04746,-0.14698 -0.15589,-0.294003 -0.396737,-0.440899 0.659244,1.552268 1.473923,3.337651 2.233842,5.041018 0.11943,0.713562 -0.05609,0.886685 -0.08811,1.322688 z"
       id="path1726"
       sodipodi:nodetypes="ccccccc" />
  </g>
  <g
     inkscape:groupmode="layer"
     id="layer2"
     inkscape:label="beak"
     style="display:inline;opacity:1">
    <path
       style="fill:#e09c72;fill-opacity:1;stroke:#000000;stroke-width:0;stroke-linecap:butt;stroke-linejoin:miter;stroke-miterlimit:4;stroke-dasharray:none;stroke-opacity:1"
       d="m 45.367257,37.202648 c -1.108611,1.436039 -2.182752,3.010245 -3.265445,4.550155 -1.030128,1.483074 -1.991439,2.989133 -2.7874,4.550398 -1.03048,1.901029 -1.02363,2.587014 -0.936895,3.179511 0.09249,0.151049 0.119237,0.485849 0.394843,0.124881 1.270813,-2.406749 2.675283,-4.162689 4.138927,-5.63045 l 3.930111,-3.676865 c 0.170362,-0.298586 0.316849,-0.638459 0.187792,-1.454821 -0.388406,-0.296071 -0.784394,-0.589339 -0.810089,-1.018842 -0.297398,-0.548577 -0.572946,-0.54385 -0.851844,-0.623967 z"
       id="path1932"
       sodipodi:nodetypes="cccccccccc" />
    <path
       style="fill:#a95e2b;fill-opacity:1;stroke:#000000;stroke-width:0;stroke-linecap:butt;stroke-linejoin:miter;stroke-miterlimit:4;stroke-dasharray:none;stroke-opacity:1"
       d="m 46.727913,38.647854 c -2.745593,2.526971 -4.554335,4.923202 -6.800508,7.946633 -0.68265,1.049543 -1.052865,2.058906 -1.435695,3.127359 l 0.0531,0.03487 c 0.360818,-1.048929 0.74838,-2.065711 1.47812,-3.132788 2.029317,-2.816761 4.2334,-5.595486 6.751735,-7.944893 z"
       id="path1934"
       sodipodi:nodetypes="ccccccc" />
    <path
       style="opacity:0.312704;fill:#c12400;fill-opacity:1;stroke:#000000;stroke-width:0;stroke-linecap:butt;stroke-linejoin:miter;stroke-miterlimit:4;stroke-dasharray:none;stroke-opacity:1"
       d="m 45.72033,37.441673 c -0.243281,-0.02076 -0.536922,0.615922 -0.431271,0.691075 0.199794,-0.0085 0.513843,-0.621341 0.431271,-0.691075 z"
       id="path1732"
       sodipodi:nodetypes="ccc" />
    <path
       style="opacity:0.312704;fill:#ffffff;fill-opacity:1;stroke:#000000;stroke-width:0;stroke-linecap:butt;stroke-linejoin:miter;stroke-miterlimit:4;stroke-dasharray:none;stroke-opacity:1"
       d="m 46.377207,40.349103 c -2.878498,2.185029 -5.345878,4.754772 -6.716447,7.568831 2.028337,-3.119475 4.449375,-5.064796 6.848715,-7.289592 z"
       id="path1736"
       sodipodi:nodetypes="cccc" />
    <path
       style="display:inline;opacity:0.312704;fill:#b44800;fill-opacity:1;stroke:#000000;stroke-width:0;stroke-linecap:butt;stroke-linejoin:miter;stroke-miterlimit:4;stroke-dasharray:none;stroke-opacity:1"
       d="m 44.972098,37.774219 -1.548445,2.223935 c -1.372606,1.738754 -2.429366,3.551841 -3.585312,5.341596 -0.746967,1.392229 -1.690637,2.712486 -1.38217,4.177673 0.155569,-1.522402 0.971926,-2.996436 1.621185,-4.125708 1.555298,-2.5189 3.318644,-4.993214 5.061017,-7.47201 0.240016,-0.445187 0.150875,-0.503128 0.176666,-0.696283 z"
       id="path1734"
       sodipodi:nodetypes="cccccccc" />
  </g>
  <g
     inkscape:groupmode="layer"
     id="layer3"
     inkscape:label="head"
     style="display:inline;opacity:1">
    <path
       style="fill:#c8743f;fill-opacity:1;stroke:#ce823c;stroke-width:0;stroke-linecap:butt;stroke-linejoin:miter;stroke-miterlimit:4;stroke-dasharray:none;stroke-opacity:1"
       d="m 47.904307,34.512339 c -1.322015,0.680607 -2.174339,1.576215 -2.526664,2.700709 0.377135,0.04845 0.66881,0.243186 0.851845,0.623966 0.01437,0.379464 0.41821,0.703492 0.810086,1.029234 0.08964,0.771622 -0.07698,1.094233 -0.198208,1.496378 0.560101,-0.475197 1.155805,-0.978055 1.476329,-1.267111 0.186729,-0.323675 0.253701,-0.722274 0.21883,-1.184605 -0.300053,-0.298055 -0.210843,-0.595933 -0.103473,-0.893785 0.477397,-0.891928 0.564112,-1.749803 -0.528745,-2.504786 z"
       id="path2760"
       sodipodi:nodetypes="ccccccccc" />
    <path
       style="fill:#ce8f56;fill-opacity:1;fill-rule:evenodd;stroke:#000000;stroke-width:0;stroke-miterlimit:4;stroke-dasharray:none"
       id="path2764"
       sodipodi:type="arc"
       sodipodi:cx="9.3261738"
       sodipodi:cy="59.349777"
       sodipodi:rx="0.58694267"
       sodipodi:ry="0.43157125"
       sodipodi:start="0"
       sodipodi:end="6.2826792"
       sodipodi:arc-type="slice"
       d="M 9.9131165,59.349777 A 0.58694267,0.43157125 0 0 1 9.326248,59.781348 0.58694267,0.43157125 0 0 1 8.7392311,59.349886 0.58694267,0.43157125 0 0 1 9.325951,58.918206 0.58694267,0.43157125 0 0 1 9.9131164,59.349559 l -0.5869426,2.18e-4 z"
       transform="rotate(-43.583498)" />
    <path
       id="path2766-3"
       style="opacity:1;fill:#000000;fill-opacity:1;fill-rule:evenodd;stroke:#000000;stroke-width:0.0229983;stroke-miterlimit:4;stroke-dasharray:none"
       d="m 47.730157,36.212793 a 0.29578864,0.45501542 42.86531 0 0 -0.286979,0.178121 0.29578864,0.45501542 42.86531 0 0 -0.09253,0.534538 0.29578864,0.45501542 42.86531 0 0 0.526271,-0.132394 0.29578864,0.45501542 42.86531 0 0 0.09269,-0.53458 l -0.06031,0.06492 a 0.22877527,0.3519272 42.86531 0 1 -0.07877,0.4065 0.22877527,0.3519272 42.86531 0 1 -0.407145,0.10236 0.22877527,0.3519272 42.86531 0 1 0.07162,-0.41354 0.22877527,0.3519272 42.86531 0 1 0.407117,-0.102512 l -0.239356,0.258102 0.239395,-0.257933 a 0.22877527,0.3519272 42.86531 0 1 0.0071,0.0068 l 0.06027,-0.06508 a 0.29578864,0.45501542 42.86531 0 0 -0.239396,-0.0455 z" />
    <path
       style="opacity:1;fill:#f2f2f2;fill-opacity:1;fill-rule:evenodd;stroke:#000000;stroke-width:0;stroke-miterlimit:4;stroke-dasharray:none"
       id="path2764-3"
       sodipodi:type="arc"
       sodipodi:cx="9.2945423"
       sodipodi:cy="59.356136"
       sodipodi:rx="0.35037884"
       sodipodi:ry="0.25762931"
       sodipodi:start="0"
       sodipodi:end="6.2826792"
       sodipodi:arc-type="slice"
       d="m 9.6449212,59.356136 a 0.35037884,0.25762931 0 0 1 -0.3503346,0.25763 0.35037884,0.25762931 0 0 1 -0.3504231,-0.257564 0.35037884,0.25762931 0 0 1 0.3502458,-0.257695 0.35037884,0.25762931 0 0 1 0.3505118,0.257499 l -0.3503788,1.3e-4 z"
       transform="rotate(-43.583498)" />
    <path
       style="fill:#000000;fill-opacity:1;fill-rule:evenodd;stroke:#000000;stroke-width:0.0202204;stroke-miterlimit:4;stroke-dasharray:none"
       id="path2789"
       sodipodi:type="arc"
       sodipodi:cx="47.638241"
       sodipodi:cy="36.582859"
       sodipodi:rx="0.077898413"
       sodipodi:ry="0.085774839"
       sodipodi:start="0"
       sodipodi:end="6.2826792"
       sodipodi:arc-type="slice"
       d="m 47.716139,36.582859 a 0.07789841,0.08577484 0 0 1 -0.07789,0.08577 0.07789841,0.08577484 0 0 1 -0.07791,-0.08575 0.07789841,0.08577484 0 0 1 0.07787,-0.0858 0.07789841,0.08577484 0 0 1 0.07793,0.08573 l -0.0779,4.3e-5 z" />
    <path
       style="fill:#f33a07;fill-opacity:1;stroke:#000000;stroke-width:0;stroke-linecap:butt;stroke-linejoin:miter;stroke-miterlimit:4;stroke-dasharray:none;stroke-opacity:1"
       d="m 47.889435,34.514052 c -1.671621,0.805513 -2.150753,1.758564 -2.511792,2.698996 0.284984,0.116229 0.545458,-0.0309 0.903856,0.874454 -0.01416,0.107788 0.116753,0.215558 0.235145,0.323329 0.1321,-0.747759 -0.10474,-1.456012 0.514393,-2.255954 0.492655,-0.259266 0.986796,-0.508176 1.441352,-1.034164 -0.09394,-0.139831 -0.317747,-0.32689 -0.582954,-0.606661 z"
       id="path1741"
       sodipodi:nodetypes="ccccccc" />
  </g>
  <g
     inkscape:groupmode="layer"
     id="layer4"
     inkscape:label="neck"
     style="display:inline;opacity:1">
    <path
       style="fill:#f9f9f9;fill-opacity:1;stroke:#000000;stroke-width:0;stroke-linecap:butt;stroke-linejoin:miter;stroke-miterlimit:4;stroke-dasharray:none;stroke-opacity:1"
       d="m 47.935472,34.533138 c 0.04709,-0.104217 0.04756,-0.218824 0.332687,-0.27003 0.89182,4.98e-4 1.135246,0.263614 1.548212,0.458027 1.588761,0.507661 2.100414,1.987645 2.066068,3.960493 -0.196425,1.577498 -0.470106,3.019657 -0.823164,4.322745 -0.05393,0.795248 -0.189801,1.6844 1.049113,0.998178 2.497458,-2.373313 5.797151,-2.737961 9.624059,-1.782631 0.589052,0.05765 1.18463,0.04364 1.787493,-0.05107 1.228733,0.109205 1.15058,0.323716 1.423536,0.509932 1.956591,0.429824 3.332079,0.886373 4.707027,1.342964 0.812929,0.395316 1.389877,0.790505 2.067399,1.185753 -0.848569,-0.388427 -1.953459,-0.848184 -2.545452,-1.165215 -0.845887,-0.256329 -1.644895,-0.541832 -2.701675,-0.66646 l -0.654701,-0.125033 0.704556,0.271803 c 0.121,0.151699 0.05082,0.181615 0.02928,0.242511 0.352131,0.120195 0.488178,0.240299 0.639078,0.360394 0.139025,0.760251 -0.01576,0.967806 -0.08143,1.344712 -0.443492,-0.191272 -0.764962,-0.382502 -1.381233,-0.573875 -0.570977,-0.210933 -1.446486,-0.422025 -2.329129,-0.633134 -0.471421,0.218943 -1.08694,0.120677 -1.646185,0.146161 -0.100706,0.280717 -0.247965,0.545108 -0.735218,0.690374 -1.340308,0.650794 -2.863743,0.821376 -4.614965,0.394497 -0.187186,0.618809 -0.344202,1.241179 -0.85332,1.821959 0.475964,0.403234 0.514522,0.724334 0.70517,1.073983 0.645845,0.637125 1.422919,1.230509 2.181454,1.830121 l -0.956249,0.415195 c -0.437427,0.546898 -0.685827,0.464991 -1.018774,0.664536 l -0.560681,-0.977101 c -0.252223,0.393155 -0.591582,0.550974 -1.039467,0.415204 0.255606,0.68536 -0.129738,0.339417 -0.394973,0.186848 -0.348949,0.03807 -0.529723,-0.04989 -0.727418,-0.125091 -0.857514,-0.453376 -1.445204,-0.920839 -1.932242,-1.39358 -1.227371,-0.612966 -2.097108,-1.287158 -2.63861,-2.01735 -0.66133,-1.288999 -1.347961,-2.577973 -1.265911,-3.866567 0.254754,-1.446058 0.12144,-2.781721 0.126795,-4.15683 0.292537,-0.25346 0.5841,-0.508734 0.494368,-1.470252 -0.326843,-0.295843 -0.176642,-0.755903 0.05827,-1.245146 0.499607,-1.279224 -0.198133,-1.59688 -0.643744,-2.117018 z"
       id="path2792"
       sodipodi:nodetypes="ccccccccccccccccccccccccccccccccccccccc" />
    <path
       style="fill:#b3b3b3;stroke:#000000;stroke-width:0;stroke-linecap:butt;stroke-linejoin:miter;stroke-miterlimit:4;stroke-dasharray:none;stroke-opacity:1"
       d="m 48.058587,39.488932 c 1.352564,-0.254776 1.614292,-1.600366 2.005695,-2.816289 -0.08528,1.332016 -0.592065,2.540063 -2.005695,3.481389 -0.01649,-0.205251 -0.02258,-0.420859 0,-0.6651 z"
       id="path1728"
       sodipodi:nodetypes="cccc" />
    <path
       style="fill:#887e7f;fill-opacity:1;stroke:#000000;stroke-width:0;stroke-linecap:butt;stroke-linejoin:miter;stroke-miterlimit:4;stroke-dasharray:none;stroke-opacity:1"
       d="m 48.067334,41.091289 c -0.01473,0.883014 -0.04284,1.751272 -0.15431,2.527857 -0.111673,1.302184 0.682618,2.503723 1.227179,3.732958 0.318331,0.517183 0.845235,0.920501 1.374153,1.322764 -0.299401,-0.459857 -0.710581,-0.982275 -0.940097,-1.540871 -0.879937,-2.141742 -1.082682,-4.817018 -0.760451,-6.55312 0.08655,-0.46635 -0.633663,1.019602 -0.746474,0.510412 z"
       id="path1730"
       sodipodi:nodetypes="ccccssc" />
    <path
       style="fill:#9e9690;fill-opacity:1;stroke:#000000;stroke-width:0;stroke-linecap:butt;stroke-linejoin:miter;stroke-miterlimit:4;stroke-dasharray:none;stroke-opacity:1"
       d="m 49.669297,39.658349 c 0,0 0.101909,0.34996 0.19105,0.507037 0.06798,0.119791 0.257196,0.323336 0.257196,0.323336 0,0 -0.03943,-0.355413 -0.124922,-0.507036 -0.07487,-0.132766 -0.323324,-0.323337 -0.323324,-0.323337 z"
       id="path2155"
       sodipodi:nodetypes="cacac" />
    <path
       style="display:inline;opacity:1;fill:#9e9690;fill-opacity:1;stroke:#000000;stroke-width:0;stroke-linecap:butt;stroke-linejoin:miter;stroke-miterlimit:4;stroke-dasharray:none;stroke-opacity:1"
       d="m 50.14739,39.728775 c 0,0 0.101919,0.349952 0.19106,0.507045 0.06797,0.119774 0.257197,0.323329 0.257197,0.323329 0,0 -0.03943,-0.355431 -0.124927,-0.507046 -0.07487,-0.132765 -0.32333,-0.323328 -0.32333,-0.323328 z"
       id="path2155-1"
       sodipodi:nodetypes="cacac" />
    <path
       style="display:inline;opacity:1;fill:#9e9690;fill-opacity:1;stroke:#000000;stroke-width:0;stroke-linecap:butt;stroke-linejoin:miter;stroke-miterlimit:4;stroke-dasharray:none;stroke-opacity:1"
       d="m 50.113868,38.868401 c 0,0 0.101921,0.34996 0.191059,0.507045 0.06797,0.119775 0.257196,0.323328 0.257196,0.323328 0,0 -0.03943,-0.355421 -0.124923,-0.507044 -0.07487,-0.132766 -0.323332,-0.323329 -0.323332,-0.323329 z"
       id="path2155-1-0"
       sodipodi:nodetypes="cacac" />
    <path
       style="display:inline;opacity:1;fill:#9e9690;fill-opacity:1;stroke:#000000;stroke-width:0;stroke-linecap:butt;stroke-linejoin:miter;stroke-miterlimit:4;stroke-dasharray:none;stroke-opacity:1"
       d="m 49.621525,38.824303 c 0,0 0.101917,0.349961 0.19106,0.507046 0.06797,0.119774 0.257194,0.323336 0.257194,0.323336 0,0 -0.03941,-0.355413 -0.124923,-0.507053 -0.07487,-0.132757 -0.323331,-0.323329 -0.323331,-0.323329 z"
       id="path2155-1-5"
       sodipodi:nodetypes="cacac" />
    <path
       style="display:inline;opacity:1;fill:#9e9690;fill-opacity:1;stroke:#000000;stroke-width:0;stroke-linecap:butt;stroke-linejoin:miter;stroke-miterlimit:4;stroke-dasharray:none;stroke-opacity:1"
       d="m 50.018338,38.089477 c 0,0 0.10192,0.349944 0.191058,0.507037 0.06797,0.119774 0.257197,0.32332 0.257197,0.32332 0,0 -0.03943,-0.355422 -0.124923,-0.507029 -0.07487,-0.132765 -0.323332,-0.323328 -0.323332,-0.323328 z"
       id="path2155-1-5-3"
       sodipodi:nodetypes="cacac" />
    <path
       style="display:inline;opacity:1;fill:#9e9690;fill-opacity:1;stroke:#000000;stroke-width:0;stroke-linecap:butt;stroke-linejoin:miter;stroke-miterlimit:4;stroke-dasharray:none;stroke-opacity:1"
       d="m 50.679697,38.625907 c 0,0 0.101916,0.349952 0.191054,0.507037 0.06798,0.119774 0.257198,0.323328 0.257198,0.323328 0,0 -0.03942,-0.355422 -0.124922,-0.507037 -0.07486,-0.132757 -0.32333,-0.323328 -0.32333,-0.323328 z"
       id="path2155-1-5-3-0"
       sodipodi:nodetypes="cacac" />
    <path
       style="display:inline;opacity:1;fill:#9e9690;fill-opacity:1;stroke:#000000;stroke-width:0;stroke-linecap:butt;stroke-linejoin:miter;stroke-miterlimit:4;stroke-dasharray:none;stroke-opacity:1"
       d="m 49.099786,39.507705 c 0,0 0.101918,0.34996 0.191066,0.507054 0.06796,0.119765 0.257189,0.323327 0.257189,0.323327 0,0 -0.03943,-0.355421 -0.124925,-0.507044 -0.07486,-0.132765 -0.32333,-0.323337 -0.32333,-0.323337 z"
       id="path2155-1-5-3-0-6"
       sodipodi:nodetypes="cacac" />
    <path
       style="display:inline;opacity:1;fill:#9e9690;fill-opacity:1;stroke:#000000;stroke-width:0;stroke-linecap:butt;stroke-linejoin:miter;stroke-miterlimit:4;stroke-dasharray:none;stroke-opacity:1"
       d="m 49.66255,45.443511 c 0,0 0.19545,0.471972 0.319639,0.675678 0.09469,0.155321 0.317552,0.40542 0.317552,0.40542 0,0 -0.14466,-0.491378 -0.264077,-0.688086 -0.104567,-0.172245 -0.373114,-0.393012 -0.373114,-0.393012 z"
       id="path2155-1-5-3-0-6-1"
       sodipodi:nodetypes="cacac" />
    <path
       style="display:inline;opacity:1;fill:#9e9690;fill-opacity:1;stroke:#000000;stroke-width:0;stroke-linecap:butt;stroke-linejoin:miter;stroke-miterlimit:4;stroke-dasharray:none;stroke-opacity:1"
       d="m 49.002642,43.993798 c 0,0 0.195455,0.471971 0.31964,0.675669 0.09469,0.15532 0.317553,0.405437 0.317553,0.405437 0,0 -0.144659,-0.491387 -0.264077,-0.688095 -0.104568,-0.172253 -0.373116,-0.393011 -0.373116,-0.393011 z"
       id="path2155-1-5-3-0-6-1-9"
       sodipodi:nodetypes="cacac" />
    <path
       style="display:inline;opacity:1;fill:#9e9690;fill-opacity:1;stroke:#000000;stroke-width:0;stroke-linecap:butt;stroke-linejoin:miter;stroke-miterlimit:4;stroke-dasharray:none;stroke-opacity:1"
       d="m 50.280887,45.007044 c 0,0 0.195451,0.471963 0.319642,0.675669 0.09469,0.155321 0.317551,0.405429 0.317551,0.405429 0,0 -0.144658,-0.491379 -0.264077,-0.688087 -0.104569,-0.172262 -0.373116,-0.393011 -0.373116,-0.393011 z"
       id="path2155-1-5-3-0-6-1-9-9"
       sodipodi:nodetypes="cacac" />
    <path
       style="display:inline;opacity:1;fill:#9e9690;fill-opacity:1;stroke:#000000;stroke-width:0;stroke-linecap:butt;stroke-linejoin:miter;stroke-miterlimit:4;stroke-dasharray:none;stroke-opacity:1"
       d="m 49.381959,46.020282 c 0,0 0.195458,0.471971 0.319648,0.675678 0.09469,0.155312 0.317543,0.405436 0.317543,0.405436 0,0 -0.144659,-0.491386 -0.264077,-0.688095 -0.104566,-0.172261 -0.373114,-0.393019 -0.373114,-0.393019 z"
       id="path2155-1-5-3-0-6-1-9-9-0"
       sodipodi:nodetypes="cacac" />
    <path
       style="display:inline;opacity:1;fill:#9e9690;fill-opacity:1;stroke:#000000;stroke-width:0;stroke-linecap:butt;stroke-linejoin:miter;stroke-miterlimit:4;stroke-dasharray:none;stroke-opacity:1"
       d="m 50.556281,46.332054 c 0,0 0.195452,0.471954 0.319641,0.67566 0.09469,0.155355 0.31755,0.405437 0.31755,0.405437 0,0 -0.144658,-0.491377 -0.264077,-0.688086 -0.104572,-0.172254 -0.373114,-0.393011 -0.373114,-0.393011 z"
       id="path2155-1-5-3-0-6-1-9-9-0-3"
       sodipodi:nodetypes="cacac" />
    <path
       style="display:inline;opacity:1;fill:#9e9690;fill-opacity:1;stroke:#000000;stroke-width:0;stroke-linecap:butt;stroke-linejoin:miter;stroke-miterlimit:4;stroke-dasharray:none;stroke-opacity:1"
       d="m 50.320685,47.406838 c 0,0 0.19545,0.471904 0.31964,0.675669 0.09469,0.155286 0.317551,0.405445 0.317551,0.405445 0,0 -0.144658,-0.491395 -0.264076,-0.688187 -0.104565,-0.172229 -0.373115,-0.392927 -0.373115,-0.392927 z"
       id="path2155-1-5-3-0-6-1-9-9-0-3-2"
       sodipodi:nodetypes="cacac" />
    <path
       style="display:inline;opacity:1;fill:#9e9690;fill-opacity:1;stroke:#000000;stroke-width:0;stroke-linecap:butt;stroke-linejoin:miter;stroke-miterlimit:4;stroke-dasharray:none;stroke-opacity:1"
       d="m 50.837152,37.514893 c 0,0 0.188947,0.311696 0.315676,0.440393 0.09663,0.09811 0.332056,0.245811 0.332056,0.245811 0,0 -0.129987,-0.333137 -0.25179,-0.457486 -0.106654,-0.108893 -0.395942,-0.228718 -0.395942,-0.228718 z"
       id="path2155-1-5-3-0-1"
       sodipodi:nodetypes="cacac" />
    <path
       style="display:inline;opacity:1;fill:#9e9690;fill-opacity:1;stroke:#000000;stroke-width:0;stroke-linecap:butt;stroke-linejoin:miter;stroke-miterlimit:4;stroke-dasharray:none;stroke-opacity:1"
       d="m 49.249892,35.369158 c 0,0 0.188948,0.311697 0.315686,0.440393 0.09662,0.09812 0.332049,0.245812 0.332049,0.245812 0,0 -0.129987,-0.333138 -0.251792,-0.457487 -0.106645,-0.108885 -0.395943,-0.228718 -0.395943,-0.228718 z"
       id="path2155-1-5-3-0-1-7"
       sodipodi:nodetypes="cacac" />
    <path
       style="display:inline;opacity:1;fill:#9e9690;fill-opacity:1;stroke:#000000;stroke-width:0;stroke-linecap:butt;stroke-linejoin:miter;stroke-miterlimit:4;stroke-dasharray:none;stroke-opacity:1"
       d="m 48.853086,35.868852 c 0,0 0.18894,0.311696 0.315671,0.440383 0.09663,0.09812 0.332056,0.24582 0.332056,0.24582 0,0 -0.129988,-0.333137 -0.25179,-0.457486 -0.10665,-0.108893 -0.395937,-0.228717 -0.395937,-0.228717 z"
       id="path2155-1-5-3-0-1-7-5"
       sodipodi:nodetypes="cacac" />
    <path
       style="display:inline;opacity:1;fill:#9e9690;fill-opacity:1;stroke:#000000;stroke-width:0;stroke-linecap:butt;stroke-linejoin:miter;stroke-miterlimit:4;stroke-dasharray:none;stroke-opacity:1"
       d="m 50.102311,35.920285 c 0,0 0.188947,0.311695 0.315677,0.440384 0.09663,0.09812 0.332055,0.245827 0.332055,0.245827 0,0 -0.129986,-0.333136 -0.251789,-0.457494 -0.106656,-0.108877 -0.395943,-0.228717 -0.395943,-0.228717 z"
       id="path2155-1-5-3-0-1-7-5-8"
       sodipodi:nodetypes="cacac" />
    <path
       style="fill:#868889;fill-opacity:1;stroke:#000000;stroke-width:0;stroke-linecap:butt;stroke-linejoin:miter;stroke-miterlimit:4;stroke-dasharray:none;stroke-opacity:1"
       d="m 51.160735,44.150731 c 0.363164,0.230245 0.642539,-0.03511 0.947653,-0.14818 1.735398,-1.706996 2.987042,-1.608216 4.411663,-2.155324 2.559334,-0.331457 3.36905,0.133584 4.860555,0.288254 1.294433,0.183093 2.520677,-0.0845 3.021246,0.181312 0.490809,0.218411 0.381404,0.247728 0.541624,0.361998 -14.759167,0.546348 -8.895689,1.413247 -13.299573,2.120563 -0.34771,-0.02 -0.61459,-0.835886 -0.483168,-0.648623 z"
       id="path2397"
       sodipodi:nodetypes="cccccccc" />
  </g>
  <g
     inkscape:groupmode="layer"
     id="layer5"
     inkscape:label="body"
     style="display:inline;opacity:1">
    <path
       style="fill:#ffaaaa;stroke:#000000;stroke-width:0;stroke-linecap:butt;stroke-linejoin:miter;stroke-miterlimit:4;stroke-dasharray:none;stroke-opacity:1"
       d="m 56.469416,51.284513 c 0.725251,0.59876 1.354613,1.194532 1.639811,1.779474 0.421156,0.181582 0.786305,0.105264 1.138983,-0.02887 0.961186,0.119369 0.867709,0.714465 1.020844,1.198229 0.275182,0.111604 0.574067,0.128714 0.918529,-0.03621 0.254218,0.131684 0.386332,-0.20558 0.566015,-0.359795 -0.04412,0.626338 0.346306,1.073113 0.689366,1.539454 0.382069,-0.234822 0.595251,-0.57526 0.644762,-1.018159 0.437631,0.03832 0.835508,0.03149 0.877736,-0.380587 0.28513,-0.430085 0.97315,-0.408526 1.587409,-0.469472 0.782746,0.24679 0.897169,0.529297 1.204833,0.801571 0.08289,-0.336893 0.469975,0.132917 0.771316,0.375167 0.696886,0.290955 0.430693,-0.05487 0.448364,-0.212857 0.818496,0.307922 1.514818,0.112456 2.211982,-0.07977 -0.810931,-0.547851 -0.216445,-0.340346 0.242523,-0.205615 1.333638,0.683689 1.022953,0.330546 0.632093,-0.07319 2.468241,1.252077 1.298669,0.491209 0.617171,2.03e-4 0.238532,-0.114592 0.542274,-0.112954 1.02869,0.213598 1.629501,0.765122 1.487444,0.64041 1.219873,0.05208 2.016,1.168617 0.932062,0.292703 1.006566,0.169544 0.107966,-0.131938 0.23187,-0.03782 0.352723,0.01478 0.885527,0.67989 0.48858,0.18462 0.463024,0.02963 0.814723,0.590159 0.421994,0.05073 0.426183,-0.11741 1.118224,0.638342 0.839547,0.234745 0.580613,-0.154037 0.107705,-0.145394 0.180477,-0.419948 0.418961,-0.08061 0.741738,0.320483 0.805131,0.109424 0.595324,-0.315689 -0.2242,-0.462121 -0.02296,-0.807962 0.287164,-1.124131 1.484297,0.690162 1.980647,0.890543 1.366927,-0.168371 0.215954,-0.03832 0.183988,-0.216596 -0.359801,-0.683528 0.512059,-0.17796 -0.604352,-0.571504 -1.263465,-0.904497 -0.04734,-0.13252 -0.0019,-0.239692 0.103112,-0.330655 -0.443834,-0.816209 -0.870289,-1.642497 -1.799263,-2.175988 -0.154629,-0.351075 -0.589293,-0.595452 -1.028362,-0.838267 0.370378,-1.244083 -1.772237,-1.466486 -3.20292,-1.978335 -0.02706,-0.173376 -0.09914,-0.346769 -0.236555,-0.520196 -1.644813,-0.663176 -2.763681,-1.704076 -5.766735,-1.920259 0.662656,0.198363 0.789756,0.34948 0.664939,0.47837 l 0.680451,0.348483 c 0.0888,0.656837 -0.0056,1.038765 -0.135793,1.366516 -1.01068,-0.476968 -2.113833,-0.923937 -3.673037,-1.222937 -0.333667,0.165956 -0.938943,0.191331 -1.673149,0.14985 -0.06759,0.393561 -0.326111,0.63045 -0.774642,0.711478 -1.676278,0.800263 -3.136738,0.68238 -4.551984,0.371832 -0.197343,0.683815 -0.423801,1.343428 -0.85301,1.833785 0.331331,0.363898 0.495014,0.727761 0.695662,1.09159 0.776182,0.831294 1.451924,1.239888 2.165855,1.809289 -0.262064,0.09906 -0.614188,0.270013 -0.940646,0.420437 -0.138887,0.313334 -0.607097,0.461843 -1.008442,0.643855 z"
       id="path2795"
       sodipodi:nodetypes="cccccccccccccccccccccccccccccccccccccccccccccccc" />
    <path
       style="fill:#000000;stroke:#000000;stroke-width:0.0823024px;stroke-linecap:butt;stroke-linejoin:miter;stroke-opacity:1"
       d="m 70.6564,46.103969 c 1.05158,2.179737 -0.03641,2.132052 -0.86828,2.351104 -3.1051,0.738557 -6.127635,1.147218 -9.156865,1.582639 1.913433,1.276836 4.280311,3.461426 4.452506,1.251461 1.220641,0.547893 2.530423,1.695533 3.380424,-0.248183 3.375343,0.405673 2.754679,1.079274 3.482316,1.662502 -0.682938,0.06634 -1.395782,0.102663 -2.233915,0.01334 -2.615152,0.879637 -3.502568,-0.08978 -5.143852,-0.252489 -0.866368,-0.25578 -1.204819,-0.01367 -1.411052,0.352072 -0.873944,0.580932 -1.870541,0.965299 -2.939983,1.23305 -0.20408,-0.358124 0.09686,-0.73567 -1.013547,-1.058661 -0.431761,0.315629 -0.757313,0.128291 -1.117022,0.102259 -0.329503,-0.630289 -0.858326,-1.243383 -1.638487,-1.834867 0.35921,-0.112894 0.720033,-0.196674 1.060348,-0.612528 0.387537,-0.194581 0.651395,-0.306817 0.925104,-0.425646 -0.83197,-0.623932 -1.802929,-1.247965 -2.212549,-1.87167 -0.180717,-0.3465 -0.351116,-0.693007 -0.664554,-1.039566 0.435241,-0.444681 0.623079,-1.159695 0.853005,-1.82862 1.568582,0.429318 3.091264,0.324958 4.56245,-0.382223 0.374767,-0.124121 0.713875,-0.281831 0.779767,-0.695886 0.742254,0.0033 1.475933,0.0043 1.662827,-0.165441 1.565141,0.319479 2.631358,0.786546 3.678204,1.259302 0.119171,-0.392724 0.234277,-0.788927 0.104566,-1.392507 1.284355,0.666848 2.44856,1.333629 3.458589,2.000325 z"
       id="path2797"
       sodipodi:nodetypes="cccccccccccccccccccccccc" />
    <path
       style="opacity:1;fill:none;stroke:#000000;stroke-width:0.0823024px;stroke-linecap:butt;stroke-linejoin:miter;stroke-opacity:1"
       d="m 59.433135,50.566216 c 0.590957,0.189701 1.18792,0.528646 1.741705,-0.182865 l 1.006355,0.838216 -0.925702,-0.559003 c -0.736255,0.770829 -1.233417,0.421822 -1.719517,0.02136 l -0.07345,-0.09565 z"
       id="path2836"
       sodipodi:nodetypes="ccccccc" />
    <path
       style="opacity:1;fill:#b3b3b3;stroke:#000000;stroke-width:0;stroke-linecap:butt;stroke-linejoin:miter;stroke-miterlimit:4;stroke-dasharray:none;stroke-opacity:1"
       d="m 57.840347,48.424963 0.169379,0.499727 c -0.01065,0.35673 1.35109,0.179462 1.359516,-0.132293 0.0013,-0.04406 -0.02234,-0.433563 -0.02234,-0.433563 l -0.146924,0.411565 c -0.351914,0.09002 -0.691681,0.27712 -1.080264,0.07352 z"
       id="path208"
       sodipodi:nodetypes="ccscccc" />
    <path
       style="display:inline;opacity:1;fill:#b3b3b3;stroke:#000000;stroke-width:0;stroke-linecap:butt;stroke-linejoin:miter;stroke-miterlimit:4;stroke-dasharray:none;stroke-opacity:1"
       d="m 57.987991,49.454323 0.256133,0.461193 c 0.05294,0.352973 1.361423,-0.0655 1.313754,-0.373639 -0.0064,-0.04356 -0.09936,-0.422564 -0.09936,-0.422564 l -0.0709,0.431174 c -0.329987,0.151573 -0.630727,0.396633 -1.049514,0.265869 z"
       id="path208-3"
       sodipodi:nodetypes="ccscccc" />
    <path
       style="display:inline;opacity:1;fill:#b3b3b3;stroke:#000000;stroke-width:0;stroke-linecap:butt;stroke-linejoin:miter;stroke-miterlimit:4;stroke-dasharray:none;stroke-opacity:1"
       d="m 60.179578,49.426703 0.256228,0.461311 c 0.05299,0.352991 1.361342,-0.0655 1.313747,-0.373681 -0.0067,-0.04356 -0.09941,-0.42264 -0.09941,-0.42264 l -0.07081,0.431267 c -0.330106,0.151589 -0.630758,0.396599 -1.049644,0.265809 z"
       id="path208-3-7"
       sodipodi:nodetypes="ccscccc" />
    <path
       style="display:inline;opacity:1;fill:#b3b3b3;stroke:#000000;stroke-width:0;stroke-linecap:butt;stroke-linejoin:miter;stroke-miterlimit:4;stroke-dasharray:none;stroke-opacity:1"
       d="m 61.424937,48.9034 0.254028,0.679595 c 0.05262,0.520163 1.350203,-0.09656 1.302999,-0.550653 -0.0067,-0.06416 -0.09857,-0.622649 -0.09857,-0.622649 l -0.07025,0.635396 c -0.327431,0.223398 -0.625577,0.584401 -1.040927,0.391659 z"
       id="path208-3-7-9"
       sodipodi:nodetypes="ccscccc" />
    <path
       style="display:inline;opacity:1;fill:#b3b3b3;stroke:#000000;stroke-width:0;stroke-linecap:butt;stroke-linejoin:miter;stroke-miterlimit:4;stroke-dasharray:none;stroke-opacity:1"
       d="m 62.841203,48.210122 0.02569,1.028838 c -0.113909,0.723625 1.298105,0.477096 1.396174,-0.155143 0.01403,-0.08945 0.102834,-0.882338 0.102834,-0.882338 l -0.265387,0.823469 c -0.377364,0.153547 -0.770744,0.50517 -1.100236,0.05909 z"
       id="path208-3-7-9-3"
       sodipodi:nodetypes="ccscccc" />
    <path
       style="display:inline;opacity:1;fill:#b3b3b3;stroke:#000000;stroke-width:0;stroke-linecap:butt;stroke-linejoin:miter;stroke-miterlimit:4;stroke-dasharray:none;stroke-opacity:1"
       d="m 64.163554,48.019383 0.02569,1.028888 c -0.113779,0.723632 1.298111,0.477069 1.396204,-0.155253 0.01402,-0.08937 0.102878,-0.882237 0.102878,-0.882237 l -0.265392,0.823341 c -0.377446,0.153582 -0.770733,0.505324 -1.100299,0.05909 z"
       id="path208-3-7-9-3-5"
       sodipodi:nodetypes="ccscccc" />
    <path
       style="display:inline;opacity:1;fill:#b3b3b3;stroke:#000000;stroke-width:0;stroke-linecap:butt;stroke-linejoin:miter;stroke-miterlimit:4;stroke-dasharray:none;stroke-opacity:1"
       d="m 65.504893,47.698216 0.02563,1.02887 c -0.113928,0.723617 1.298099,0.47707 1.396223,-0.155143 0.01365,-0.08937 0.102729,-0.882337 0.102729,-0.882337 l -0.265263,0.823442 c -0.377439,0.153582 -0.770738,0.505307 -1.100304,0.05909 z"
       id="path208-3-7-9-3-5-1"
       sodipodi:nodetypes="ccscccc" />
    <path
       style="display:inline;opacity:1;fill:#b3b3b3;stroke:#000000;stroke-width:0;stroke-linecap:butt;stroke-linejoin:miter;stroke-miterlimit:4;stroke-dasharray:none;stroke-opacity:1"
       d="m 66.903293,47.388267 0.02574,1.028913 c -0.113884,0.723599 1.298105,0.477061 1.396229,-0.155253 0.01353,-0.0894 0.102741,-0.882253 0.102741,-0.882253 l -0.265226,0.823459 c -0.377569,0.153455 -0.770763,0.505189 -1.100359,0.059 z"
       id="path208-3-7-9-3-5-1-5"
       sodipodi:nodetypes="ccscccc" />
    <path
       style="display:inline;opacity:1;fill:#b3b3b3;stroke:#000000;stroke-width:0;stroke-linecap:butt;stroke-linejoin:miter;stroke-miterlimit:4;stroke-dasharray:none;stroke-opacity:1"
       d="m 68.139906,46.997965 0.02569,1.028862 c -0.113946,0.723609 1.298092,0.477087 1.396192,-0.155143 0.01359,-0.08938 0.102803,-0.882337 0.102803,-0.882337 l -0.265404,0.823468 c -0.377391,0.153548 -0.770721,0.505188 -1.100206,0.05909 z"
       id="path208-3-7-9-3-5-1-5-2"
       sodipodi:nodetypes="ccscccc" />
    <path
       style="display:inline;opacity:1;fill:#b3b3b3;stroke:#000000;stroke-width:0;stroke-linecap:butt;stroke-linejoin:miter;stroke-miterlimit:4;stroke-dasharray:none;stroke-opacity:1"
       d="m 59.610647,48.62839 0.276549,0.449434 c 0.06861,0.350298 1.357029,-0.126224 1.295803,-0.431875 -0.0086,-0.04322 -0.118135,-0.417762 -0.118135,-0.417762 l -0.05156,0.433876 c -0.322946,0.166252 -0.612474,0.424422 -1.036695,0.312388 z"
       id="path208-3-0"
       sodipodi:nodetypes="ccscccc" />
    <path
       style="display:inline;opacity:1;fill:#b3b3b3;stroke:#000000;stroke-width:0;stroke-linecap:butt;stroke-linejoin:miter;stroke-miterlimit:4;stroke-dasharray:none;stroke-opacity:1"
       d="m 60.689292,48.281266 0.257004,0.460753 c 0.05354,0.352856 1.361205,-0.06795 1.313101,-0.375977 -0.0067,-0.04356 -0.100153,-0.422404 -0.100153,-0.422404 l -0.07003,0.431293 c -0.329883,0.15229 -0.630113,0.397755 -1.049118,0.2677 z"
       id="path208-3-7-5"
       sodipodi:nodetypes="ccscccc" />
    <path
       style="display:inline;opacity:1;fill:#b3b3b3;stroke:#000000;stroke-width:0;stroke-linecap:butt;stroke-linejoin:miter;stroke-miterlimit:4;stroke-dasharray:none;stroke-opacity:1"
       d="m 61.783982,47.951843 0.255223,0.679215 c 0.05342,0.519961 1.349913,-0.09894 1.301927,-0.552957 -0.0067,-0.06416 -0.09969,-0.622515 -0.09969,-0.622515 l -0.06913,0.635531 c -0.32691,0.223949 -0.624566,0.585457 -1.040225,0.393467 z"
       id="path208-3-7-9-8"
       sodipodi:nodetypes="ccscccc" />
    <path
       style="display:inline;opacity:1;fill:#b3b3b3;stroke:#000000;stroke-width:0;stroke-linecap:butt;stroke-linejoin:miter;stroke-miterlimit:4;stroke-dasharray:none;stroke-opacity:1"
       d="m 63.070937,47.103482 0.02749,1.028896 c -0.112612,0.723801 1.298893,0.474808 1.395876,-0.157726 0.01402,-0.08939 0.10127,-0.882423 0.10127,-0.882423 l -0.263866,0.823908 c -0.377123,0.154222 -0.769907,0.506615 -1.100143,0.06103 z"
       id="path208-3-7-9-3-1"
       sodipodi:nodetypes="ccscccc" />
    <path
       style="display:inline;opacity:1;fill:#b3b3b3;stroke:#000000;stroke-width:0;stroke-linecap:butt;stroke-linejoin:miter;stroke-miterlimit:4;stroke-dasharray:none;stroke-opacity:1"
       d="m 64.24172,46.809875 0.02742,1.028897 c -0.112588,0.723801 1.298929,0.474791 1.395932,-0.157684 0.01378,-0.08942 0.101264,-0.882448 0.101264,-0.882448 l -0.263897,0.823924 c -0.377112,0.154189 -0.769877,0.506589 -1.100138,0.06103 z"
       id="path208-3-7-9-3-5-0"
       sodipodi:nodetypes="ccscccc" />
    <path
       style="display:inline;opacity:1;fill:#b3b3b3;stroke:#000000;stroke-width:0;stroke-linecap:butt;stroke-linejoin:miter;stroke-miterlimit:4;stroke-dasharray:none;stroke-opacity:1"
       d="m 64.814483,46.722744 0.02749,1.028863 c -0.112594,0.723759 1.298998,0.474774 1.395925,-0.157625 0.01377,-0.0894 0.101351,-0.88249 0.101351,-0.88249 l -0.26394,0.823898 c -0.377218,0.154181 -0.769821,0.506582 -1.100218,0.06103 z"
       id="path208-3-7-9-3-5-1-1"
       sodipodi:nodetypes="ccscccc" />
    <path
       style="display:inline;opacity:1;fill:#b3b3b3;stroke:#000000;stroke-width:0;stroke-linecap:butt;stroke-linejoin:miter;stroke-miterlimit:4;stroke-dasharray:none;stroke-opacity:1"
       d="m 65.925956,46.285474 0.02749,1.028889 c -0.112599,0.72381 1.299012,0.474816 1.395926,-0.157684 0.01377,-0.08941 0.101345,-0.882465 0.101345,-0.882465 l -0.263922,0.823915 c -0.377211,0.154215 -0.769821,0.506615 -1.100231,0.06095 z"
       id="path208-3-7-9-3-5-1-5-6"
       sodipodi:nodetypes="ccscccc" />
    <path
       style="display:inline;opacity:1;fill:#b3b3b3;stroke:#000000;stroke-width:0;stroke-linecap:butt;stroke-linejoin:miter;stroke-miterlimit:4;stroke-dasharray:none;stroke-opacity:1"
       d="m 67.278829,45.903412 0.02748,1.02888 c -0.112594,0.723784 1.298837,0.474799 1.395919,-0.157634 0.01346,-0.08945 0.10117,-0.882507 0.10117,-0.882507 l -0.263815,0.823899 c -0.377192,0.154197 -0.769933,0.506606 -1.100187,0.06103 z"
       id="path208-3-7-9-3-5-1-5-2-4"
       sodipodi:nodetypes="ccscccc" />
    <path
       style="display:inline;opacity:1;fill:#b3b3b3;stroke:#000000;stroke-width:0;stroke-linecap:butt;stroke-linejoin:miter;stroke-miterlimit:4;stroke-dasharray:none;stroke-opacity:1"
       d="m 68.605642,45.563006 0.02749,1.02888 c -0.112594,0.72376 1.298954,0.474774 1.39592,-0.157633 0.0134,-0.08945 0.101252,-0.882498 0.101252,-0.882498 l -0.263885,0.823898 c -0.377273,0.154207 -0.769859,0.506598 -1.100281,0.06103 z"
       id="path208-3-7-9-3-5-1-5-2-4-0"
       sodipodi:nodetypes="ccscccc" />
    <path
       style="display:inline;opacity:1;fill:#b3b3b3;stroke:#000000;stroke-width:0;stroke-linecap:butt;stroke-linejoin:miter;stroke-miterlimit:4;stroke-dasharray:none;stroke-opacity:1"
       d="m 59.671253,47.777657 0.301683,0.432854 c 0.08843,0.345816 1.347617,-0.203428 1.269037,-0.505044 -0.0108,-0.04272 -0.141755,-0.410384 -0.141755,-0.410384 l -0.02711,0.436121 c -0.313006,0.184452 -0.587246,0.458609 -1.017169,0.371022 z"
       id="path208-3-7-5-4"
       sodipodi:nodetypes="ccscccc" />
    <path
       style="display:inline;opacity:1;fill:#b3b3b3;stroke:#000000;stroke-width:0;stroke-linecap:butt;stroke-linejoin:miter;stroke-miterlimit:4;stroke-dasharray:none;stroke-opacity:1"
       d="m 60.676065,47.329017 0.321661,0.650312 c 0.10511,0.512143 1.333365,-0.233159 1.24039,-0.679992 -0.01327,-0.06322 -0.161361,-0.60948 -0.161361,-0.60948 l -0.005,0.639219 c -0.303029,0.255502 -0.562999,0.64485 -0.995777,0.495303 z"
       id="path208-3-7-9-8-6"
       sodipodi:nodetypes="ccscccc" />
    <path
       style="display:inline;opacity:1;fill:#b3b3b3;stroke:#000000;stroke-width:0;stroke-linecap:butt;stroke-linejoin:miter;stroke-miterlimit:4;stroke-dasharray:none;stroke-opacity:1"
       d="m 61.801814,46.540774 0.129593,1.021005 c -0.03971,0.731431 1.339811,0.342877 1.373311,-0.296123 0.0043,-0.09031 0.0126,-0.888154 0.0126,-0.888154 l -0.180391,0.846092 c -0.3599,0.191043 -0.715462,0.580855 -1.088602,0.170531 z"
       id="path208-3-7-9-3-1-3"
       sodipodi:nodetypes="ccscccc" />
    <path
       style="display:inline;opacity:1;fill:#b3b3b3;stroke:#000000;stroke-width:0;stroke-linecap:butt;stroke-linejoin:miter;stroke-miterlimit:4;stroke-dasharray:none;stroke-opacity:1"
       d="m 62.933035,46.235654 0.129718,1.021012 c -0.03983,0.731433 1.339781,0.342887 1.373167,-0.296088 0.0043,-0.09036 0.01278,-0.888196 0.01278,-0.888196 l -0.18036,0.846099 c -0.360023,0.191095 -0.715562,0.580857 -1.088677,0.170524 z"
       id="path208-3-7-9-3-5-0-6"
       sodipodi:nodetypes="ccscccc" />
    <path
       style="display:inline;opacity:1;fill:#b3b3b3;stroke:#000000;stroke-width:0;stroke-linecap:butt;stroke-linejoin:miter;stroke-miterlimit:4;stroke-dasharray:none;stroke-opacity:1"
       d="m 65.034894,45.748978 0.129661,1.021021 c -0.03971,0.731423 1.339831,0.342852 1.373317,-0.296123 0.0043,-0.09034 0.0126,-0.888188 0.0126,-0.888188 l -0.180391,0.846134 c -0.359924,0.191044 -0.715493,0.580873 -1.088596,0.170473 z"
       id="path208-3-7-9-3-5-1-5-6-8"
       sodipodi:nodetypes="ccscccc" />
    <path
       style="display:inline;opacity:1;fill:#b3b3b3;stroke:#000000;stroke-width:0;stroke-linecap:butt;stroke-linejoin:miter;stroke-miterlimit:4;stroke-dasharray:none;stroke-opacity:1"
       d="m 66.13959,45.416702 0.129719,1.021045 c -0.03977,0.731408 1.339781,0.342837 1.373198,-0.296121 0.0043,-0.09036 0.01303,-0.888188 0.01303,-0.888188 l -0.180347,0.846116 c -0.360012,0.191062 -0.715575,0.580865 -1.088709,0.170481 z"
       id="path208-3-7-9-3-5-1-5-2-4-1"
       sodipodi:nodetypes="ccscccc" />
    <path
       style="display:inline;opacity:1;fill:#b3b3b3;stroke:#000000;stroke-width:0;stroke-linecap:butt;stroke-linejoin:miter;stroke-miterlimit:4;stroke-dasharray:none;stroke-opacity:1"
       d="m 66.129856,45.09567 0.129681,1.021029 c -0.03989,0.731407 1.33983,0.342844 1.373173,-0.296105 0.0043,-0.09036 0.01253,-0.888197 0.01253,-0.888197 l -0.180348,0.846125 c -0.359887,0.191061 -0.715462,0.580857 -1.088621,0.17049 z"
       id="path208-3-7-9-3-5-1-5-2-4-0-6"
       sodipodi:nodetypes="ccscccc" />
    <path
       style="display:inline;opacity:1;fill:#b3b3b3;stroke:#000000;stroke-width:0.0823024px;stroke-linecap:butt;stroke-linejoin:miter;stroke-opacity:1"
       d="m 57.705346,47.156806 0.257018,0.460811 c 0.05358,0.352874 1.361269,-0.06795 1.313109,-0.376002 -0.0065,-0.04364 -0.10016,-0.422395 -0.10016,-0.422395 l -0.07003,0.431284 c -0.32982,0.152189 -0.630119,0.397722 -1.049094,0.267649 z"
       id="path208-3-7-5-1"
       sodipodi:nodetypes="ccscccc" />
    <path
       style="display:inline;opacity:1;fill:#b3b3b3;stroke:#000000;stroke-width:0;stroke-linecap:butt;stroke-linejoin:miter;stroke-miterlimit:4;stroke-dasharray:none;stroke-opacity:1"
       d="m 58.770672,46.812703 0.255192,0.679248 c 0.05341,0.519978 1.349976,-0.09902 1.301934,-0.552941 -0.0067,-0.06424 -0.09959,-0.622505 -0.09959,-0.622505 l -0.06923,0.635455 c -0.32691,0.224024 -0.624448,0.585532 -1.040213,0.393509 z"
       id="path208-3-7-9-8-9"
       sodipodi:nodetypes="ccscccc" />
    <path
       style="display:inline;opacity:1;fill:#b3b3b3;stroke:#000000;stroke-width:0;stroke-linecap:butt;stroke-linejoin:miter;stroke-miterlimit:4;stroke-dasharray:none;stroke-opacity:1"
       d="m 59.969374,46.140723 0.02749,1.028897 c -0.112594,0.723742 1.298949,0.474756 1.395925,-0.157651 0.0134,-0.08946 0.10124,-0.882507 0.10124,-0.882507 l -0.263873,0.823924 c -0.377272,0.154198 -0.769876,0.506581 -1.100255,0.06103 z"
       id="path208-3-7-9-3-1-8"
       sodipodi:nodetypes="ccscccc" />
    <path
       style="display:inline;opacity:1;fill:#b3b3b3;stroke:#000000;stroke-width:0;stroke-linecap:butt;stroke-linejoin:miter;stroke-miterlimit:4;stroke-dasharray:none;stroke-opacity:1"
       d="m 61.125439,45.950008 0.02743,1.028854 c -0.112588,0.723827 1.298943,0.474842 1.395938,-0.157624 0.01334,-0.08944 0.101277,-0.882491 0.101277,-0.882491 l -0.263898,0.823899 c -0.377254,0.154215 -0.769895,0.506556 -1.100186,0.06103 z"
       id="path208-3-7-9-3-5-0-8"
       sodipodi:nodetypes="ccscccc" />
    <path
       style="display:inline;opacity:1;fill:#b3b3b3;stroke:#000000;stroke-width:0;stroke-linecap:butt;stroke-linejoin:miter;stroke-miterlimit:4;stroke-dasharray:none;stroke-opacity:1"
       d="m 62.15389,45.833475 0.02748,1.028872 c -0.112593,0.723759 1.298936,0.474765 1.395926,-0.157625 0.01334,-0.08944 0.101283,-0.882507 0.101283,-0.882507 l -0.263892,0.823907 c -0.377241,0.154206 -0.769894,0.506573 -1.100199,0.06103 z"
       id="path208-3-7-9-3-5-1-1-7"
       sodipodi:nodetypes="ccscccc" />
    <path
       style="display:inline;opacity:1;fill:#b3b3b3;stroke:#000000;stroke-width:0;stroke-linecap:butt;stroke-linejoin:miter;stroke-miterlimit:4;stroke-dasharray:none;stroke-opacity:1"
       d="m 63.632788,45.8224 0.02749,1.028872 c -0.112593,0.723835 1.298936,0.474841 1.395926,-0.157625 0.0134,-0.08944 0.101282,-0.882499 0.101282,-0.882499 l -0.263901,0.823899 c -0.377235,0.154206 -0.769888,0.506573 -1.100186,0.06103 z"
       id="path208-3-7-9-3-5-1-5-6-9"
       sodipodi:nodetypes="ccscccc" />
    <path
       style="display:inline;opacity:1;fill:#b3b3b3;stroke:#000000;stroke-width:0;stroke-linecap:butt;stroke-linejoin:miter;stroke-miterlimit:4;stroke-dasharray:none;stroke-opacity:1"
       d="m 64.930998,45.423278 0.02749,1.02887 c -0.112581,0.723794 1.298942,0.4748 1.395932,-0.157633 0.01327,-0.08943 0.1013,-0.882499 0.1013,-0.882499 l -0.263878,0.823917 c -0.37721,0.154197 -0.769963,0.50658 -1.100205,0.06103 z"
       id="path208-3-7-9-3-5-1-5-2-4-0-4"
       sodipodi:nodetypes="ccscccc" />
    <path
       style="display:inline;opacity:1;fill:#b3b3b3;stroke:#000000;stroke-width:0;stroke-linecap:butt;stroke-linejoin:miter;stroke-miterlimit:4;stroke-dasharray:none;stroke-opacity:1"
       d="m 59.581784,45.552143 0.129594,1.021021 c -0.0397,0.731382 1.339818,0.342844 1.373297,-0.296105 0.0043,-0.09036 0.01253,-0.888188 0.01253,-0.888188 l -0.180416,0.846116 c -0.359881,0.191052 -0.715438,0.580848 -1.088578,0.170481 z"
       id="path208-3-7-9-3-5-0-6-4"
       sodipodi:nodetypes="ccscccc" />
    <path
       style="display:inline;opacity:1;fill:#b3b3b3;stroke:#000000;stroke-width:0;stroke-linecap:butt;stroke-linejoin:miter;stroke-miterlimit:4;stroke-dasharray:none;stroke-opacity:1"
       d="m 60.960902,45.24541 0.129649,1.021029 c -0.0399,0.731425 1.339825,0.342845 1.37323,-0.296104 0.0043,-0.09036 0.01241,-0.888197 0.01241,-0.888197 l -0.180372,0.846125 c -0.359844,0.191053 -0.715419,0.580856 -1.088591,0.170481 z"
       id="path208-3-7-9-3-5-1-1-1-8"
       sodipodi:nodetypes="ccscccc" />
    <path
       style="display:inline;opacity:1;fill:#b3b3b3;stroke:#000000;stroke-width:0;stroke-linecap:butt;stroke-linejoin:miter;stroke-miterlimit:4;stroke-dasharray:none;stroke-opacity:1"
       d="m 62.168551,44.933182 0.129687,1.021021 c -0.03978,0.731408 1.339824,0.342845 1.373236,-0.296105 0.0043,-0.09035 0.01284,-0.888196 0.01284,-0.888196 l -0.180322,0.846116 c -0.360017,0.19107 -0.715593,0.580873 -1.088634,0.170489 z"
       id="path208-3-7-9-3-5-1-5-6-8-7"
       sodipodi:nodetypes="ccscccc" />
    <path
       style="display:inline;opacity:1;fill:#b3b3b3;stroke:#000000;stroke-width:0;stroke-linecap:butt;stroke-linejoin:miter;stroke-miterlimit:4;stroke-dasharray:none;stroke-opacity:1"
       d="m 63.405603,44.61562 0.129607,1.021029 c -0.03977,0.731399 1.339911,0.342828 1.373329,-0.296122 0.0043,-0.09034 0.01253,-0.88818 0.01253,-0.88818 l -0.180409,0.846109 c -0.359844,0.191061 -0.715395,0.580864 -1.088534,0.17049 z"
       id="path208-3-7-9-3-5-1-5-2-4-1-4"
       sodipodi:nodetypes="ccscccc" />
    <path
       style="display:inline;opacity:1;fill:#b3b3b3;stroke:#000000;stroke-width:0;stroke-linecap:butt;stroke-linejoin:miter;stroke-miterlimit:4;stroke-dasharray:none;stroke-opacity:1"
       d="m 56.689776,46.212297 0.178449,1.013651 c -0.0046,0.732455 1.354684,0.27821 1.357453,-0.361634 2e-4,-0.09048 -0.02984,-0.887775 -0.02984,-0.887775 l -0.139571,0.853782 c -0.350344,0.208111 -0.686904,0.614528 -1.079223,0.222471 z"
       id="path208-3-7-9-3-1-3-9-6"
       sodipodi:nodetypes="ccscccc" />
    <path
       style="display:inline;opacity:1;fill:#b3b3b3;stroke:#000000;stroke-width:0;stroke-linecap:butt;stroke-linejoin:miter;stroke-miterlimit:4;stroke-dasharray:none;stroke-opacity:1"
       d="m 55.963308,46.829501 0.178478,1.013609 c -0.0046,0.732488 1.354674,0.27826 1.357448,-0.361601 4.27e-4,-0.09041 -0.02984,-0.887766 -0.02984,-0.887766 l -0.139612,0.853841 c -0.350375,0.208087 -0.686831,0.614478 -1.079186,0.222479 z"
       id="path208-3-7-9-3-5-0-6-4-7"
       sodipodi:nodetypes="ccscccc" />
    <path
       style="display:inline;opacity:1;fill:#b3b3b3;stroke:#000000;stroke-width:0;stroke-linecap:butt;stroke-linejoin:miter;stroke-miterlimit:4;stroke-dasharray:none;stroke-opacity:1"
       d="m 58.064705,45.964788 0.178478,1.013627 c -0.0046,0.732446 1.354683,0.278201 1.357451,-0.36161 2.03e-4,-0.09047 -0.02984,-0.887766 -0.02984,-0.887766 l -0.139608,0.853798 c -0.350332,0.20807 -0.68686,0.614478 -1.079185,0.22248 z"
       id="path208-3-7-9-3-5-0-6-4-7-4"
       sodipodi:nodetypes="ccscccc" />
    <path
       style="display:inline;opacity:1;fill:#b3b3b3;stroke:#000000;stroke-width:0;stroke-linecap:butt;stroke-linejoin:miter;stroke-miterlimit:4;stroke-dasharray:none;stroke-opacity:1"
       d="m 56.469715,47.462846 0.17852,1.013635 c -0.0042,0.732487 1.354735,0.278225 1.357448,-0.361601 2e-4,-0.09054 -0.02984,-0.887826 -0.02984,-0.887826 l -0.139556,0.853781 c -0.350437,0.208113 -0.686826,0.614563 -1.079299,0.222455 z"
       id="path208-3-7-9-3-5-0-6-4-7-6"
       sodipodi:nodetypes="ccscccc" />
    <path
       style="display:inline;opacity:0.586294;fill:#ffffff;stroke:#000000;stroke-width:0;stroke-linecap:butt;stroke-linejoin:miter;stroke-miterlimit:4;stroke-dasharray:none;stroke-opacity:1"
       d="m 58.658067,49.471308 0.178404,1.013617 c -0.0043,0.73259 1.354722,0.278218 1.35747,-0.361601 1.99e-4,-0.09039 -0.02984,-0.887681 -0.02984,-0.887681 l -0.139558,0.853781 c -0.350326,0.208087 -0.686847,0.614419 -1.079172,0.222454 z"
       id="path208-3-7-9-3-5-0-6-4-7-6-7"
       sodipodi:nodetypes="ccscccc" />
    <path
       style="opacity:1;fill:#b3b3b3;stroke:#000000;stroke-width:0;stroke-linecap:butt;stroke-linejoin:miter;stroke-miterlimit:4;stroke-dasharray:none;stroke-opacity:1"
       d="m 58.722562,51.761178 c 0.29232,-0.184611 0.873021,0.188597 0.793547,-0.712769 0.528278,0.872336 -0.0032,0.918906 -0.793547,0.712769 z"
       id="path621"
       sodipodi:nodetypes="ccc" />
    <path
       style="display:inline;opacity:1;fill:#b3b3b3;stroke:#000000;stroke-width:0;stroke-linecap:butt;stroke-linejoin:miter;stroke-miterlimit:4;stroke-dasharray:none;stroke-opacity:1"
       d="m 58.249684,51.450504 c 0.292419,-0.184578 0.873095,0.188646 0.793678,-0.712736 0.528141,0.872276 -0.0032,0.918873 -0.793678,0.712736 z"
       id="path621-3"
       sodipodi:nodetypes="ccc" />
    <path
       style="display:inline;opacity:1;fill:#b3b3b3;stroke:#000000;stroke-width:0;stroke-linecap:butt;stroke-linejoin:miter;stroke-miterlimit:4;stroke-dasharray:none;stroke-opacity:1"
       d="m 57.860909,51.130746 c 0.292397,-0.184604 0.873026,0.188613 0.793627,-0.712702 0.528203,0.872276 -0.0032,0.918873 -0.793627,0.712702 z"
       id="path621-3-2"
       sodipodi:nodetypes="ccc" />
    <path
       style="display:inline;opacity:0.586294;fill:#b3b3b3;stroke:#000000;stroke-width:0;stroke-linecap:butt;stroke-linejoin:miter;stroke-miterlimit:4;stroke-dasharray:none;stroke-opacity:1"
       d="m 57.442084,50.829509 c 0.292319,-0.184697 0.872987,0.188495 0.793541,-0.712795 0.528285,0.872336 -0.0036,0.918873 -0.793541,0.712795 z"
       id="path621-3-2-0"
       sodipodi:nodetypes="ccc" />
    <path
       style="display:inline;opacity:1;fill:#b3b3b3;stroke:#000000;stroke-width:0;stroke-linecap:butt;stroke-linejoin:miter;stroke-miterlimit:4;stroke-dasharray:none;stroke-opacity:1"
       d="m 59.212981,52.211058 c 0.292432,-0.18467 0.873108,0.188478 0.793658,-0.712912 0.528173,0.872395 -0.0032,0.918898 -0.793658,0.712912 z"
       id="path621-3-2-0-2"
       sodipodi:nodetypes="ccc" />
    <path
       style="display:inline;opacity:1;fill:#b3b3b3;stroke:#000000;stroke-width:0;stroke-linecap:butt;stroke-linejoin:miter;stroke-miterlimit:4;stroke-dasharray:none;stroke-opacity:1"
       d="m 59.156141,52.652 c 0.505024,-0.271904 1.508122,0.277601 1.370871,-1.049823 0.912371,1.284737 -0.0061,1.353289 -1.370871,1.049823 z"
       id="path621-3-2-0-2-7"
       sodipodi:nodetypes="ccc" />
    <path
       style="display:inline;opacity:1;fill:#b3b3b3;stroke:#000000;stroke-width:0;stroke-linecap:butt;stroke-linejoin:miter;stroke-miterlimit:4;stroke-dasharray:none;stroke-opacity:1"
       d="m 59.619396,53.077721 c 0.505098,-0.271835 1.508097,0.277745 1.37094,-1.049662 0.912376,1.284635 -0.0062,1.353213 -1.37094,1.049662 z"
       id="path621-3-2-0-2-7-7"
       sodipodi:nodetypes="ccc" />
    <path
       style="display:inline;opacity:1;fill:#b3b3b3;stroke:#000000;stroke-width:0;stroke-linecap:butt;stroke-linejoin:miter;stroke-miterlimit:4;stroke-dasharray:none;stroke-opacity:1"
       d="m 57.907273,52.798516 c 0.505026,-0.271963 1.508012,0.277719 1.370831,-1.049663 0.912413,1.284534 -0.0062,1.353146 -1.370831,1.049663 z"
       id="path621-3-2-0-2-7-7-3"
       sodipodi:nodetypes="ccc" />
    <path
       style="display:inline;opacity:1;fill:#b3b3b3;stroke:#000000;stroke-width:0;stroke-linecap:butt;stroke-linejoin:miter;stroke-miterlimit:4;stroke-dasharray:none;stroke-opacity:1"
       d="m 57.466357,52.262086 c 0.505008,-0.271962 1.508091,0.27772 1.370834,-1.04967 0.912395,1.284542 -0.0062,1.353144 -1.370834,1.04967 z"
       id="path621-3-2-0-2-7-7-3-1"
       sodipodi:nodetypes="ccc" />
    <path
       style="display:inline;opacity:1;fill:#b3b3b3;stroke:#000000;stroke-width:0;stroke-linecap:butt;stroke-linejoin:miter;stroke-miterlimit:4;stroke-dasharray:none;stroke-opacity:1"
       d="m 56.988725,51.725649 c 0.504988,-0.271963 1.508036,0.277719 1.370823,-1.049663 0.912387,1.284534 -0.0062,1.353146 -1.370823,1.049663 z"
       id="path621-3-2-0-2-7-7-3-1-1"
       sodipodi:nodetypes="ccc" />
    <path
       style="display:inline;opacity:1;fill:#b3b3b3;stroke:#000000;stroke-width:0;stroke-linecap:butt;stroke-linejoin:miter;stroke-miterlimit:4;stroke-dasharray:none;stroke-opacity:1"
       d="m 56.562505,51.336216 c 0.505024,-0.271895 1.508077,0.277635 1.370822,-1.049763 0.912407,1.284677 -0.006,1.353229 -1.370822,1.049763 z"
       id="path621-3-2-0-2-7-7-3-1-1-6"
       sodipodi:nodetypes="ccc" />
    <path
       style="display:inline;opacity:1;fill:#b3b3b3;stroke:#000000;stroke-width:0;stroke-linecap:butt;stroke-linejoin:miter;stroke-miterlimit:4;stroke-dasharray:none;stroke-opacity:1"
       d="m 59.95673,53.494622 c 0.590454,-0.335906 1.763152,0.343047 1.602785,-1.296884 1.066657,1.587113 -0.0071,1.671729 -1.602785,1.296884 z"
       id="path621-3-2-0-2-7-7-6"
       sodipodi:nodetypes="ccc" />
  </g>
  <g
     inkscape:groupmode="layer"
     id="layer6"
     inkscape:label="tail"
     style="display:inline;opacity:1">
    <path
       style="opacity:0.51495;fill:#ff5c5c;fill-opacity:1;stroke:#000000;stroke-width:0;stroke-linecap:butt;stroke-linejoin:miter;stroke-miterlimit:4;stroke-dasharray:none;stroke-opacity:1"
       d="m 72.324381,47.355869 c 1.239814,0.779388 1.955574,1.471323 2.535779,2.140771 0.39104,0.06256 0.578416,3.580094 0.332562,3.803511 -1.935186,-1.41307 -2.806637,-3.227458 -3.616501,-5.050607 -0.132269,-0.376492 -0.06697,-0.720113 -0.04158,-1.070378 0.341771,-0.157008 0.553153,0.04432 0.789725,0.176703 z"
       id="path1612"
       sodipodi:nodetypes="cccccc" />
    <path
       style="opacity:0.51495;fill:#ff5c5c;fill-opacity:1;stroke:#000000;stroke-width:0;stroke-linecap:butt;stroke-linejoin:miter;stroke-miterlimit:4;stroke-dasharray:none;stroke-opacity:1"
       d="m 71.872785,46.70381 c 1.239727,0.779396 1.955419,1.471306 2.535616,2.140788 0.391053,0.06256 0.578393,3.580093 0.33257,3.803477 -1.935187,-1.413036 -2.806643,-3.227416 -3.616496,-5.050565 -0.132107,-0.376517 -0.06681,-0.720113 -0.04158,-1.070377 0.341759,-0.156992 0.553307,0.04432 0.789868,0.176677 z"
       id="path1612-8"
       sodipodi:nodetypes="cccccc" />
    <path
       style="opacity:0.51495;fill:#ffffff;stroke:#000000;stroke-width:0;stroke-linecap:butt;stroke-linejoin:miter;stroke-miterlimit:4;stroke-dasharray:none;stroke-opacity:1"
       d="m 71.565772,47.251948 c 0.264952,0.675711 0.414538,1.49728 0.816528,2.15009 0.652382,1.059767 1.562574,1.821048 2.519436,2.755038 -0.253604,-1.043263 -0.09582,-2.084366 -0.817081,-3.163598 -0.519939,-0.684794 -1.474301,-1.288611 -2.425306,-1.855885 z"
       id="path1629"
       sodipodi:nodetypes="cacccc" />
    <path
       style="opacity:0.51495;fill:#ff5c5c;fill-opacity:1;stroke:#000000;stroke-width:0;stroke-linecap:butt;stroke-linejoin:miter;stroke-miterlimit:4;stroke-dasharray:none;stroke-opacity:1"
       d="m 71.186465,48.482161 c 0.872393,0.679696 1.375946,1.283268 1.78423,1.86712 0.275139,0.05454 0.406992,3.122388 0.23401,3.317325 -1.361627,-1.232493 -1.974814,-2.814888 -2.544732,-4.404973 -0.093,-0.328367 -0.04697,-0.62806 -0.02916,-0.93356 0.240493,-0.136951 0.389265,0.03875 0.555677,0.154088 z"
       id="path1612-8-3"
       sodipodi:nodetypes="cccccc" />
    <path
       style="opacity:0.51495;fill:#ffffff;stroke:#000000;stroke-width:0;stroke-linecap:butt;stroke-linejoin:miter;stroke-miterlimit:4;stroke-dasharray:none;stroke-opacity:1"
       d="m 70.970472,48.960185 c 0.186441,0.589348 0.29177,1.305932 0.574509,1.875309 0.459036,0.924224 1.099479,1.588269 1.772783,2.402705 -0.178405,-0.909899 -0.06737,-1.817789 -0.574887,-2.75909 -0.365807,-0.597232 -1.037434,-1.123887 -1.706573,-1.618666 z"
       id="path1629-7"
       sodipodi:nodetypes="cacccc" />
    <path
       style="opacity:0.51495;fill:#ff5c5c;fill-opacity:1;stroke:#000000;stroke-width:0;stroke-linecap:butt;stroke-linejoin:miter;stroke-miterlimit:4;stroke-dasharray:none;stroke-opacity:1"
       d="m 74.279204,47.853468 c 1.056061,0.328089 1.740327,0.715167 2.328268,1.11737 0.276778,-0.04609 1.482652,2.777923 1.389603,3.021312 -1.709012,-0.672698 -2.841165,-1.936965 -3.935488,-3.223625 -0.202833,-0.274403 -0.265579,-0.570988 -0.356711,-0.863185 0.176619,-0.212966 0.3778,-0.101127 0.574347,-0.05183 z"
       id="path1612-8-3-4"
       sodipodi:nodetypes="cccccc" />
    <path
       style="opacity:0.51495;fill:#ffffff;stroke:#000000;stroke-width:0;stroke-linecap:butt;stroke-linejoin:miter;stroke-miterlimit:4;stroke-dasharray:none;stroke-opacity:1"
       d="m 74.328921,48.460071 c 0.382392,0.485586 0.733717,1.118956 1.199268,1.551954 0.75568,0.702757 1.589252,1.097997 2.506741,1.622541 -0.488093,-0.788444 -0.704599,-1.677097 -1.511542,-2.378689 -0.553233,-0.429723 -1.367397,-0.685563 -2.168097,-0.91228 z"
       id="path1629-7-9"
       sodipodi:nodetypes="cacccc" />
    <path
       style="opacity:0.51495;fill:#ff0000;fill-opacity:1;stroke:#000000;stroke-width:0;stroke-linecap:butt;stroke-linejoin:miter;stroke-miterlimit:4;stroke-dasharray:none;stroke-opacity:1"
       d="m 74.99159,49.45835 c 0.91799,0.616968 1.462555,1.183635 1.910814,1.737445 0.278292,0.0352 0.624852,3.086284 0.465861,3.292759 -1.444712,-1.13394 -2.167241,-2.669435 -2.847226,-4.215675 -0.115771,-0.321083 -0.09087,-0.623223 -0.09459,-0.929297 0.230287,-0.153379 0.391015,0.01106 0.565151,0.114768 z"
       id="path1612-8-3-4-3"
       sodipodi:nodetypes="cccccc" />
    <path
       style="opacity:0.51495;fill:#ffffff;fill-opacity:1;stroke:#000000;stroke-width:0;stroke-linecap:butt;stroke-linejoin:miter;stroke-miterlimit:4;stroke-dasharray:none;stroke-opacity:1"
       d="m 74.809736,49.950379 c 0.227222,0.574811 0.382508,1.282271 0.704455,1.830425 0.522781,0.8898 1.208102,1.507224 1.936917,2.272583 -0.24179,-0.895195 -0.194668,-1.808656 -0.766904,-2.712072 -0.406806,-0.570102 -1.113682,-1.048329 -1.815855,-1.494985 z"
       id="path1629-7-9-9"
       sodipodi:nodetypes="cacccc" />
    <path
       style="opacity:0.51495;fill:#ff5c5c;fill-opacity:1;stroke:#000000;stroke-width:0;stroke-linecap:butt;stroke-linejoin:miter;stroke-miterlimit:4;stroke-dasharray:none;stroke-opacity:1"
       d="m 76.461548,51.07776 1.432954,2.094327 -1.094913,-1.837154 1.344857,1.77105 -1.183118,-1.873857 1.396199,1.557848 c 0.105813,0.105879 0.424564,0.211548 0.323356,0.139551 -0.04417,-0.01486 -1.499188,-1.675367 -1.499188,-1.675367 l 1.440294,1.425589 c 0.239731,0.119739 0.422292,-0.09013 0.198427,-0.227781 -0.08896,-0.0547 -1.374172,-1.271289 -1.374172,-1.271289 l 1.602052,0.793628 C 79.537201,51.783716 78.518418,51.41288 77.798964,51.07776 l -0.551117,-0.404129 z"
       id="path1685"
       sodipodi:nodetypes="cccccccccsccccc" />
    <path
       style="opacity:0.671096;fill:#cccccc;stroke:#000000;stroke-width:0.0311072;stroke-linecap:butt;stroke-linejoin:miter;stroke-miterlimit:4;stroke-dasharray:none;stroke-opacity:1"
       d="m 64.265458,49.505706 0.818303,1.783467 c -0.175042,1.219747 -0.945223,1.17093 -2.047029,0.415018 -0.768878,-0.525296 -1.514767,-1.029395 -2.405477,-1.666479 1.221082,-0.143831 2.473856,-0.217119 3.634203,-0.532006 z"
       id="path1743"
       sodipodi:nodetypes="ccccc" />
    <path
       style="opacity:1;fill:#ddc1c1;fill-opacity:1;stroke:#000000;stroke-width:0;stroke-linecap:butt;stroke-linejoin:miter;stroke-miterlimit:4;stroke-dasharray:none;stroke-opacity:1"
       d="m 67.892643,48.869821 0.571542,2.171169 c -0.806905,1.858155 -2.119113,0.911646 -3.380424,0.248183 l -0.818303,-1.783467 z"
       id="path1745"
       sodipodi:nodetypes="ccccc" />
  </g>
</svg>
