<?xml version="1.0" encoding="UTF-8" standalone="no"?>
<svg
   xmlns:dc="http://purl.org/dc/elements/1.1/"
   xmlns:cc="http://creativecommons.org/ns#"
   xmlns:rdf="http://www.w3.org/1999/02/22-rdf-syntax-ns#"
   xmlns:svg="http://www.w3.org/2000/svg"
   xmlns="http://www.w3.org/2000/svg"
   xmlns:sodipodi="http://sodipodi.sourceforge.net/DTD/sodipodi-0.dtd"
   xmlns:inkscape="http://www.inkscape.org/namespaces/inkscape"
   width="210mm"
   height="210mm"
   viewBox="0 0 210 210"
   version="1.1"
   id="svg8"
   inkscape:version="1.0 (4035a4fb49, 2020-05-01)"
   sodipodi:docname="painted-stork-1.svg"
   inkscape:export-filename="D:\InkScape\birds\Painter-Stork\painted-stork.png"
   inkscape:export-xdpi="483.80951"
   inkscape:export-ydpi="483.80951">
  <defs
     id="defs2" />
  <sodipodi:namedview
     id="base"
     pagecolor="#ffffff"
     bordercolor="#666666"
     borderopacity="1.0"
     inkscape:pageopacity="0.0"
     inkscape:pageshadow="2"
     inkscape:zoom="0.49497475"
     inkscape:cx="305.40144"
     inkscape:cy="405.49772"
     inkscape:document-units="mm"
     inkscape:current-layer="layer8"
     inkscape:document-rotation="0"
     showgrid="false"
     inkscape:window-width="1920"
     inkscape:window-height="1027"
     inkscape:window-x="-8"
     inkscape:window-y="-8"
     inkscape:window-maximized="1"
     inkscape:object-paths="true"
     inkscape:snap-intersection-paths="false"
     width="210mm"
     inkscape:snap-others="false"
     inkscape:snap-nodes="false" />
  <metadata
     id="metadata5">
    <rdf:RDF>
      <cc:Work
         rdf:about="">
        <dc:format>image/svg+xml</dc:format>
        <dc:type
           rdf:resource="http://purl.org/dc/dcmitype/StillImage" />
        <dc:title></dc:title>
      </cc:Work>
    </rdf:RDF>
  </metadata>
  <g
     inkscape:groupmode="layer"
     id="layer8"
     inkscape:label="background"
     style="display:inline;opacity:0.95873">
    <path
       style="fill:#454837;stroke:#ed0a0a;stroke-width:0;stroke-linecap:butt;stroke-linejoin:miter;stroke-miterlimit:4;stroke-dasharray:none;stroke-opacity:1"
       d="M -15.501632,134.51747 230.94345,126.70794 231.45541,-8.6809762 -17.372519,-6.890996 V 136.30746 Z"
       id="path2408" />
    <path
       style="fill:#5fbcd3;stroke:#000000;stroke-width:0;stroke-linecap:butt;stroke-linejoin:miter;stroke-miterlimit:4;stroke-dasharray:none;stroke-opacity:1"
       d="m -26.459682,121.02029 c 35.5922968,9.92902 68.956597,0.36153 103.433304,0 39.737738,-0.41669 79.486268,-4.30733 119.202208,-2.50007 11.70506,0.53264 36.62539,0.43914 35.01231,3.92869 l 0.26727,92.50294 -258.182361,0.71431 z"
       id="path2404"
       sodipodi:nodetypes="caacccc" />
    <path
       style="fill:#2d899f;fill-opacity:0.960784;stroke:#000000;stroke-width:0;stroke-linecap:butt;stroke-linejoin:miter;stroke-miterlimit:4;stroke-dasharray:none;stroke-opacity:1"
       d="m 105.01922,139.82 c 0,0 -1.63857,0.78799 -1.44388,1.439 0.3083,1.03096 2.12041,0.91878 3.1622,0.64938 0.84006,-0.21723 2.06885,-0.8313 1.97639,-1.69404 -0.0441,-0.4117 -1.09303,-0.59018 -1.09303,-0.59018 z"
       id="path2434"
       sodipodi:nodetypes="caaacc" />
    <path
       style="opacity:0.71987;fill:#005a70;fill-opacity:0.721569;stroke:#000000;stroke-width:0;stroke-linecap:butt;stroke-linejoin:miter;stroke-miterlimit:4;stroke-dasharray:none;stroke-opacity:1"
       d="m 111.19116,140.00704 c 0,0 -1.7839,0.85788 -1.57194,1.56663 0.33564,1.1224 2.30847,1.00027 3.44267,0.70698 0.91456,-0.2365 2.25234,-0.90504 2.15168,-1.8443 -0.048,-0.44821 -1.18997,-0.64252 -1.18997,-0.64252 z"
       id="path2434-9"
       sodipodi:nodetypes="caaacc" />
  </g>
  <g
     inkscape:groupmode="layer"
     id="layer7"
     inkscape:label="legs"
     style="display:inline;opacity:1">
    <path
       style="fill:#d58b74;fill-opacity:1;stroke:#000000;stroke-width:0;stroke-linecap:butt;stroke-linejoin:miter;stroke-miterlimit:4;stroke-dasharray:none;stroke-opacity:1"
       d="m 106.66524,125.75076 c 0.95737,1.63933 1.82661,3.54292 2.6967,5.44361 1.35097,2.90108 2.80089,5.45528 4.23754,8.05636 0.11748,0.34617 0.25316,0.67687 -0.15062,1.45717 -0.78584,0.38491 -1.75508,0.15776 -2.66325,0.13402 0.27738,-1.4218 0.16234,-2.82664 -0.58632,-4.2041 l -4.79028,-10.31765 z"
       id="path1722"
       sodipodi:nodetypes="cccccccc" />
    <path
       style="fill:#de8787;stroke:#000000;stroke-width:0;stroke-linecap:butt;stroke-linejoin:miter;stroke-miterlimit:4;stroke-dasharray:none;stroke-opacity:1"
       d="m 104.58837,125.28185 c 0.65018,0.46586 0.6512,9.83473 0.90444,15.74443 l 1.57449,-0.16747 c -0.16609,-4.67346 -0.34623,-9.45757 -0.45224,-13.65083 l -0.87095,-2.93122 z"
       id="path1716"
       sodipodi:nodetypes="cccccc" />
    <path
       style="fill:#ee7377;fill-opacity:1;stroke:#000000;stroke-width:0;stroke-linecap:butt;stroke-linejoin:miter;stroke-miterlimit:4;stroke-dasharray:none;stroke-opacity:1"
       d="m 104.94001,126.08578 c 0.47294,0.2477 0.59624,0.7054 0.87108,1.072 0.20237,2.18301 0.14205,4.36602 0.18413,6.54902 l -0.63638,-0.9046 z"
       id="path1718"
       sodipodi:nodetypes="ccccc" />
    <path
       style="fill:#ff5555;stroke:#000000;stroke-width:0;stroke-linecap:butt;stroke-linejoin:miter;stroke-miterlimit:4;stroke-dasharray:none;stroke-opacity:1"
       d="m 106.51458,127.42573 -0.40202,0.26802 0.33503,7.57074 z"
       id="path1720" />
    <path
       style="fill:#e46c6e;fill-opacity:1;stroke:#000000;stroke-width:0;stroke-linecap:butt;stroke-linejoin:miter;stroke-miterlimit:4;stroke-dasharray:none;stroke-opacity:1"
       d="m 109.14172,131.80092 c 1.17159,2.49375 2.55199,5.00834 3.3161,7.46146 l 0.40264,0.71049 c -0.0352,-0.57871 0.23619,-0.51845 -0.23669,-2.01328 -0.86867,-1.97996 -2.29649,-4.09952 -3.48205,-6.15867 z"
       id="path1724"
       sodipodi:nodetypes="ccccc" />
    <path
       style="fill:#be5e6f;fill-opacity:1;stroke:#000000;stroke-width:0;stroke-linecap:butt;stroke-linejoin:miter;stroke-miterlimit:4;stroke-dasharray:none;stroke-opacity:1"
       d="m 111.01299,140.80204 c 0.21867,0.28824 0.73009,0.20044 1.25536,0.0948 -0.14376,-1.35033 -0.54268,-2.7005 -1.04229,-4.05054 -0.91131,-2.19457 -1.99624,-3.81046 -3.03197,-5.59023 -0.0765,-0.23689 -0.25125,-0.47385 -0.63943,-0.71061 1.06252,2.50183 2.37556,5.37938 3.60034,8.12474 0.19249,1.15007 -0.0904,1.4291 -0.14201,2.13182 z"
       id="path1726"
       sodipodi:nodetypes="ccccccc" />
  </g>
  <g
     inkscape:groupmode="layer"
     id="layer2"
     inkscape:label="beak"
     style="display:inline;opacity:1">
    <path
       style="fill:#e09c72;fill-opacity:1;stroke:#000000;stroke-width:0;stroke-linecap:butt;stroke-linejoin:miter;stroke-miterlimit:4;stroke-dasharray:none;stroke-opacity:1"
       d="m 79.112883,97.99699 c -1.786779,2.3145 -3.517999,4.85169 -5.263005,7.33361 -1.660283,2.39031 -3.209654,4.81766 -4.492526,7.33399 -1.660852,3.06395 -1.64981,4.16956 -1.510017,5.1245 0.14907,0.24345 0.192176,0.78306 0.636377,0.20128 2.048204,-3.87902 4.311824,-6.70911 6.67082,-9.07474 l 6.334262,-5.92611 c 0.274577,-0.48124 0.510675,-1.02902 0.30267,-2.34477 C 81.16546,100.16756 80.527235,99.694891 80.485822,99.002658 80.006499,98.1185 79.56239,98.126114 79.112883,97.99699 Z"
       id="path1932"
       sodipodi:nodetypes="cccccccccc" />
    <path
       style="fill:#a95e2b;fill-opacity:1;stroke:#000000;stroke-width:0;stroke-linecap:butt;stroke-linejoin:miter;stroke-miterlimit:4;stroke-dasharray:none;stroke-opacity:1"
       d="m 81.305887,100.32627 c -4.425144,4.07278 -7.340341,7.93485 -10.960556,12.8078 -1.100247,1.69157 -1.696932,3.31839 -2.313949,5.04044 l 0.08558,0.0562 c 0.58154,-1.69059 1.206184,-3.32937 2.382325,-5.0492 3.270704,-4.53985 6.823083,-9.01839 10.88195,-12.80499 z"
       id="path1934"
       sodipodi:nodetypes="ccccccc" />
    <path
       style="opacity:0.312704;fill:#c12400;fill-opacity:1;stroke:#000000;stroke-width:0;stroke-linecap:butt;stroke-linejoin:miter;stroke-miterlimit:4;stroke-dasharray:none;stroke-opacity:1"
       d="m 79.681939,98.382232 c -0.392101,-0.03342 -0.865372,0.992705 -0.69509,1.113826 0.322012,-0.01369 0.828174,-1.00143 0.69509,-1.113826 z"
       id="path1732"
       sodipodi:nodetypes="ccc" />
    <path
       style="opacity:0.312704;fill:#ffffff;fill-opacity:1;stroke:#000000;stroke-width:0;stroke-linecap:butt;stroke-linejoin:miter;stroke-miterlimit:4;stroke-dasharray:none;stroke-opacity:1"
       d="m 80.740645,103.06822 c -4.639351,3.52166 -8.616092,7.66339 -10.825074,12.19888 3.269125,-5.02774 7.171175,-8.16306 11.038255,-11.74882 z"
       id="path1736"
       sodipodi:nodetypes="cccc" />
    <path
       style="display:inline;opacity:0.312704;fill:#b44800;fill-opacity:1;stroke:#000000;stroke-width:0;stroke-linecap:butt;stroke-linejoin:miter;stroke-miterlimit:4;stroke-dasharray:none;stroke-opacity:1"
       d="m 78.475993,98.918203 -2.495668,3.584377 c -2.212265,2.8024 -3.915474,5.7246 -5.778542,8.60919 -1.203906,2.2439 -2.724844,4.37179 -2.227679,6.73327 0.250733,-2.4537 1.566478,-4.82943 2.612906,-6.64951 2.506715,-4.05978 5.348746,-8.04769 8.156974,-12.042831 0.38684,-0.71752 0.243169,-0.810907 0.284737,-1.122219 z"
       id="path1734"
       sodipodi:nodetypes="cccccccc" />
  </g>
  <g
     inkscape:groupmode="layer"
     id="layer3"
     inkscape:label="head"
     style="display:inline;opacity:1">
    <path
       style="fill:#c8743f;fill-opacity:1;stroke:#ce823c;stroke-width:0;stroke-linecap:butt;stroke-linejoin:miter;stroke-miterlimit:4;stroke-dasharray:none;stroke-opacity:1"
       d="m 83.201913,93.660956 c -2.130727,1.096941 -3.504441,2.540424 -4.072291,4.352795 0.607838,0.07804 1.077939,0.39196 1.372941,1.005668 0.02316,0.611594 0.674039,1.133841 1.305636,1.658841 0.144479,1.24364 -0.124072,1.7636 -0.319456,2.41175 0.902729,-0.76588 1.862842,-1.57635 2.379439,-2.04224 0.300955,-0.52167 0.408897,-1.164107 0.352694,-1.909253 -0.483605,-0.480387 -0.339822,-0.960476 -0.16677,-1.44054 0.769433,-1.437537 0.909194,-2.820195 -0.852193,-4.037021 z"
       id="path2760"
       sodipodi:nodetypes="ccccccccc" />
    <path
       style="fill:#ce8f56;fill-opacity:1;fill-rule:evenodd;stroke:#000000;stroke-width:0;stroke-miterlimit:4;stroke-dasharray:none"
       id="path2764"
       sodipodi:type="arc"
       sodipodi:cx="-6.8501863"
       sodipodi:cy="127.33994"
       sodipodi:rx="0.94599098"
       sodipodi:ry="0.6955747"
       sodipodi:start="0"
       sodipodi:end="6.2826792"
       sodipodi:arc-type="slice"
       d="m -5.9041954,127.33994 a 0.94599098,0.6955747 0 0 1 -0.9458713,0.69558 0.94599098,0.6955747 0 0 1 -0.9461106,-0.6954 0.94599098,0.6955747 0 0 1 0.9456319,-0.69575 0.94599098,0.6955747 0 0 1 0.9463499,0.69522 l -0.9459908,3.5e-4 z"
       transform="rotate(-43.583498)" />
    <path
       id="path2766-3"
       style="opacity:1;fill:#000000;fill-opacity:1;fill-rule:evenodd;stroke:#000000;stroke-width:0.0370669;stroke-miterlimit:4;stroke-dasharray:none"
       d="m 82.921231,96.401615 a 0.47673035,0.73336033 42.86531 0 0 -0.462532,0.287078 0.47673035,0.73336033 42.86531 0 0 -0.149128,0.86154 0.47673035,0.73336033 42.86531 0 0 0.848204,-0.213388 0.47673035,0.73336033 42.86531 0 0 0.149398,-0.861599 l -0.09721,0.104659 a 0.36872313,0.56721033 42.86531 0 1 -0.12695,0.65516 0.36872313,0.56721033 42.86531 0 1 -0.656206,0.164978 0.36872313,0.56721033 42.86531 0 1 0.115432,-0.666514 0.36872313,0.56721033 42.86531 0 1 0.656161,-0.165227 l -0.385775,0.415995 0.385839,-0.415722 a 0.36872313,0.56721033 42.86531 0 1 0.01151,0.01128 l 0.09713,-0.104932 a 0.47673035,0.73336033 42.86531 0 0 -0.385842,-0.07332 z" />
    <path
       style="opacity:1;fill:#f2f2f2;fill-opacity:1;fill-rule:evenodd;stroke:#000000;stroke-width:0;stroke-miterlimit:4;stroke-dasharray:none"
       id="path2764-3"
       sodipodi:type="arc"
       sodipodi:cx="-6.9011707"
       sodipodi:cy="127.3502"
       sodipodi:rx="0.56471479"
       sodipodi:ry="0.41522792"
       sodipodi:start="0"
       sodipodi:end="6.2826792"
       sodipodi:arc-type="slice"
       d="m -6.3364559,127.3502 a 0.56471479,0.41522792 0 0 1 -0.5646434,0.41522 0.56471479,0.41522792 0 0 1 -0.5647862,-0.41512 0.56471479,0.41522792 0 0 1 0.5645004,-0.41533 0.56471479,0.41522792 0 0 1 0.5649291,0.41502 l -0.5647147,2.1e-4 z"
       transform="rotate(-43.583498)" />
    <path
       style="fill:#000000;fill-opacity:1;fill-rule:evenodd;stroke:#000000;stroke-width:0.0325898;stroke-miterlimit:4;stroke-dasharray:none"
       id="path2789"
       sodipodi:type="arc"
       sodipodi:cx="82.773087"
       sodipodi:cy="96.99807"
       sodipodi:rx="0.12555093"
       sodipodi:ry="0.13824557"
       sodipodi:start="0"
       sodipodi:end="6.2826792"
       sodipodi:arc-type="slice"
       d="m 82.898637,96.99807 a 0.12555093,0.13824557 0 0 1 -0.125535,0.138245 0.12555093,0.13824557 0 0 1 -0.125566,-0.13821 0.12555093,0.13824557 0 0 1 0.125503,-0.138281 0.12555093,0.13824557 0 0 1 0.125598,0.138176 l -0.12555,7e-5 z" />
    <path
       style="fill:#f33a07;fill-opacity:1;stroke:#000000;stroke-width:0;stroke-linecap:butt;stroke-linejoin:miter;stroke-miterlimit:4;stroke-dasharray:none;stroke-opacity:1"
       d="m 83.177943,93.66371 c -2.694195,1.29827 -3.466426,2.834328 -4.048321,4.350041 0.459315,0.18733 0.879129,-0.04985 1.456769,1.409389 -0.02282,0.173719 0.188175,0.347414 0.378988,0.521117 0.21291,-1.205181 -0.168812,-2.346692 0.829061,-3.635987 0.794025,-0.41787 1.590445,-0.819044 2.323066,-1.666784 -0.151407,-0.225372 -0.512121,-0.526865 -0.939563,-0.977776 z"
       id="path1741"
       sodipodi:nodetypes="ccccccc" />
  </g>
  <g
     inkscape:groupmode="layer"
     id="layer4"
     inkscape:label="neck"
     style="display:inline;opacity:1">
    <path
       style="fill:#f9f9f9;fill-opacity:1;stroke:#000000;stroke-width:0;stroke-linecap:butt;stroke-linejoin:miter;stroke-miterlimit:4;stroke-dasharray:none;stroke-opacity:1"
       d="m 83.252144,93.694471 c 0.0759,-0.167972 0.07667,-0.352689 0.536198,-0.435211 1.437371,7.96e-4 1.829707,0.424869 2.495295,0.738213 2.560648,0.818214 3.385291,3.203538 3.329936,6.383227 -0.316584,2.5425 -0.757682,4.86686 -1.326716,6.96709 -0.08692,1.28172 -0.305907,2.71479 1.690884,1.60878 4.025219,-3.82513 9.343421,-4.41284 15.511349,-2.87311 0.94939,0.093 1.9093,0.0703 2.88095,-0.0823 1.98038,0.17601 1.85442,0.52175 2.29435,0.82187 3.15349,0.69277 5.3704,1.4286 7.58644,2.1645 1.31022,0.63714 2.2401,1.27407 3.33208,1.91111 -1.36766,-0.62604 -3.14844,-1.36704 -4.10257,-1.87801 -1.36334,-0.41314 -2.65112,-0.87328 -4.35436,-1.07415 l -1.0552,-0.20152 1.13555,0.43807 c 0.19502,0.2445 0.0819,0.29271 0.0472,0.39086 0.56754,0.19372 0.78681,0.3873 1.03002,0.58086 0.22407,1.22531 -0.0254,1.55984 -0.13124,2.16731 -0.71479,-0.30828 -1.23291,-0.61649 -2.22617,-0.92493 -0.92026,-0.33997 -2.33134,-0.68019 -3.75392,-1.02044 -0.7598,0.35288 -1.75185,0.1945 -2.6532,0.23557 -0.16231,0.45244 -0.39965,0.87857 -1.18497,1.11269 -2.16021,1.0489 -4.615569,1.32384 -7.438061,0.63582 -0.301692,0.99736 -0.554757,2.00045 -1.375318,2.9365 0.767125,0.64991 0.829269,1.16743 1.136542,1.73097 1.040925,1.02687 2.293355,1.98325 3.515907,2.94965 l -1.541212,0.66919 c -0.705013,0.88145 -1.105366,0.74943 -1.641985,1.07105 l -0.903664,-1.57482 c -0.406515,0.63366 -0.953468,0.88801 -1.675337,0.66919 0.411967,1.10462 -0.209102,0.54705 -0.636588,0.30115 -0.562409,0.0614 -0.853769,-0.0804 -1.172397,-0.20162 -1.38208,-0.73071 -2.329275,-1.48414 -3.114248,-2.24606 -1.978185,-0.98793 -3.379962,-2.07455 -4.252717,-3.25142 -1.065883,-2.07751 -2.172542,-4.15498 -2.040301,-6.23185 0.410593,-2.33065 0.195728,-4.48337 0.204357,-6.69967 0.471491,-0.40851 0.941411,-0.81994 0.796788,-2.369648 -0.526783,-0.476813 -0.2847,-1.21831 0.09392,-2.006833 0.80523,-2.061749 -0.319336,-2.573735 -1.037539,-3.412045 z"
       id="path2792"
       sodipodi:nodetypes="ccccccccccccccccccccccccccccccccccccccc" />
    <path
       style="fill:#b3b3b3;stroke:#000000;stroke-width:0;stroke-linecap:butt;stroke-linejoin:miter;stroke-miterlimit:4;stroke-dasharray:none;stroke-opacity:1"
       d="m 83.450571,101.68185 c 2.179962,-0.41062 2.601795,-2.579344 3.23263,-4.539086 -0.137447,2.146847 -0.954248,4.093886 -3.23263,5.611046 -0.02659,-0.3308 -0.03639,-0.67831 0,-1.07196 z"
       id="path1728"
       sodipodi:nodetypes="cccc" />
    <path
       style="fill:#887e7f;fill-opacity:1;stroke:#000000;stroke-width:0;stroke-linecap:butt;stroke-linejoin:miter;stroke-miterlimit:4;stroke-dasharray:none;stroke-opacity:1"
       d="m 83.464668,104.26442 c -0.02374,1.42318 -0.06905,2.82257 -0.248706,4.07421 -0.179986,2.09877 1.100193,4.03532 1.977877,6.01651 0.513062,0.83356 1.362288,1.4836 2.214759,2.13193 -0.482553,-0.74116 -1.145262,-1.58315 -1.515179,-2.48346 -1.418218,-3.4519 -1.744989,-7.76372 -1.225639,-10.56184 0.139505,-0.75162 -1.021291,1.64332 -1.203112,0.82265 z"
       id="path1730"
       sodipodi:nodetypes="ccccssc" />
    <path
       style="fill:#9e9690;fill-opacity:1;stroke:#000000;stroke-width:0;stroke-linecap:butt;stroke-linejoin:miter;stroke-miterlimit:4;stroke-dasharray:none;stroke-opacity:1"
       d="m 86.046594,101.95491 c 0,0 0.164249,0.56404 0.307921,0.81721 0.109559,0.19306 0.414529,0.52112 0.414529,0.52112 0,0 -0.06353,-0.57283 -0.201341,-0.8172 -0.120673,-0.21398 -0.521109,-0.52113 -0.521109,-0.52113 z"
       id="path2155"
       sodipodi:nodetypes="cacac" />
    <path
       style="display:inline;opacity:1;fill:#9e9690;fill-opacity:1;stroke:#000000;stroke-width:0;stroke-linecap:butt;stroke-linejoin:miter;stroke-miterlimit:4;stroke-dasharray:none;stroke-opacity:1"
       d="m 86.817149,102.06842 c 0,0 0.164265,0.56403 0.307936,0.81721 0.109548,0.19305 0.41453,0.52112 0.41453,0.52112 0,0 -0.06354,-0.57285 -0.201345,-0.81721 -0.120671,-0.21398 -0.521121,-0.52112 -0.521121,-0.52112 z"
       id="path2155-1"
       sodipodi:nodetypes="cacac" />
    <path
       style="display:inline;opacity:1;fill:#9e9690;fill-opacity:1;stroke:#000000;stroke-width:0;stroke-linecap:butt;stroke-linejoin:miter;stroke-miterlimit:4;stroke-dasharray:none;stroke-opacity:1"
       d="m 86.763122,100.68173 c 0,0 0.164266,0.56404 0.307934,0.81722 0.109546,0.19304 0.414528,0.52112 0.414528,0.52112 0,0 -0.06353,-0.57285 -0.20134,-0.81722 -0.120674,-0.21398 -0.521122,-0.52112 -0.521122,-0.52112 z"
       id="path2155-1-0"
       sodipodi:nodetypes="cacac" />
    <path
       style="display:inline;opacity:1;fill:#9e9690;fill-opacity:1;stroke:#000000;stroke-width:0;stroke-linecap:butt;stroke-linejoin:miter;stroke-miterlimit:4;stroke-dasharray:none;stroke-opacity:1"
       d="m 85.969598,100.61066 c 0,0 0.164263,0.56404 0.307937,0.81722 0.109544,0.19304 0.414527,0.52112 0.414527,0.52112 0,0 -0.06354,-0.57283 -0.201343,-0.81722 -0.120673,-0.21398 -0.521121,-0.52112 -0.521121,-0.52112 z"
       id="path2155-1-5"
       sodipodi:nodetypes="cacac" />
    <path
       style="display:inline;opacity:1;fill:#9e9690;fill-opacity:1;stroke:#000000;stroke-width:0;stroke-linecap:butt;stroke-linejoin:miter;stroke-miterlimit:4;stroke-dasharray:none;stroke-opacity:1"
       d="m 86.609152,99.426316 c 0,0 0.164267,0.564021 0.307933,0.817204 0.109551,0.19305 0.414531,0.52111 0.414531,0.52111 0,0 -0.06353,-0.57284 -0.201341,-0.817196 -0.120672,-0.213978 -0.521123,-0.521118 -0.521123,-0.521118 z"
       id="path2155-1-5-3"
       sodipodi:nodetypes="cacac" />
    <path
       style="display:inline;opacity:1;fill:#9e9690;fill-opacity:1;stroke:#000000;stroke-width:0;stroke-linecap:butt;stroke-linejoin:miter;stroke-miterlimit:4;stroke-dasharray:none;stroke-opacity:1"
       d="m 87.675081,100.2909 c 0,0 0.164262,0.56402 0.307928,0.8172 0.109555,0.19305 0.414533,0.52112 0.414533,0.52112 0,0 -0.06353,-0.57285 -0.201341,-0.81721 -0.120669,-0.21397 -0.52112,-0.52111 -0.52112,-0.52111 z"
       id="path2155-1-5-3-0"
       sodipodi:nodetypes="cacac" />
    <path
       style="display:inline;opacity:1;fill:#9e9690;fill-opacity:1;stroke:#000000;stroke-width:0;stroke-linecap:butt;stroke-linejoin:miter;stroke-miterlimit:4;stroke-dasharray:none;stroke-opacity:1"
       d="m 85.128697,101.71212 c 0,0 0.164265,0.56404 0.307947,0.81722 0.109537,0.19304 0.414517,0.52112 0.414517,0.52112 0,0 -0.06353,-0.57284 -0.201344,-0.81722 -0.120669,-0.21398 -0.52112,-0.52112 -0.52112,-0.52112 z"
       id="path2155-1-5-3-0-6"
       sodipodi:nodetypes="cacac" />
    <path
       style="display:inline;opacity:1;fill:#9e9690;fill-opacity:1;stroke:#000000;stroke-width:0;stroke-linecap:butt;stroke-linejoin:miter;stroke-miterlimit:4;stroke-dasharray:none;stroke-opacity:1"
       d="m 86.03572,111.27901 c 0,0 0.315012,0.76069 0.51517,1.089 0.152619,0.25034 0.511807,0.65343 0.511807,0.65343 0,0 -0.233152,-0.79196 -0.42562,-1.10901 -0.168534,-0.27761 -0.601357,-0.63342 -0.601357,-0.63342 z"
       id="path2155-1-5-3-0-6-1"
       sodipodi:nodetypes="cacac" />
    <path
       style="display:inline;opacity:1;fill:#9e9690;fill-opacity:1;stroke:#000000;stroke-width:0;stroke-linecap:butt;stroke-linejoin:miter;stroke-miterlimit:4;stroke-dasharray:none;stroke-opacity:1"
       d="m 84.972129,108.94247 c 0,0 0.315019,0.76069 0.515172,1.08899 0.15262,0.25034 0.511808,0.65345 0.511808,0.65345 0,0 -0.23315,-0.79197 -0.425619,-1.10902 -0.168536,-0.27762 -0.601361,-0.63342 -0.601361,-0.63342 z"
       id="path2155-1-5-3-0-6-1-9"
       sodipodi:nodetypes="cacac" />
    <path
       style="display:inline;opacity:1;fill:#9e9690;fill-opacity:1;stroke:#000000;stroke-width:0;stroke-linecap:butt;stroke-linejoin:miter;stroke-miterlimit:4;stroke-dasharray:none;stroke-opacity:1"
       d="m 87.032309,110.57554 c 0,0 0.315014,0.76068 0.515174,1.089 0.152619,0.25033 0.511808,0.65344 0.511808,0.65344 0,0 -0.23315,-0.79197 -0.425622,-1.10901 -0.168536,-0.27764 -0.60136,-0.63343 -0.60136,-0.63343 z"
       id="path2155-1-5-3-0-6-1-9-9"
       sodipodi:nodetypes="cacac" />
    <path
       style="display:inline;opacity:1;fill:#9e9690;fill-opacity:1;stroke:#000000;stroke-width:0;stroke-linecap:butt;stroke-linejoin:miter;stroke-miterlimit:4;stroke-dasharray:none;stroke-opacity:1"
       d="m 85.583483,112.20861 c 0,0 0.315026,0.76068 0.515185,1.089 0.152607,0.25032 0.511793,0.65345 0.511793,0.65345 0,0 -0.233152,-0.79198 -0.425621,-1.10902 -0.168532,-0.27763 -0.601357,-0.63343 -0.601357,-0.63343 z"
       id="path2155-1-5-3-0-6-1-9-9-0"
       sodipodi:nodetypes="cacac" />
    <path
       style="display:inline;opacity:1;fill:#9e9690;fill-opacity:1;stroke:#000000;stroke-width:0;stroke-linecap:butt;stroke-linejoin:miter;stroke-miterlimit:4;stroke-dasharray:none;stroke-opacity:1"
       d="m 87.47617,112.71109 c 0,0 0.315013,0.76067 0.515173,1.08899 0.152619,0.25039 0.511804,0.65345 0.511804,0.65345 0,0 -0.233149,-0.79197 -0.42562,-1.10901 -0.168543,-0.27762 -0.601357,-0.63343 -0.601357,-0.63343 z"
       id="path2155-1-5-3-0-6-1-9-9-0-3"
       sodipodi:nodetypes="cacac" />
    <path
       style="display:inline;opacity:1;fill:#9e9690;fill-opacity:1;stroke:#000000;stroke-width:0;stroke-linecap:butt;stroke-linejoin:miter;stroke-miterlimit:4;stroke-dasharray:none;stroke-opacity:1"
       d="m 87.096454,114.44335 c 0,0 0.315011,0.76058 0.51517,1.089 0.152615,0.25028 0.511806,0.65347 0.511806,0.65347 0,0 -0.23315,-0.792 -0.425618,-1.10917 -0.16853,-0.27759 -0.601358,-0.6333 -0.601358,-0.6333 z"
       id="path2155-1-5-3-0-6-1-9-9-0-3-2"
       sodipodi:nodetypes="cacac" />
    <path
       style="display:inline;opacity:1;fill:#9e9690;fill-opacity:1;stroke:#000000;stroke-width:0;stroke-linecap:butt;stroke-linejoin:miter;stroke-miterlimit:4;stroke-dasharray:none;stroke-opacity:1"
       d="m 87.928856,98.500243 c 0,0 0.304532,0.502373 0.508782,0.70979 0.155743,0.158144 0.535186,0.39619 0.535186,0.39619 0,0 -0.209504,-0.536925 -0.405817,-0.737342 -0.171898,-0.175503 -0.638151,-0.368638 -0.638151,-0.368638 z"
       id="path2155-1-5-3-0-1"
       sodipodi:nodetypes="cacac" />
    <path
       style="display:inline;opacity:1;fill:#9e9690;fill-opacity:1;stroke:#000000;stroke-width:0;stroke-linecap:butt;stroke-linejoin:miter;stroke-miterlimit:4;stroke-dasharray:none;stroke-opacity:1"
       d="m 85.370628,95.041906 c 0,0 0.304532,0.502374 0.508798,0.709791 0.15573,0.158144 0.535173,0.396181 0.535173,0.396181 0,0 -0.209503,-0.536917 -0.40582,-0.737334 -0.171882,-0.175495 -0.638151,-0.368638 -0.638151,-0.368638 z"
       id="path2155-1-5-3-0-1-7"
       sodipodi:nodetypes="cacac" />
    <path
       style="display:inline;opacity:1;fill:#9e9690;fill-opacity:1;stroke:#000000;stroke-width:0;stroke-linecap:butt;stroke-linejoin:miter;stroke-miterlimit:4;stroke-dasharray:none;stroke-opacity:1"
       d="m 84.731086,95.847273 c 0,0 0.304518,0.502374 0.508773,0.709782 0.155739,0.158153 0.535185,0.39619 0.535185,0.39619 0,0 -0.209505,-0.536925 -0.405817,-0.737334 -0.171891,-0.175511 -0.638141,-0.368638 -0.638141,-0.368638 z"
       id="path2155-1-5-3-0-1-7-5"
       sodipodi:nodetypes="cacac" />
    <path
       style="display:inline;opacity:1;fill:#9e9690;fill-opacity:1;stroke:#000000;stroke-width:0;stroke-linecap:butt;stroke-linejoin:miter;stroke-miterlimit:4;stroke-dasharray:none;stroke-opacity:1"
       d="m 86.744493,95.930168 c 0,0 0.304531,0.502374 0.508785,0.709783 0.155739,0.158152 0.535182,0.396214 0.535182,0.396214 0,0 -0.209501,-0.536925 -0.405813,-0.737359 -0.171901,-0.175486 -0.638154,-0.368638 -0.638154,-0.368638 z"
       id="path2155-1-5-3-0-1-7-5-8"
       sodipodi:nodetypes="cacac" />
    <path
       style="fill:#868889;fill-opacity:1;stroke:#000000;stroke-width:0;stroke-linecap:butt;stroke-linejoin:miter;stroke-miterlimit:4;stroke-dasharray:none;stroke-opacity:1"
       d="m 88.450384,109.1954 c 0.58532,0.3711 1.035596,-0.0566 1.527357,-0.23883 2.796986,-2.75121 4.814294,-2.592 7.110394,-3.47379 4.124945,-0.53421 5.429985,0.21531 7.833885,0.46459 2.08627,0.2951 4.06264,-0.1362 4.86942,0.29222 0.79105,0.35203 0.61472,0.39927 0.87295,0.58344 -23.787736,0.88057 -14.337416,2.27778 -21.435272,3.41777 -0.560413,-0.0323 -0.990551,-1.34721 -0.778734,-1.0454 z"
       id="path2397"
       sodipodi:nodetypes="cccccccc" />
  </g>
  <g
     inkscape:groupmode="layer"
     id="layer5"
     inkscape:label="body"
     style="display:inline;opacity:1">
    <path
       style="fill:#ffaaaa;stroke:#000000;stroke-width:0;stroke-linecap:butt;stroke-linejoin:miter;stroke-miterlimit:4;stroke-dasharray:none;stroke-opacity:1"
       d="m 97.006525,120.69311 c 1.168905,0.96503 2.183265,1.92526 2.642926,2.86802 0.678789,0.29266 1.267309,0.16966 1.835729,-0.0465 1.54917,0.19239 1.39851,1.15152 1.64532,1.93122 0.44352,0.17987 0.92524,0.20745 1.48042,-0.0584 0.40973,0.21225 0.62266,-0.33134 0.91226,-0.57989 -0.0711,1.00949 0.55815,1.72956 1.11107,2.48118 0.61579,-0.37846 0.95938,-0.92716 1.03918,-1.64099 0.70534,0.0618 1.34661,0.0508 1.41467,-0.61341 0.45955,-0.69318 1.56845,-0.65842 2.55847,-0.75665 1.26157,0.39776 1.44599,0.85308 1.94186,1.29191 0.1336,-0.54298 0.75747,0.21423 1.24315,0.60467 1.12319,0.46894 0.69416,-0.0884 0.72264,-0.34307 1.31919,0.49629 2.44147,0.18125 3.56511,-0.12853 -1.307,-0.88298 -0.34885,-0.54855 0.39088,-0.33139 2.14946,1.10191 1.64872,0.53274 1.01876,-0.11793 3.97813,2.018 2.0931,0.79169 0.99471,3.3e-4 0.38445,-0.1847 0.874,-0.18206 1.65797,0.34426 2.62631,1.23317 2.39735,1.03216 1.9661,0.084 3.24924,1.88349 1.50223,0.47175 1.62231,0.27325 0.17401,-0.21264 0.37371,-0.0609 0.56849,0.0238 1.42723,1.09579 0.78746,0.29756 0.74627,0.0478 1.31311,0.95117 0.68014,0.0818 0.68689,-0.18924 1.80227,1.02883 1.35312,0.37834 0.93579,-0.24826 0.17359,-0.23434 0.29088,-0.67685 0.67525,-0.12992 1.19548,0.51653 1.29765,0.17636 0.9595,-0.5088 -0.36135,-0.74482 -0.037,-1.30222 0.46283,-1.8118 2.39228,1.11236 3.19226,1.43532 2.20311,-0.27136 0.34806,-0.0617 0.29654,-0.3491 -0.5799,-1.10167 0.8253,-0.28681 -0.97405,-0.9211 -2.03636,-1.45779 -0.0763,-0.21359 -0.003,-0.38632 0.16619,-0.53293 -0.71534,-1.3155 -1.40267,-2.64726 -2.89992,-3.5071 -0.24922,-0.56583 -0.94978,-0.9597 -1.65744,-1.35106 0.59695,-2.00511 -2.85636,-2.36357 -5.16223,-3.18853 -0.0436,-0.27943 -0.15979,-0.55889 -0.38126,-0.83842 -2.65099,-1.06885 -4.4543,-2.7465 -9.2944,-3.09492 1.06802,0.3197 1.27287,0.56326 1.0717,0.771 l 1.0967,0.56166 c 0.14311,1.05864 -0.009,1.6742 -0.21886,2.20244 -1.62894,-0.76873 -3.40692,-1.48913 -5.91993,-1.97103 -0.53778,0.26747 -1.51332,0.30837 -2.69666,0.24151 -0.10894,0.63432 -0.5256,1.01611 -1.24851,1.14671 -2.7017,1.28981 -5.055563,1.09981 -7.336552,0.59929 -0.318063,1.10213 -0.683052,2.16524 -1.37482,2.95556 0.534014,0.58651 0.797828,1.17296 1.121216,1.75935 1.250995,1.33982 2.340106,1.99836 3.490766,2.91607 -0.422374,0.15966 -0.989903,0.43519 -1.516063,0.67763 -0.223847,0.50502 -0.978473,0.74437 -1.625332,1.03772 z"
       id="path2795"
       sodipodi:nodetypes="cccccccccccccccccccccccccccccccccccccccccccccccc" />
    <path
       style="fill:#000000;stroke:#000000;stroke-width:0.132649px;stroke-linecap:butt;stroke-linejoin:miter;stroke-opacity:1"
       d="m 119.87206,112.34348 c 1.69486,3.51314 -0.0587,3.43629 -1.39943,3.78934 -5.00457,1.19035 -9.87607,1.849 -14.75836,2.55078 3.08393,2.05791 6.89869,5.57888 7.17622,2.01701 1.96734,0.88306 4.07835,2.73274 5.44832,-0.4 5.44013,0.65384 4.43979,1.7395 5.61254,2.6795 -1.10071,0.10687 -2.24962,0.16547 -3.60046,0.0215 -4.21491,1.41773 -5.64518,-0.14471 -8.29048,-0.40695 -1.39635,-0.41224 -1.94184,-0.022 -2.27423,0.56744 -1.40856,0.93631 -3.0148,1.55581 -4.73845,1.98735 -0.32892,-0.5772 0.15611,-1.1857 -1.63356,-1.70628 -0.69588,0.50872 -1.22058,0.20677 -1.800332,0.16482 -0.53107,-1.01585 -1.383388,-2.004 -2.640794,-2.95731 0.578949,-0.18195 1.160495,-0.31698 1.70899,-0.98722 0.624606,-0.31362 1.049873,-0.49451 1.491016,-0.68603 -1.340909,-1.0056 -2.905829,-2.01137 -3.566023,-3.01661 -0.291267,-0.55847 -0.565904,-1.11694 -1.071081,-1.6755 0.701489,-0.71671 1.004233,-1.86912 1.374812,-2.94724 2.528125,0.69195 4.982272,0.52374 7.353422,-0.61604 0.60402,-0.20005 1.15057,-0.45423 1.25677,-1.12158 1.19631,0.005 2.3788,0.007 2.68002,-0.26664 2.52258,0.51491 4.24103,1.26769 5.92826,2.02965 0.19207,-0.63296 0.37759,-1.27154 0.16853,-2.24434 2.07003,1.07477 3.94641,2.14944 5.5743,3.22398 z"
       id="path2797"
       sodipodi:nodetypes="cccccccccccccccccccccccc" />
    <path
       style="opacity:1;fill:none;stroke:#000000;stroke-width:0.132649px;stroke-linecap:butt;stroke-linejoin:miter;stroke-opacity:1"
       d="m 101.78323,119.5354 c 0.95246,0.30576 1.9146,0.85204 2.80715,-0.29472 l 1.62197,1.35097 -1.49198,-0.90096 c -1.18664,1.24237 -1.98793,0.67987 -2.77139,0.0344 l -0.11838,-0.15416 z"
       id="path2836"
       sodipodi:nodetypes="ccccccc" />
    <path
       style="opacity:1;fill:#b3b3b3;stroke:#000000;stroke-width:0;stroke-linecap:butt;stroke-linejoin:miter;stroke-miterlimit:4;stroke-dasharray:none;stroke-opacity:1"
       d="m 99.216089,116.0843 0.272995,0.80542 c -0.01717,0.57495 2.177586,0.28924 2.191166,-0.21322 0.002,-0.071 -0.036,-0.69879 -0.036,-0.69879 l -0.2368,0.66333 c -0.56719,0.14508 -1.1148,0.44664 -1.74109,0.11846 z"
       id="path208"
       sodipodi:nodetypes="ccscccc" />
    <path
       style="display:inline;opacity:1;fill:#b3b3b3;stroke:#000000;stroke-width:0;stroke-linecap:butt;stroke-linejoin:miter;stroke-miterlimit:4;stroke-dasharray:none;stroke-opacity:1"
       d="m 99.454052,117.74334 0.412818,0.74331 c 0.08533,0.56891 2.19424,-0.10557 2.11741,-0.60219 -0.0104,-0.0702 -0.16015,-0.68106 -0.16015,-0.68106 l -0.11427,0.69493 c -0.53185,0.2443 -1.01656,0.63926 -1.69153,0.42851 z"
       id="path208-3"
       sodipodi:nodetypes="ccscccc" />
    <path
       style="display:inline;opacity:1;fill:#b3b3b3;stroke:#000000;stroke-width:0;stroke-linecap:butt;stroke-linejoin:miter;stroke-miterlimit:4;stroke-dasharray:none;stroke-opacity:1"
       d="m 102.98629,117.69883 0.41297,0.7435 c 0.0854,0.56892 2.19411,-0.10562 2.1174,-0.60227 -0.0108,-0.0702 -0.16022,-0.68118 -0.16022,-0.68118 l -0.11414,0.69508 c -0.53204,0.24433 -1.01661,0.63921 -1.69174,0.42841 z"
       id="path208-3-7"
       sodipodi:nodetypes="ccscccc" />
    <path
       style="display:inline;opacity:1;fill:#b3b3b3;stroke:#000000;stroke-width:0;stroke-linecap:butt;stroke-linejoin:miter;stroke-miterlimit:4;stroke-dasharray:none;stroke-opacity:1"
       d="m 104.99347,116.8554 0.40942,1.09533 c 0.0848,0.83835 2.17616,-0.15563 2.10008,-0.88751 -0.0107,-0.10341 -0.15887,-1.00354 -0.15887,-1.00354 l -0.11322,1.02408 c -0.52773,0.36006 -1.00826,0.9419 -1.67769,0.63125 z"
       id="path208-3-7-9"
       sodipodi:nodetypes="ccscccc" />
    <path
       style="display:inline;opacity:1;fill:#b3b3b3;stroke:#000000;stroke-width:0;stroke-linecap:butt;stroke-linejoin:miter;stroke-miterlimit:4;stroke-dasharray:none;stroke-opacity:1"
       d="m 107.2761,115.73803 0.0414,1.65821 c -0.18359,1.16628 2.09219,0.76894 2.25025,-0.25006 0.0226,-0.14415 0.16574,-1.42208 0.16574,-1.42208 l -0.42773,1.32721 c -0.60821,0.24747 -1.24223,0.81419 -1.77328,0.0952 z"
       id="path208-3-7-9-3"
       sodipodi:nodetypes="ccscccc" />
    <path
       style="display:inline;opacity:1;fill:#b3b3b3;stroke:#000000;stroke-width:0;stroke-linecap:butt;stroke-linejoin:miter;stroke-miterlimit:4;stroke-dasharray:none;stroke-opacity:1"
       d="m 109.40737,115.43061 0.0414,1.65829 c -0.18338,1.16629 2.0922,0.7689 2.2503,-0.25023 0.0226,-0.14405 0.16581,-1.42192 0.16581,-1.42192 l -0.42774,1.32699 c -0.60834,0.24754 -1.24221,0.81445 -1.77338,0.0953 z"
       id="path208-3-7-9-3-5"
       sodipodi:nodetypes="ccscccc" />
    <path
       style="display:inline;opacity:1;fill:#b3b3b3;stroke:#000000;stroke-width:0;stroke-linecap:butt;stroke-linejoin:miter;stroke-miterlimit:4;stroke-dasharray:none;stroke-opacity:1"
       d="m 111.56924,114.91298 0.0413,1.65826 c -0.18362,1.16626 2.09218,0.7689 2.25033,-0.25005 0.022,-0.14404 0.16557,-1.42209 0.16557,-1.42209 l -0.42753,1.32716 c -0.60833,0.24754 -1.24222,0.81442 -1.77339,0.0953 z"
       id="path208-3-7-9-3-5-1"
       sodipodi:nodetypes="ccscccc" />
    <path
       style="display:inline;opacity:1;fill:#b3b3b3;stroke:#000000;stroke-width:0;stroke-linecap:butt;stroke-linejoin:miter;stroke-miterlimit:4;stroke-dasharray:none;stroke-opacity:1"
       d="m 113.82308,114.41342 0.0415,1.65833 c -0.18355,1.16624 2.09219,0.76889 2.25034,-0.25022 0.0218,-0.1441 0.16559,-1.42196 0.16559,-1.42196 l -0.42747,1.3272 c -0.60854,0.24732 -1.24226,0.81422 -1.77348,0.0951 z"
       id="path208-3-7-9-3-5-1-5"
       sodipodi:nodetypes="ccscccc" />
    <path
       style="display:inline;opacity:1;fill:#b3b3b3;stroke:#000000;stroke-width:0;stroke-linecap:butt;stroke-linejoin:miter;stroke-miterlimit:4;stroke-dasharray:none;stroke-opacity:1"
       d="m 115.81616,113.78436 0.0414,1.65825 c -0.18365,1.16625 2.09217,0.76893 2.25028,-0.25005 0.0219,-0.14406 0.16569,-1.42209 0.16569,-1.42209 l -0.42776,1.32721 c -0.60825,0.24748 -1.24219,0.81422 -1.77323,0.0952 z"
       id="path208-3-7-9-3-5-1-5-2"
       sodipodi:nodetypes="ccscccc" />
    <path
       style="display:inline;opacity:1;fill:#b3b3b3;stroke:#000000;stroke-width:0;stroke-linecap:butt;stroke-linejoin:miter;stroke-miterlimit:4;stroke-dasharray:none;stroke-opacity:1"
       d="m 102.06933,116.41216 0.44572,0.72437 c 0.11058,0.56458 2.18716,-0.20344 2.08848,-0.69607 -0.0139,-0.0697 -0.1904,-0.67331 -0.1904,-0.67331 l -0.0831,0.69929 c -0.5205,0.26794 -0.98714,0.68404 -1.67087,0.50348 z"
       id="path208-3-0"
       sodipodi:nodetypes="ccscccc" />
    <path
       style="display:inline;opacity:1;fill:#b3b3b3;stroke:#000000;stroke-width:0;stroke-linecap:butt;stroke-linejoin:miter;stroke-miterlimit:4;stroke-dasharray:none;stroke-opacity:1"
       d="m 103.80781,115.85269 0.41422,0.74261 c 0.0863,0.56871 2.19389,-0.10956 2.11636,-0.60597 -0.0108,-0.0702 -0.16142,-0.6808 -0.16142,-0.6808 l -0.11287,0.69513 c -0.53168,0.24544 -1.01557,0.64107 -1.69089,0.43146 z"
       id="path208-3-7-5"
       sodipodi:nodetypes="ccscccc" />
    <path
       style="display:inline;opacity:1;fill:#b3b3b3;stroke:#000000;stroke-width:0;stroke-linecap:butt;stroke-linejoin:miter;stroke-miterlimit:4;stroke-dasharray:none;stroke-opacity:1"
       d="m 105.57215,115.32176 0.41135,1.0947 c 0.0861,0.83803 2.17569,-0.15946 2.09835,-0.89122 -0.0108,-0.10343 -0.16068,-1.00331 -0.16068,-1.00331 l -0.11141,1.02429 c -0.52689,0.36095 -1.00663,0.9436 -1.67656,0.63417 z"
       id="path208-3-7-9-8"
       sodipodi:nodetypes="ccscccc" />
    <path
       style="display:inline;opacity:1;fill:#b3b3b3;stroke:#000000;stroke-width:0;stroke-linecap:butt;stroke-linejoin:miter;stroke-miterlimit:4;stroke-dasharray:none;stroke-opacity:1"
       d="m 107.64637,113.95443 0.0443,1.6583 c -0.1815,1.16656 2.09346,0.76526 2.24977,-0.25421 0.0226,-0.14408 0.16322,-1.42223 0.16322,-1.42223 l -0.42528,1.32792 c -0.60782,0.24856 -1.24088,0.81652 -1.77313,0.0983 z"
       id="path208-3-7-9-3-1"
       sodipodi:nodetypes="ccscccc" />
    <path
       style="display:inline;opacity:1;fill:#b3b3b3;stroke:#000000;stroke-width:0;stroke-linecap:butt;stroke-linejoin:miter;stroke-miterlimit:4;stroke-dasharray:none;stroke-opacity:1"
       d="m 109.53335,113.48121 0.0442,1.65831 c -0.18146,1.16657 2.09352,0.76522 2.24986,-0.25415 0.0222,-0.14412 0.16321,-1.42226 0.16321,-1.42226 l -0.42533,1.32794 c -0.6078,0.24851 -1.24083,0.81648 -1.77312,0.0983 z"
       id="path208-3-7-9-3-5-0"
       sodipodi:nodetypes="ccscccc" />
    <path
       style="display:inline;opacity:1;fill:#b3b3b3;stroke:#000000;stroke-width:0;stroke-linecap:butt;stroke-linejoin:miter;stroke-miterlimit:4;stroke-dasharray:none;stroke-opacity:1"
       d="m 110.45649,113.34078 0.0443,1.65825 c -0.18147,1.1665 2.09363,0.7652 2.24985,-0.25405 0.0222,-0.14409 0.16335,-1.42233 0.16335,-1.42233 l -0.4254,1.3279 c -0.60797,0.24849 -1.24074,0.81646 -1.77325,0.0984 z"
       id="path208-3-7-9-3-5-1-1"
       sodipodi:nodetypes="ccscccc" />
    <path
       style="display:inline;opacity:1;fill:#b3b3b3;stroke:#000000;stroke-width:0;stroke-linecap:butt;stroke-linejoin:miter;stroke-miterlimit:4;stroke-dasharray:none;stroke-opacity:1"
       d="m 112.24788,112.63602 0.0443,1.65829 c -0.18148,1.16658 2.09365,0.76528 2.24985,-0.25415 0.0222,-0.1441 0.16334,-1.42229 0.16334,-1.42229 L 114.28,113.9458 c -0.60796,0.24855 -1.24074,0.81652 -1.77327,0.0983 z"
       id="path208-3-7-9-3-5-1-5-6"
       sodipodi:nodetypes="ccscccc" />
    <path
       style="display:inline;opacity:1;fill:#b3b3b3;stroke:#000000;stroke-width:0;stroke-linecap:butt;stroke-linejoin:miter;stroke-miterlimit:4;stroke-dasharray:none;stroke-opacity:1"
       d="m 114.42834,112.02024 0.0443,1.65827 c -0.18147,1.16655 2.09337,0.76525 2.24984,-0.25406 0.0217,-0.14416 0.16306,-1.42236 0.16306,-1.42236 l -0.4252,1.32791 c -0.60793,0.24852 -1.24092,0.81651 -1.7732,0.0984 z"
       id="path208-3-7-9-3-5-1-5-2-4"
       sodipodi:nodetypes="ccscccc" />
    <path
       style="display:inline;opacity:1;fill:#b3b3b3;stroke:#000000;stroke-width:0;stroke-linecap:butt;stroke-linejoin:miter;stroke-miterlimit:4;stroke-dasharray:none;stroke-opacity:1"
       d="m 116.5668,111.4716 0.0443,1.65828 c -0.18147,1.1665 2.09356,0.7652 2.24984,-0.25406 0.0216,-0.14417 0.16319,-1.42235 0.16319,-1.42235 l -0.42531,1.3279 c -0.60806,0.24853 -1.2408,0.8165 -1.77335,0.0984 z"
       id="path208-3-7-9-3-5-1-5-2-4-0"
       sodipodi:nodetypes="ccscccc" />
    <path
       style="display:inline;opacity:1;fill:#b3b3b3;stroke:#000000;stroke-width:0;stroke-linecap:butt;stroke-linejoin:miter;stroke-miterlimit:4;stroke-dasharray:none;stroke-opacity:1"
       d="m 102.16701,115.04101 0.48623,0.69764 c 0.14253,0.55737 2.17199,-0.32786 2.04534,-0.81399 -0.0174,-0.0689 -0.22847,-0.66143 -0.22847,-0.66143 l -0.0437,0.70292 c -0.50448,0.29728 -0.94648,0.73915 -1.6394,0.59798 z"
       id="path208-3-7-5-4"
       sodipodi:nodetypes="ccscccc" />
    <path
       style="display:inline;opacity:1;fill:#b3b3b3;stroke:#000000;stroke-width:0;stroke-linecap:butt;stroke-linejoin:miter;stroke-miterlimit:4;stroke-dasharray:none;stroke-opacity:1"
       d="m 103.78649,114.31793 0.51843,1.04812 c 0.16941,0.82544 2.14902,-0.37578 1.99917,-1.09596 -0.0214,-0.10194 -0.26007,-0.98231 -0.26007,-0.98231 l -0.008,1.03025 c -0.4884,0.41179 -0.9074,1.03931 -1.60492,0.79829 z"
       id="path208-3-7-9-8-6"
       sodipodi:nodetypes="ccscccc" />
    <path
       style="display:inline;opacity:1;fill:#b3b3b3;stroke:#000000;stroke-width:0;stroke-linecap:butt;stroke-linejoin:miter;stroke-miterlimit:4;stroke-dasharray:none;stroke-opacity:1"
       d="m 105.60089,113.0475 0.20887,1.64557 c -0.064,1.17888 2.15941,0.55263 2.2134,-0.47726 0.007,-0.14556 0.0203,-1.43147 0.0203,-1.43147 l -0.29074,1.36368 c -0.58006,0.30791 -1.15313,0.93618 -1.75453,0.27484 z"
       id="path208-3-7-9-3-1-3"
       sodipodi:nodetypes="ccscccc" />
    <path
       style="display:inline;opacity:1;fill:#b3b3b3;stroke:#000000;stroke-width:0;stroke-linecap:butt;stroke-linejoin:miter;stroke-miterlimit:4;stroke-dasharray:none;stroke-opacity:1"
       d="m 107.42411,112.55573 0.20907,1.64559 c -0.0642,1.17887 2.15936,0.55264 2.21317,-0.47722 0.007,-0.14564 0.0206,-1.43152 0.0206,-1.43152 l -0.29069,1.36368 c -0.58026,0.30799 -1.15329,0.93618 -1.75465,0.27484 z"
       id="path208-3-7-9-3-5-0-6"
       sodipodi:nodetypes="ccscccc" />
    <path
       style="display:inline;opacity:1;fill:#b3b3b3;stroke:#000000;stroke-width:0;stroke-linecap:butt;stroke-linejoin:miter;stroke-miterlimit:4;stroke-dasharray:none;stroke-opacity:1"
       d="m 110.81173,111.77134 0.20898,1.64561 c -0.064,1.17885 2.15944,0.55258 2.21341,-0.47727 0.007,-0.14561 0.0203,-1.43152 0.0203,-1.43152 l -0.29074,1.36373 c -0.5801,0.30791 -1.15318,0.93621 -1.75452,0.27476 z"
       id="path208-3-7-9-3-5-1-5-6-8"
       sodipodi:nodetypes="ccscccc" />
    <path
       style="display:inline;opacity:1;fill:#b3b3b3;stroke:#000000;stroke-width:0;stroke-linecap:butt;stroke-linejoin:miter;stroke-miterlimit:4;stroke-dasharray:none;stroke-opacity:1"
       d="m 112.5922,111.2358 0.20907,1.64564 c -0.0641,1.17884 2.15936,0.55257 2.21322,-0.47726 0.007,-0.14564 0.021,-1.43152 0.021,-1.43152 l -0.29067,1.36371 c -0.58024,0.30794 -1.15331,0.93619 -1.7547,0.27477 z"
       id="path208-3-7-9-3-5-1-5-2-4-1"
       sodipodi:nodetypes="ccscccc" />
    <path
       style="display:inline;opacity:1;fill:#b3b3b3;stroke:#000000;stroke-width:0;stroke-linecap:butt;stroke-linejoin:miter;stroke-miterlimit:4;stroke-dasharray:none;stroke-opacity:1"
       d="m 112.57651,110.71839 0.20901,1.64562 c -0.0643,1.17882 2.15944,0.55257 2.21318,-0.47725 0.007,-0.14564 0.0202,-1.43153 0.0202,-1.43153 l -0.29067,1.36372 c -0.58004,0.30794 -1.15313,0.93618 -1.75456,0.27479 z"
       id="path208-3-7-9-3-5-1-5-2-4-0-6"
       sodipodi:nodetypes="ccscccc" />
    <path
       style="display:inline;opacity:1;fill:#b3b3b3;stroke:#000000;stroke-width:0.132649px;stroke-linecap:butt;stroke-linejoin:miter;stroke-opacity:1"
       d="m 98.998504,114.04037 0.414245,0.74271 c 0.08636,0.56873 2.193991,-0.10953 2.116371,-0.60602 -0.0105,-0.0703 -0.16143,-0.68078 -0.16143,-0.68078 l -0.11287,0.69511 c -0.53158,0.24529 -1.01558,0.64101 -1.690852,0.43138 z"
       id="path208-3-7-5-1"
       sodipodi:nodetypes="ccscccc" />
    <path
       style="display:inline;opacity:1;fill:#b3b3b3;stroke:#000000;stroke-width:0;stroke-linecap:butt;stroke-linejoin:miter;stroke-miterlimit:4;stroke-dasharray:none;stroke-opacity:1"
       d="m 100.71552,113.48577 0.4113,1.09476 c 0.0861,0.83806 2.17579,-0.15958 2.09836,-0.89119 -0.0107,-0.1035 -0.16051,-1.0033 -0.16051,-1.0033 l -0.11158,1.02418 c -0.52689,0.36106 -1.00644,0.94372 -1.67654,0.63423 z"
       id="path208-3-7-9-8-9"
       sodipodi:nodetypes="ccscccc" />
    <path
       style="display:inline;opacity:1;fill:#b3b3b3;stroke:#000000;stroke-width:0;stroke-linecap:butt;stroke-linejoin:miter;stroke-miterlimit:4;stroke-dasharray:none;stroke-opacity:1"
       d="m 102.6475,112.40273 0.0443,1.65829 c -0.18147,1.16648 2.09355,0.76518 2.24985,-0.25408 0.0216,-0.14418 0.16317,-1.42236 0.16317,-1.42236 l -0.42529,1.32794 c -0.60806,0.24852 -1.24083,0.81646 -1.77331,0.0983 z"
       id="path208-3-7-9-3-1-8"
       sodipodi:nodetypes="ccscccc" />
    <path
       style="display:inline;opacity:1;fill:#b3b3b3;stroke:#000000;stroke-width:0;stroke-linecap:butt;stroke-linejoin:miter;stroke-miterlimit:4;stroke-dasharray:none;stroke-opacity:1"
       d="m 104.51076,112.09534 0.0442,1.65823 c -0.18146,1.16662 2.09354,0.76532 2.24987,-0.25404 0.0215,-0.14415 0.16323,-1.42233 0.16323,-1.42233 l -0.42533,1.32789 c -0.60803,0.24856 -1.24086,0.81643 -1.7732,0.0984 z"
       id="path208-3-7-9-3-5-0-8"
       sodipodi:nodetypes="ccscccc" />
    <path
       style="display:inline;opacity:1;fill:#b3b3b3;stroke:#000000;stroke-width:0;stroke-linecap:butt;stroke-linejoin:miter;stroke-miterlimit:4;stroke-dasharray:none;stroke-opacity:1"
       d="m 106.16834,111.90753 0.0443,1.65825 c -0.18147,1.1665 2.09353,0.7652 2.24985,-0.25405 0.0215,-0.14414 0.16324,-1.42235 0.16324,-1.42235 l -0.42532,1.32791 c -0.60801,0.24853 -1.24086,0.81646 -1.77322,0.0984 z"
       id="path208-3-7-9-3-5-1-1-7"
       sodipodi:nodetypes="ccscccc" />
    <path
       style="display:inline;opacity:1;fill:#b3b3b3;stroke:#000000;stroke-width:0;stroke-linecap:butt;stroke-linejoin:miter;stroke-miterlimit:4;stroke-dasharray:none;stroke-opacity:1"
       d="m 108.55192,111.88968 0.0443,1.65825 c -0.18147,1.16663 2.09353,0.76532 2.24985,-0.25405 0.0216,-0.14414 0.16324,-1.42234 0.16324,-1.42234 l -0.42533,1.3279 c -0.608,0.24853 -1.24085,0.81646 -1.7732,0.0984 z"
       id="path208-3-7-9-3-5-1-5-6-9"
       sodipodi:nodetypes="ccscccc" />
    <path
       style="display:inline;opacity:1;fill:#b3b3b3;stroke:#000000;stroke-width:0;stroke-linecap:butt;stroke-linejoin:miter;stroke-miterlimit:4;stroke-dasharray:none;stroke-opacity:1"
       d="m 110.64428,111.2464 0.0443,1.65826 c -0.18145,1.16656 2.09354,0.76525 2.24986,-0.25407 0.0214,-0.14413 0.16327,-1.42234 0.16327,-1.42234 l -0.4253,1.32792 c -0.60796,0.24853 -1.24097,0.81648 -1.77323,0.0984 z"
       id="path208-3-7-9-3-5-1-5-2-4-0-4"
       sodipodi:nodetypes="ccscccc" />
    <path
       style="display:inline;opacity:1;fill:#b3b3b3;stroke:#000000;stroke-width:0;stroke-linecap:butt;stroke-linejoin:miter;stroke-miterlimit:4;stroke-dasharray:none;stroke-opacity:1"
       d="m 102.02281,111.45409 0.20887,1.64561 c -0.064,1.17879 2.15942,0.55257 2.21338,-0.47724 0.007,-0.14564 0.0202,-1.43152 0.0202,-1.43152 l -0.29078,1.36371 c -0.58003,0.30793 -1.15309,0.93617 -1.75449,0.27477 z"
       id="path208-3-7-9-3-5-0-6-4"
       sodipodi:nodetypes="ccscccc" />
    <path
       style="display:inline;opacity:1;fill:#b3b3b3;stroke:#000000;stroke-width:0;stroke-linecap:butt;stroke-linejoin:miter;stroke-miterlimit:4;stroke-dasharray:none;stroke-opacity:1"
       d="m 104.24557,110.95973 0.20896,1.64561 c -0.0643,1.17886 2.15943,0.55258 2.21327,-0.47724 0.007,-0.14564 0.02,-1.43152 0.02,-1.43152 l -0.29071,1.36371 c -0.57997,0.30793 -1.15306,0.93619 -1.75451,0.27477 z"
       id="path208-3-7-9-3-5-1-1-1-8"
       sodipodi:nodetypes="ccscccc" />
    <path
       style="display:inline;opacity:1;fill:#b3b3b3;stroke:#000000;stroke-width:0;stroke-linecap:butt;stroke-linejoin:miter;stroke-miterlimit:4;stroke-dasharray:none;stroke-opacity:1"
       d="m 106.19197,110.4565 0.20902,1.64561 c -0.0641,1.17883 2.15943,0.55257 2.21328,-0.47725 0.007,-0.14563 0.0207,-1.43152 0.0207,-1.43152 l -0.29063,1.36371 c -0.58025,0.30794 -1.15334,0.9362 -1.75458,0.27478 z"
       id="path208-3-7-9-3-5-1-5-6-8-7"
       sodipodi:nodetypes="ccscccc" />
    <path
       style="display:inline;opacity:1;fill:#b3b3b3;stroke:#000000;stroke-width:0;stroke-linecap:butt;stroke-linejoin:miter;stroke-miterlimit:4;stroke-dasharray:none;stroke-opacity:1"
       d="m 108.18576,109.94467 0.20889,1.64562 c -0.0641,1.17882 2.15957,0.55255 2.21343,-0.47726 0.007,-0.14562 0.0202,-1.43151 0.0202,-1.43151 l -0.29077,1.3637 c -0.57997,0.30794 -1.15302,0.9362 -1.75442,0.27478 z"
       id="path208-3-7-9-3-5-1-5-2-4-1-4"
       sodipodi:nodetypes="ccscccc" />
    <path
       style="display:inline;opacity:1;fill:#b3b3b3;stroke:#000000;stroke-width:0;stroke-linecap:butt;stroke-linejoin:miter;stroke-miterlimit:4;stroke-dasharray:none;stroke-opacity:1"
       d="m 97.361686,112.51808 0.287609,1.63373 c -0.0075,1.18051 2.183381,0.4484 2.187843,-0.58286 3.23e-4,-0.14583 -0.0481,-1.43085 -0.0481,-1.43085 l -0.22495,1.37606 c -0.564659,0.33543 -1.1071,0.99046 -1.739411,0.35857 z"
       id="path208-3-7-9-3-1-3-9-6"
       sodipodi:nodetypes="ccscccc" />
    <path
       style="display:inline;opacity:1;fill:#b3b3b3;stroke:#000000;stroke-width:0;stroke-linecap:butt;stroke-linejoin:miter;stroke-miterlimit:4;stroke-dasharray:none;stroke-opacity:1"
       d="m 96.190816,113.51285 0.287658,1.63366 c -0.0075,1.18056 2.183364,0.44847 2.187835,-0.5828 6.88e-4,-0.14572 -0.0481,-1.43084 -0.0481,-1.43084 l -0.225016,1.37616 c -0.564709,0.33538 -1.106984,0.99037 -1.739353,0.35857 z"
       id="path208-3-7-9-3-5-0-6-4-7"
       sodipodi:nodetypes="ccscccc" />
    <path
       style="display:inline;opacity:1;fill:#b3b3b3;stroke:#000000;stroke-width:0;stroke-linecap:butt;stroke-linejoin:miter;stroke-miterlimit:4;stroke-dasharray:none;stroke-opacity:1"
       d="m 99.577694,112.11917 0.287659,1.63369 c -0.0075,1.18049 2.183377,0.44838 2.187837,-0.58282 3.3e-4,-0.14582 -0.0481,-1.43084 -0.0481,-1.43084 l -0.22501,1.37609 c -0.56464,0.33536 -1.10703,0.99037 -1.73935,0.35858 z"
       id="path208-3-7-9-3-5-0-6-4-7-4"
       sodipodi:nodetypes="ccscccc" />
    <path
       style="display:inline;opacity:1;fill:#b3b3b3;stroke:#000000;stroke-width:0;stroke-linecap:butt;stroke-linejoin:miter;stroke-miterlimit:4;stroke-dasharray:none;stroke-opacity:1"
       d="m 97.007006,114.53362 0.287725,1.6337 c -0.0066,1.18057 2.183464,0.44843 2.187835,-0.5828 3.23e-4,-0.14593 -0.0481,-1.43093 -0.0481,-1.43093 l -0.224925,1.37607 c -0.564808,0.33542 -1.106975,0.9905 -1.739535,0.35853 z"
       id="path208-3-7-9-3-5-0-6-4-7-6"
       sodipodi:nodetypes="ccscccc" />
    <path
       style="display:inline;opacity:0.586294;fill:#ffffff;stroke:#000000;stroke-width:0;stroke-linecap:butt;stroke-linejoin:miter;stroke-miterlimit:4;stroke-dasharray:none;stroke-opacity:1"
       d="m 100.53403,117.77071 0.28754,1.63368 c -0.007,1.18073 2.18344,0.44841 2.18787,-0.5828 3.2e-4,-0.14568 -0.0481,-1.4307 -0.0481,-1.4307 l -0.22493,1.37606 c -0.56463,0.33538 -1.10701,0.99027 -1.73933,0.35854 z"
       id="path208-3-7-9-3-5-0-6-4-7-6-7"
       sodipodi:nodetypes="ccscccc" />
    <path
       style="opacity:1;fill:#b3b3b3;stroke:#000000;stroke-width:0;stroke-linecap:butt;stroke-linejoin:miter;stroke-miterlimit:4;stroke-dasharray:none;stroke-opacity:1"
       d="m 100.63798,121.46136 c 0.47114,-0.29754 1.40707,0.30396 1.27898,-1.14879 0.85144,1.40596 -0.005,1.48103 -1.27898,1.14879 z"
       id="path621"
       sodipodi:nodetypes="ccc" />
    <path
       style="display:inline;opacity:1;fill:#b3b3b3;stroke:#000000;stroke-width:0;stroke-linecap:butt;stroke-linejoin:miter;stroke-miterlimit:4;stroke-dasharray:none;stroke-opacity:1"
       d="m 99.875828,120.96063 c 0.471302,-0.29748 1.407192,0.30405 1.279192,-1.14873 0.85122,1.40587 -0.005,1.48097 -1.279192,1.14873 z"
       id="path621-3"
       sodipodi:nodetypes="ccc" />
    <path
       style="display:inline;opacity:1;fill:#b3b3b3;stroke:#000000;stroke-width:0;stroke-linecap:butt;stroke-linejoin:miter;stroke-miterlimit:4;stroke-dasharray:none;stroke-opacity:1"
       d="m 99.249231,120.44528 c 0.471264,-0.29753 1.407079,0.30399 1.279109,-1.14869 0.85132,1.40587 -0.005,1.48097 -1.279109,1.14869 z"
       id="path621-3-2"
       sodipodi:nodetypes="ccc" />
    <path
       style="display:inline;opacity:0.586294;fill:#b3b3b3;stroke:#000000;stroke-width:0;stroke-linecap:butt;stroke-linejoin:miter;stroke-miterlimit:4;stroke-dasharray:none;stroke-opacity:1"
       d="m 98.574199,119.95977 c 0.47114,-0.29768 1.407017,0.3038 1.27897,-1.14883 0.851451,1.40596 -0.0058,1.48097 -1.27897,1.14883 z"
       id="path621-3-2-0"
       sodipodi:nodetypes="ccc" />
    <path
       style="display:inline;opacity:1;fill:#b3b3b3;stroke:#000000;stroke-width:0;stroke-linecap:butt;stroke-linejoin:miter;stroke-miterlimit:4;stroke-dasharray:none;stroke-opacity:1"
       d="m 101.4284,122.18644 c 0.47132,-0.29763 1.40721,0.30378 1.27916,-1.14902 0.85127,1.40607 -0.005,1.48101 -1.27916,1.14902 z"
       id="path621-3-2-0-2"
       sodipodi:nodetypes="ccc" />
    <path
       style="display:inline;opacity:1;fill:#b3b3b3;stroke:#000000;stroke-width:0;stroke-linecap:butt;stroke-linejoin:miter;stroke-miterlimit:4;stroke-dasharray:none;stroke-opacity:1"
       d="m 101.33679,122.89712 c 0.81396,-0.43823 2.43068,0.44742 2.20947,-1.69202 1.47049,2.07064 -0.01,2.18112 -2.20947,1.69202 z"
       id="path621-3-2-0-2-7"
       sodipodi:nodetypes="ccc" />
    <path
       style="display:inline;opacity:1;fill:#b3b3b3;stroke:#000000;stroke-width:0;stroke-linecap:butt;stroke-linejoin:miter;stroke-miterlimit:4;stroke-dasharray:none;stroke-opacity:1"
       d="m 102.08343,123.58326 c 0.81408,-0.43812 2.43064,0.44766 2.20958,-1.69176 1.4705,2.07048 -0.01,2.18101 -2.20958,1.69176 z"
       id="path621-3-2-0-2-7-7"
       sodipodi:nodetypes="ccc" />
    <path
       style="display:inline;opacity:1;fill:#b3b3b3;stroke:#000000;stroke-width:0;stroke-linecap:butt;stroke-linejoin:miter;stroke-miterlimit:4;stroke-dasharray:none;stroke-opacity:1"
       d="m 99.323957,123.13326 c 0.813963,-0.43832 2.430503,0.44761 2.209403,-1.69177 1.47056,2.07032 -0.01,2.1809 -2.209403,1.69177 z"
       id="path621-3-2-0-2-7-7-3"
       sodipodi:nodetypes="ccc" />
    <path
       style="display:inline;opacity:1;fill:#b3b3b3;stroke:#000000;stroke-width:0;stroke-linecap:butt;stroke-linejoin:miter;stroke-miterlimit:4;stroke-dasharray:none;stroke-opacity:1"
       d="m 98.61332,122.26868 c 0.813935,-0.43832 2.43063,0.44761 2.20941,-1.69177 1.47053,2.07032 -0.01,2.18089 -2.20941,1.69177 z"
       id="path621-3-2-0-2-7-7-3-1"
       sodipodi:nodetypes="ccc" />
    <path
       style="display:inline;opacity:1;fill:#b3b3b3;stroke:#000000;stroke-width:0;stroke-linecap:butt;stroke-linejoin:miter;stroke-miterlimit:4;stroke-dasharray:none;stroke-opacity:1"
       d="m 97.843508,121.40409 c 0.813902,-0.43832 2.430542,0.44762 2.209392,-1.69176 1.47052,2.07032 -0.01,2.18089 -2.209392,1.69176 z"
       id="path621-3-2-0-2-7-7-3-1-1"
       sodipodi:nodetypes="ccc" />
    <path
       style="display:inline;opacity:1;fill:#b3b3b3;stroke:#000000;stroke-width:0;stroke-linecap:butt;stroke-linejoin:miter;stroke-miterlimit:4;stroke-dasharray:none;stroke-opacity:1"
       d="m 97.156558,120.77644 c 0.81396,-0.43823 2.430608,0.44747 2.20939,-1.69194 1.470552,2.07056 -0.0097,2.18104 -2.20939,1.69194 z"
       id="path621-3-2-0-2-7-7-3-1-1-6"
       sodipodi:nodetypes="ccc" />
    <path
       style="display:inline;opacity:1;fill:#b3b3b3;stroke:#000000;stroke-width:0;stroke-linecap:butt;stroke-linejoin:miter;stroke-miterlimit:4;stroke-dasharray:none;stroke-opacity:1"
       d="m 102.62712,124.25519 c 0.95165,-0.54138 2.84172,0.55291 2.58325,-2.09022 1.71916,2.55799 -0.0116,2.69438 -2.58325,2.09022 z"
       id="path621-3-2-0-2-7-7-6"
       sodipodi:nodetypes="ccc" />
  </g>
  <g
     inkscape:groupmode="layer"
     id="layer6"
     inkscape:label="tail"
     style="display:inline;opacity:1">
    <path
       style="opacity:0.51495;fill:#ff5c5c;fill-opacity:1;stroke:#000000;stroke-width:0;stroke-linecap:butt;stroke-linejoin:miter;stroke-miterlimit:4;stroke-dasharray:none;stroke-opacity:1"
       d="m 122.56039,114.36121 c 1.99824,1.25615 3.15185,2.37136 4.08698,3.45034 0.63025,0.10078 0.93225,5.77012 0.536,6.13021 -3.11899,-2.27748 -4.52353,-5.20178 -5.82881,-8.14019 -0.21318,-0.60681 -0.10793,-1.16063 -0.067,-1.72516 0.55084,-0.25306 0.89153,0.0715 1.27282,0.2848 z"
       id="path1612"
       sodipodi:nodetypes="cccccc" />
    <path
       style="opacity:0.51495;fill:#ff5c5c;fill-opacity:1;stroke:#000000;stroke-width:0;stroke-linecap:butt;stroke-linejoin:miter;stroke-miterlimit:4;stroke-dasharray:none;stroke-opacity:1"
       d="m 121.83254,113.31027 c 1.9981,1.25617 3.1516,2.37134 4.08672,3.45036 0.63027,0.10077 0.93221,5.77013 0.53601,6.13017 -3.11899,-2.27743 -4.52354,-5.20172 -5.8288,-8.14013 -0.21292,-0.60684 -0.10769,-1.16063 -0.067,-1.72516 0.55082,-0.25303 0.89178,0.0715 1.27305,0.28476 z"
       id="path1612-8"
       sodipodi:nodetypes="cccccc" />
    <path
       style="opacity:0.51495;fill:#ffffff;stroke:#000000;stroke-width:0;stroke-linecap:butt;stroke-linejoin:miter;stroke-miterlimit:4;stroke-dasharray:none;stroke-opacity:1"
       d="m 121.33772,114.19371 c 0.42703,1.08906 0.66812,2.41321 1.31602,3.46536 1.05146,1.70806 2.51844,2.93503 4.06064,4.44037 -0.40874,-1.68146 -0.15443,-3.35943 -1.31691,-5.09886 -0.838,-1.1037 -2.37617,-2.07689 -3.90893,-2.99117 z"
       id="path1629"
       sodipodi:nodetypes="cacccc" />
    <path
       style="opacity:0.51495;fill:#ff5c5c;fill-opacity:1;stroke:#000000;stroke-width:0;stroke-linecap:butt;stroke-linejoin:miter;stroke-miterlimit:4;stroke-dasharray:none;stroke-opacity:1"
       d="m 120.72638,116.17648 c 1.40606,1.09549 2.21765,2.06828 2.87569,3.00929 0.44345,0.0879 0.65596,5.03243 0.37716,5.34661 -2.19457,-1.98644 -3.18286,-4.53682 -4.10141,-7.0996 -0.1499,-0.52924 -0.0757,-1.01227 -0.047,-1.50465 0.38761,-0.22072 0.62739,0.0624 0.8956,0.24835 z"
       id="path1612-8-3"
       sodipodi:nodetypes="cccccc" />
    <path
       style="opacity:0.51495;fill:#ffffff;stroke:#000000;stroke-width:0;stroke-linecap:butt;stroke-linejoin:miter;stroke-miterlimit:4;stroke-dasharray:none;stroke-opacity:1"
       d="m 120.37826,116.94692 c 0.30049,0.94988 0.47025,2.10481 0.92595,3.02249 0.73984,1.4896 1.77206,2.55986 2.85724,3.8725 -0.28754,-1.46651 -0.10857,-2.92978 -0.92656,-4.4469 -0.58958,-0.96257 -1.67206,-1.81139 -2.75053,-2.60884 z"
       id="path1629-7"
       sodipodi:nodetypes="cacccc" />
    <path
       style="opacity:0.51495;fill:#ff5c5c;fill-opacity:1;stroke:#000000;stroke-width:0;stroke-linecap:butt;stroke-linejoin:miter;stroke-miterlimit:4;stroke-dasharray:none;stroke-opacity:1"
       d="m 125.71103,115.1632 c 1.70208,0.52879 2.80493,1.15265 3.75253,1.8009 0.44609,-0.0743 2.38963,4.47725 2.23966,4.86952 -2.75446,-1.0842 -4.57918,-3.12185 -6.34293,-5.1956 -0.32691,-0.44226 -0.42804,-0.92027 -0.57492,-1.39121 0.28466,-0.34325 0.60891,-0.163 0.92569,-0.0836 z"
       id="path1612-8-3-4"
       sodipodi:nodetypes="cccccc" />
    <path
       style="opacity:0.51495;fill:#ffffff;stroke:#000000;stroke-width:0;stroke-linecap:butt;stroke-linejoin:miter;stroke-miterlimit:4;stroke-dasharray:none;stroke-opacity:1"
       d="m 125.79116,116.14088 c 0.61631,0.78263 1.18255,1.80345 1.93289,2.50132 1.21795,1.13265 2.56144,1.76968 4.04018,2.61509 -0.78667,-1.27075 -1.13562,-2.70302 -2.43619,-3.83379 -0.89166,-0.6926 -2.20387,-1.10494 -3.49438,-1.47035 z"
       id="path1629-7-9"
       sodipodi:nodetypes="cacccc" />
    <path
       style="opacity:0.51495;fill:#ff0000;fill-opacity:1;stroke:#000000;stroke-width:0;stroke-linecap:butt;stroke-linejoin:miter;stroke-miterlimit:4;stroke-dasharray:none;stroke-opacity:1"
       d="m 126.8592,117.74983 c 1.47955,0.99438 2.35724,1.90769 3.07971,2.80028 0.44853,0.0568 1.00709,4.97425 0.75084,5.30703 -2.32848,-1.8276 -3.493,-4.30239 -4.58895,-6.79451 -0.18659,-0.5175 -0.14645,-1.00447 -0.15245,-1.49778 0.37116,-0.2472 0.63021,0.0179 0.91087,0.18498 z"
       id="path1612-8-3-4-3"
       sodipodi:nodetypes="cccccc" />
    <path
       style="opacity:0.51495;fill:#ffffff;fill-opacity:1;stroke:#000000;stroke-width:0;stroke-linecap:butt;stroke-linejoin:miter;stroke-miterlimit:4;stroke-dasharray:none;stroke-opacity:1"
       d="m 126.5661,118.54284 c 0.36622,0.92645 0.6165,2.06667 1.13539,2.95015 0.84258,1.43412 1.94713,2.42924 3.12178,3.66278 -0.3897,-1.4428 -0.31375,-2.91505 -1.23604,-4.37112 -0.65566,-0.91885 -1.79495,-1.68961 -2.92666,-2.4095 z"
       id="path1629-7-9-9"
       sodipodi:nodetypes="cacccc" />
    <path
       style="opacity:0.51495;fill:#ff5c5c;fill-opacity:1;stroke:#000000;stroke-width:0;stroke-linecap:butt;stroke-linejoin:miter;stroke-miterlimit:4;stroke-dasharray:none;stroke-opacity:1"
       d="m 129.22837,120.35987 2.30953,3.37549 -1.7647,-2.96099 2.16754,2.85444 -1.90686,-3.02014 2.25029,2.51083 c 0.17054,0.17065 0.68428,0.34096 0.52116,0.22492 -0.0712,-0.024 -2.41628,-2.70024 -2.41628,-2.70024 l 2.32136,2.29766 c 0.38638,0.19299 0.68062,-0.14526 0.31981,-0.36712 -0.14338,-0.0882 -2.21479,-2.04897 -2.21479,-2.04897 l 2.58207,1.27911 c 0.78798,-0.30717 -0.85402,-0.90486 -2.01358,-1.44499 l -0.88825,-0.65134 z"
       id="path1685"
       sodipodi:nodetypes="cccccccccsccccc" />
    <path
       style="opacity:0.671096;fill:#cccccc;stroke:#000000;stroke-width:0.0501363;stroke-linecap:butt;stroke-linejoin:miter;stroke-miterlimit:4;stroke-dasharray:none;stroke-opacity:1"
       d="m 109.57161,117.82615 1.31888,2.87446 c -0.28212,1.9659 -1.52344,1.88722 -3.29925,0.6689 -1.23922,-0.84663 -2.44139,-1.6591 -3.87697,-2.68591 1.96805,-0.23182 3.98718,-0.34993 5.85734,-0.85745 z"
       id="path1743"
       sodipodi:nodetypes="ccccc" />
    <path
       style="opacity:1;fill:#ddc1c1;fill-opacity:1;stroke:#000000;stroke-width:0;stroke-linecap:butt;stroke-linejoin:miter;stroke-miterlimit:4;stroke-dasharray:none;stroke-opacity:1"
       d="m 115.41764,116.80128 0.92117,3.49933 c -1.30051,2.99484 -3.41543,1.46932 -5.44832,0.4 l -1.31888,-2.87446 z"
       id="path1745"
       sodipodi:nodetypes="ccccc" />
  </g>
</svg>
