<?xml version="1.0" encoding="UTF-8" standalone="no"?>
<svg
   xmlns:dc="http://purl.org/dc/elements/1.1/"
   xmlns:cc="http://creativecommons.org/ns#"
   xmlns:rdf="http://www.w3.org/1999/02/22-rdf-syntax-ns#"
   xmlns:svg="http://www.w3.org/2000/svg"
   xmlns="http://www.w3.org/2000/svg"
   xmlns:sodipodi="http://sodipodi.sourceforge.net/DTD/sodipodi-0.dtd"
   xmlns:inkscape="http://www.inkscape.org/namespaces/inkscape"
   width="100mm"
   height="100mm"
   viewBox="0 0 100 100"
   version="1.1"
   id="svg8"
   inkscape:version="1.0 (4035a4fb49, 2020-05-01)"
   sodipodi:docname="safari-guide-hand-l.svg">
  <style
     id="style850" />
  <defs
     id="defs2" />
  <sodipodi:namedview
     id="base"
     pagecolor="#ffffff"
     bordercolor="#666666"
     borderopacity="1.0"
     inkscape:pageopacity="0.0"
     inkscape:pageshadow="2"
     inkscape:zoom="1.979899"
     inkscape:cx="311.07095"
     inkscape:cy="149.59477"
     inkscape:document-units="mm"
     inkscape:current-layer="layer2"
     inkscape:document-rotation="0"
     showgrid="false"
     inkscape:window-width="1920"
     inkscape:window-height="1027"
     inkscape:window-x="-8"
     inkscape:window-y="-8"
     inkscape:window-maximized="1" />
  <metadata
     id="metadata5">
    <rdf:RDF>
      <cc:Work
         rdf:about="">
        <dc:format>image/svg+xml</dc:format>
        <dc:type
           rdf:resource="http://purl.org/dc/dcmitype/StillImage" />
        <dc:title></dc:title>
      </cc:Work>
    </rdf:RDF>
  </metadata>
  <g
     inkscape:groupmode="layer"
     id="layer2"
     inkscape:label="guide"
     style="display:inline">
    <path
       style="fill:none;stroke:#333333;stroke-width:1;stroke-linecap:butt;stroke-linejoin:miter;stroke-opacity:1;stroke-miterlimit:4;stroke-dasharray:none"
       d="m 46.645886,19.670063 c -3.656113,-0.544385 -6.31522,-0.443648 -9.400752,-0.618835 -2.122841,-0.617433 -4.355777,-1.175586 -6.01222,-2.044157 -3.602023,-3.002389 -6.976581,-6.067964 -9.900125,-9.2588184 -0.927893,-2.565704 -2.549127,-5.085186 -4.609368,-7.57539999 -0.414546,-0.06107 -0.602279,0.08407 -0.601224,0.400816 0.764568,1.02942899 1.494337,2.05112399 1.923912,3.00610999 l -1.723504,-0.200407 c -0.973782,1.096783 -0.621089,2.056346 -0.561141,3.046192 0.634756,0.983986 1.554995,1.939425 2.565214,2.885866 1.501435,1.1506634 2.792121,2.3434754 3.727577,3.6073324 2.50836,3.357475 5.123289,5.755821 7.735724,8.176621 2.283385,0.792671 4.324516,1.641246 7.254746,2.284645 l 4.754702,4.792611"
       id="path836"
       sodipodi:nodetypes="cccccccccccccc" />
  </g>
</svg>
