<?xml version="1.0" encoding="UTF-8" standalone="no"?>
<svg
   xmlns:dc="http://purl.org/dc/elements/1.1/"
   xmlns:cc="http://creativecommons.org/ns#"
   xmlns:rdf="http://www.w3.org/1999/02/22-rdf-syntax-ns#"
   xmlns:svg="http://www.w3.org/2000/svg"
   xmlns="http://www.w3.org/2000/svg"
   xmlns:sodipodi="http://sodipodi.sourceforge.net/DTD/sodipodi-0.dtd"
   xmlns:inkscape="http://www.inkscape.org/namespaces/inkscape"
   width="100mm"
   height="100mm"
   viewBox="0 0 100 100"
   version="1.1"
   id="svg8"
   inkscape:version="1.0 (4035a4fb49, 2020-05-01)"
   sodipodi:docname="safari-guide-body.svg">
  <style
     id="style850" />
  <defs
     id="defs2" />
  <sodipodi:namedview
     id="base"
     pagecolor="#ffffff"
     bordercolor="#666666"
     borderopacity="1.0"
     inkscape:pageopacity="0.0"
     inkscape:pageshadow="2"
     inkscape:zoom="1.979899"
     inkscape:cx="311.07095"
     inkscape:cy="149.59477"
     inkscape:document-units="mm"
     inkscape:current-layer="layer2"
     inkscape:document-rotation="0"
     showgrid="false"
     inkscape:window-width="1920"
     inkscape:window-height="1027"
     inkscape:window-x="-8"
     inkscape:window-y="-8"
     inkscape:window-maximized="1" />
  <metadata
     id="metadata5">
    <rdf:RDF>
      <cc:Work
         rdf:about="">
        <dc:format>image/svg+xml</dc:format>
        <dc:type
           rdf:resource="http://purl.org/dc/dcmitype/StillImage" />
        <dc:title></dc:title>
      </cc:Work>
    </rdf:RDF>
  </metadata>
  <g
     inkscape:groupmode="layer"
     id="layer2"
     inkscape:label="guide"
     style="display:inline">
    <path
       style="fill:#ffffff;fill-opacity:0;stroke:#333333;stroke-width:1.19973;stroke-linecap:butt;stroke-linejoin:miter;stroke-miterlimit:4;stroke-dasharray:none;stroke-opacity:1"
       d="m 43.046462,33.047448 c -0.216814,4.53332 -1.705186,8.871016 -2.834188,13.264 1.188789,0.21569 2.366449,0.487026 3.62776,0.340102 -1.273053,5.476814 -0.783109,10.56185 -0.793572,15.758088 0.320991,4.581144 0.792233,9.208518 -0.226736,13.377366 0.130332,3.649661 0.323679,7.180237 -0.07957,10.616464 l -1.133675,4.76144 c 0.09603,2.99424 1.332277,6.26957 3.140495,7.74907 0.879353,0.7195 2.6615,0.63584 3.401026,-0.22673 1.703547,-1.987 -0.680206,-7.82236 -0.680206,-7.82236 0.561876,-1.77654 0.452655,-3.6141 0.453471,-5.441642 0.426703,0.426961 0.648312,1.229932 1.360411,1.133672 0,0 -1.161347,3.38442 -0.113378,4.42134 2.279229,2.25519 8.219462,3.82955 8.162464,3.85449 0.843138,0.81503 3.575697,-2.33786 1.726251,-2.70019 -1.406558,-0.27556 -5.347936,-4.79913 -4.673805,-4.89543 0.03595,-6.57645 0.892461,-12.64794 1.58715,-18.819013 1.471206,-6.766938 3.418411,-13.449879 3.174291,-20.519522 -0.346398,-5.051152 -0.600622,-10.010128 0,-14.114259 1.120662,-2.203323 0.37242,-5.388221 4.019438,-4.762024 -0.479315,-1.030882 -1.269773,-5.43946 -1.958066,-5.557497 -1.073329,-0.29212 -5.439175,-2.187773 -5.037269,-2.292619 -0.469233,-0.187509 -0.669728,-0.472738 -0.850259,-0.765229 l 0.340104,-0.566841 c 0.661054,-0.584113 1.161719,-1.141496 1.502122,-1.672167 0.357894,-0.783167 0.721954,-1.566895 0.793573,-2.324036 0.167491,-0.585732 0.219368,-1.171465 0.255076,-1.757197 l 0.651863,-0.255076 C 58.69065,12.27869 57.684154,10.92371 56.508852,9.6087086 c -0.527313,-0.362588 -1.504086,-0.554689 -2.805844,-0.623521 -2.349962,0.803234 -3.120104,1.8236934 -3.344344,2.9192144 -0.500218,0.773077 -0.536684,1.52039 -0.566837,2.267351 l -0.510153,1.247043 c -0.03344,0.709542 0.21085,1.31809 0.76523,1.813882 l 0.45347,-0.05668 c -0.261562,0.668186 -0.06701,1.282713 0.113378,1.898905 -0.144988,0.312944 -0.34877,0.550296 -0.680205,0.62352 -1.247835,0.01393 -2.386099,0.01105 -3.287658,-0.02835 l -4.846461,8.502575 c 0.714778,1.624939 1.136867,3.249877 1.247034,4.874815 z"
       id="path848"
       sodipodi:nodetypes="cccccccsacccscscccccccccccccccccccccccccc" />
  </g>
</svg>
