<?xml version="1.0" encoding="UTF-8" standalone="no"?>
<svg
   xmlns:dc="http://purl.org/dc/elements/1.1/"
   xmlns:cc="http://creativecommons.org/ns#"
   xmlns:rdf="http://www.w3.org/1999/02/22-rdf-syntax-ns#"
   xmlns:svg="http://www.w3.org/2000/svg"
   xmlns="http://www.w3.org/2000/svg"
   xmlns:sodipodi="http://sodipodi.sourceforge.net/DTD/sodipodi-0.dtd"
   xmlns:inkscape="http://www.inkscape.org/namespaces/inkscape"
   width="100mm"
   height="100mm"
   viewBox="0 0 100 100"
   version="1.1"
   id="svg8"
   inkscape:version="1.0 (4035a4fb49, 2020-05-01)"
   sodipodi:docname="safari-guide-hand-r.svg">
  <style
     id="style850" />
  <defs
     id="defs2" />
  <sodipodi:namedview
     id="base"
     pagecolor="#ffffff"
     bordercolor="#666666"
     borderopacity="1.0"
     inkscape:pageopacity="0.0"
     inkscape:pageshadow="2"
     inkscape:zoom="1.979899"
     inkscape:cx="311.07095"
     inkscape:cy="149.59477"
     inkscape:document-units="mm"
     inkscape:current-layer="layer2"
     inkscape:document-rotation="0"
     showgrid="false"
     inkscape:window-width="1920"
     inkscape:window-height="1027"
     inkscape:window-x="-8"
     inkscape:window-y="-8"
     inkscape:window-maximized="1" />
  <metadata
     id="metadata5">
    <rdf:RDF>
      <cc:Work
         rdf:about="">
        <dc:format>image/svg+xml</dc:format>
        <dc:type
           rdf:resource="http://purl.org/dc/dcmitype/StillImage" />
        <dc:title></dc:title>
      </cc:Work>
    </rdf:RDF>
  </metadata>
  <g
     inkscape:groupmode="layer"
     id="layer2"
     inkscape:label="guide"
     style="display:inline">
    <path
       style="fill:none;stroke:#333333;stroke-width:1;stroke-linecap:butt;stroke-linejoin:miter;stroke-opacity:1;stroke-miterlimit:4;stroke-dasharray:none"
       d="m 61.435241,23.495643 c 2.255922,0.05294 4.36237,0.367437 6.19165,1.166992 1.530105,0.219743 3.110706,0.331283 5.010186,-0.240489 l 9.2989,-2.605296 c 1.024775,-0.627661 1.84592,-1.3775 2.605296,-2.164401 1.000406,-0.483424 1.961868,-1.025264 3.166437,-1.202443 0.239552,0.143859 0.385234,0.311186 0.200405,0.56114 -1.105811,0.247325 -1.886786,0.701366 -2.404886,1.322689 1.091907,-0.197967 1.940737,-0.122476 2.605296,0.160326 -0.428693,1.633509 -0.99505,2.096868 -1.523099,2.885867 -0.654181,-0.122928 -1.268767,-0.100683 -1.763584,0.360733 -0.860953,0.216461 -1.71679,0.407332 -2.525132,0.360733 -10.513004,4.949999 -8.270015,3.412663 -10.220775,4.008149 -0.721467,0.434315 -1.442934,0.377803 -2.1644,0.120242 -2.109292,0.02014 -3.478923,-0.187046 -4.930022,-0.28057 -0.372164,0.795744 -1.018529,1.077358 -1.81742,1.072993"
       id="path838"
       sodipodi:nodetypes="cccccccccccccccc" />
  </g>
</svg>
