<?xml version="1.0" encoding="UTF-8" standalone="no"?>
<svg
   xmlns:dc="http://purl.org/dc/elements/1.1/"
   xmlns:cc="http://creativecommons.org/ns#"
   xmlns:rdf="http://www.w3.org/1999/02/22-rdf-syntax-ns#"
   xmlns:svg="http://www.w3.org/2000/svg"
   xmlns="http://www.w3.org/2000/svg"
   xmlns:sodipodi="http://sodipodi.sourceforge.net/DTD/sodipodi-0.dtd"
   xmlns:inkscape="http://www.inkscape.org/namespaces/inkscape"
   width="10cm"
   height="10cm"
   viewBox="0 0 100 100"
   version="1.1"
   id="svg8"
   inkscape:version="1.0 (4035a4fb49, 2020-05-01)"
   sodipodi:docname="spoon.svg">
  <defs
     id="defs2" />
  <sodipodi:namedview
     id="base"
     pagecolor="#ffffff"
     bordercolor="#666666"
     borderopacity="1.0"
     inkscape:pageopacity="0.0"
     inkscape:pageshadow="2"
     inkscape:zoom="0.98994949"
     inkscape:cx="158.2778"
     inkscape:cy="338.3167"
     inkscape:document-units="cm"
     inkscape:current-layer="layer3"
     inkscape:document-rotation="0"
     showgrid="false"
     inkscape:snap-nodes="false"
     units="cm"
     inkscape:window-width="1920"
     inkscape:window-height="1027"
     inkscape:window-x="-8"
     inkscape:window-y="-8"
     inkscape:window-maximized="1" />
  <metadata
     id="metadata5">
    <rdf:RDF>
      <cc:Work
         rdf:about="">
        <dc:format>image/svg+xml</dc:format>
        <dc:type
           rdf:resource="http://purl.org/dc/dcmitype/StillImage" />
        <dc:title />
      </cc:Work>
    </rdf:RDF>
  </metadata>
  <g
     inkscape:groupmode="layer"
     id="layer3"
     inkscape:label="spoon-and-fork">
    <path
       id="path1011"
       style="opacity:1;fill:#333333;fill-opacity:1;stroke:#000000;stroke-width:0;stroke-linecap:butt;stroke-linejoin:miter;stroke-miterlimit:4;stroke-dasharray:none;stroke-opacity:1"
       d="m 82.756757,11.4972 c -2.152084,3.999184 -3.529433,8.022809 -3.671229,11.799661 -0.195448,5.209966 1.151909,8.869884 4.067697,11.17492 2.369149,1.151919 3.548566,2.371632 3.49228,4.165397 -0.459999,15.508975 -1.846659,28.947661 -3.187478,45.542357 -0.0097,0.118066 -0.11254,0.265559 -0.02808,0.354704 0.08989,0.06344 0.06933,0.194718 0.108905,0.298753 2.714144,8.442872 9.286503,4.563914 10.064795,-0.229001 0.0149,-0.09246 0.04903,-0.182374 0.05624,-0.275996 0.0065,-0.08657 -0.0085,-0.173721 -0.01351,-0.260557 -0.798912,-15.936093 -2.560495,-30.564429 -2.18671,-45.302635 0.262752,-1.105254 0.366942,-1.878743 2.014454,-2.716334 2.240352,-1.83325 5.119063,-3.831993 5.798023,-8.201252 0.748456,-4.816371 -0.56016,-9.918871 -4.907568,-16.90029 -3.072561,-4.6403871 -8.694782,-3.4852669 -11.607901,0.550268 z m 15.390507,16.82403 c -0.523294,3.376464 -3.350428,4.978442 -5.533946,6.849881 -2.18806,1.875345 -1.640652,2.585687 -2.163707,3.632433 -0.361784,14.263875 1.370878,29.858409 2.14402,45.281608 0.0041,0.08403 0.01924,0.167786 0.01277,0.251602 -0.0065,0.09053 -0.03561,0.179058 -0.0546,0.267671 -0.836951,3.903835 -5.399686,6.822438 -8.034943,0.105009 -0.03823,-0.100711 -0.09172,-0.188088 -0.105541,-0.289061 -0.01539,-0.113907 0.01801,-0.229115 0.02718,-0.343415 1.297794,-16.060606 2.72955,-30.128841 3.174782,-45.138668 0.05444,-1.736029 -1.08672,-4.131358 -3.379626,-5.246202 -2.821936,-2.230853 -4.156403,-4.938701 -3.967095,-9.980988 0.137335,-3.65529 1.524633,-7.458623 3.607447,-11.329095 2.301395,-4.5230401 7.028355,-3.647248 9.740486,-0.509596 2.497324,5.23739 5.719703,10.985988 4.532693,16.448805 z"
       sodipodi:nodetypes="cscccccscccccccccssccscccscccccc" />
  </g>
  <g
     inkscape:groupmode="layer"
     id="layer2"
     inkscape:label="plate" />
</svg>
